STARTFONT 2.3
FONT -FontForge-STIX Two Math-Book-R-Normal--20-200-72-72-P-137-ISO10646-1
SIZE 20 72 72  2
FONTBOUNDINGBOX 82 86 -20 -33
COMMENT "Generated by fontforge, http://fontforge.sourceforge.net"
COMMENT "Copyright 2001-2021 The STIX Fonts Project Authors (https://github.com/stipub/stixfonts)"
STARTPROPERTIES 41
FOUNDRY "FontForge"
FAMILY_NAME "STIX Two Math"
WEIGHT_NAME "Book"
SLANT "R"
SETWIDTH_NAME "Normal"
ADD_STYLE_NAME ""
PIXEL_SIZE 20
POINT_SIZE 200
RESOLUTION_X 72
RESOLUTION_Y 72
SPACING "P"
AVERAGE_WIDTH 137
CHARSET_REGISTRY "ISO10646"
CHARSET_ENCODING "1"
FONTNAME_REGISTRY ""
CHARSET_COLLECTIONS "ASCII ISOLatin1Encoding ISO8859-2 ISO8859-5 ISO8859-7 ISO8859-9 ISO8859-4 ISO10646-1"
BITS_PER_PIXEL 2
FONT_NAME "STIXTwoMath-Regular"
FACE_NAME "STIX Two Math Regular"
COPYRIGHT "Copyright 2001-2021 The STIX Fonts Project Authors (https://github.com/stipub/stixfonts)"
FONT_VERSION "2.12 b168a"
FONT_ASCENT 15
FONT_DESCENT 5
UNDERLINE_POSITION -2
UNDERLINE_THICKNESS 2
X_HEIGHT 9
CAP_HEIGHT 13
RAW_ASCENT 762
RAW_DESCENT 238
NORM_SPACE 5
RELATIVE_WEIGHT 40
RELATIVE_SETWIDTH 50
SUPERSCRIPT_X 0
SUPERSCRIPT_Y 10
SUPERSCRIPT_SIZE 10
SUBSCRIPT_X 0
SUBSCRIPT_Y 5
SUBSCRIPT_SIZE 10
FIGURE_WIDTH 10
AVG_LOWERCASE_WIDTH 99
AVG_UPPERCASE_WIDTH 135
ENDPROPERTIES
CHARS 6611
STARTCHAR space
ENCODING 32
SWIDTH 235 0
DWIDTH 5 0
BBX 1 1 0 0
BITMAP
00
ENDCHAR
STARTCHAR exclam
ENCODING 33
SWIDTH 283 0
DWIDTH 6 0
BBX 3 14 1 0
BITMAP
38
7C
78
38
38
38
34
24
24
24
10
00
7C
78
ENDCHAR
STARTCHAR quotedbl
ENCODING 34
SWIDTH 334 0
DWIDTH 7 0
BBX 5 4 1 10
BITMAP
E380
D340
D300
C300
ENDCHAR
STARTCHAR numbersign
ENCODING 35
SWIDTH 702 0
DWIDTH 14 0
BBX 12 14 1 0
BITMAP
00D070
00C060
01C0A0
018090
6BEAFA
0240C0
0340C0
0301C0
030180
AFABE9
060240
0A0340
090340
0D0300
ENDCHAR
STARTCHAR dollar
ENCODING 36
SWIDTH 495 0
DWIDTH 10 0
BBX 10 16 0 -2
BITMAP
0BF900
289780
349180
789080
3D9000
1FD000
07F800
00BE00
009B80
0093C0
5092D0
6092C0
789780
1BF900
009000
009000
ENDCHAR
STARTCHAR percent
ENCODING 37
SWIDTH 692 0
DWIDTH 14 0
BBX 12 14 1 0
BITMAP
1E9064
74AAB0
A050D0
D05280
D08300
E14A00
691C00
0024A8
006282
00D742
018702
030B02
090709
0C02E4
ENDCHAR
STARTCHAR ampersand
ENCODING 38
SWIDTH 736 0
DWIDTH 15 0
BBX 14 14 0 0
BITMAP
006A0000
01C18000
0281C000
02C18000
01D74000
00F92FD0
01F40B00
0A780900
2C2D0C00
380F2400
7407A000
7802D000
3C06F410
1BA82F90
ENDCHAR
STARTCHAR quotesingle
ENCODING 39
SWIDTH 187 0
DWIDTH 4 0
BBX 2 4 1 10
BITMAP
E0
D0
D0
C0
ENDCHAR
STARTCHAR parenleft
ENCODING 40
SWIDTH 357 0
DWIDTH 7 0
BBX 6 19 1 -4
BITMAP
0050
0280
0A00
1C00
3400
7000
B000
E000
E000
E000
E000
E000
A000
7000
3400
2800
0900
0240
0050
ENDCHAR
STARTCHAR parenright
ENCODING 41
SWIDTH 357 0
DWIDTH 7 0
BBX 7 19 0 -4
BITMAP
5000
2800
0A00
0240
01C0
00E0
00B0
00B0
0074
0074
0074
00B0
00B0
00E0
01D0
0280
0700
1800
6000
ENDCHAR
STARTCHAR asterisk
ENCODING 42
SWIDTH 410 0
DWIDTH 8 0
BBX 7 8 1 6
BITMAP
0600
0A00
D674
BAE0
0B40
B6E0
D634
0600
ENDCHAR
STARTCHAR plus
ENCODING 43
SWIDTH 720 0
DWIDTH 14 0
BBX 12 13 1 -1
BITMAP
001800
002C00
002C00
002C00
002C00
002C00
BFFFFF
156D55
002C00
002C00
002C00
002C00
001800
ENDCHAR
STARTCHAR comma
ENCODING 44
SWIDTH 245 0
DWIDTH 5 0
BBX 3 5 1 -3
BITMAP
B8
BC
18
24
50
ENDCHAR
STARTCHAR hyphen
ENCODING 45
SWIDTH 315 0
DWIDTH 6 0
BBX 5 1 1 5
BITMAP
AA40
ENDCHAR
STARTCHAR period
ENCODING 46
SWIDTH 245 0
DWIDTH 5 0
BBX 3 2 1 0
BITMAP
B4
B4
ENDCHAR
STARTCHAR slash
ENCODING 47
SWIDTH 386 0
DWIDTH 8 0
BBX 6 17 1 -3
BITMAP
0070
00A0
00D0
01C0
0280
0240
0300
0600
0900
0C00
1800
2400
3000
6000
9000
C000
4000
ENDCHAR
STARTCHAR zero
ENCODING 48
SWIDTH 495 0
DWIDTH 10 0
BBX 10 14 0 0
BITMAP
02A800
0E0A00
2C0740
3803C0
7802C0
7802D0
7402D0
7402D0
7802D0
7802C0
3803C0
2C0740
0E0B00
02A800
ENDCHAR
STARTCHAR one
ENCODING 49
SWIDTH 495 0
DWIDTH 10 0
BBX 8 14 1 0
BITMAP
06C0
6BC0
02C0
02C0
02C0
02C0
02C0
02C0
02C0
02C0
02C0
02C0
03D0
7FFD
ENDCHAR
STARTCHAR two
ENCODING 50
SWIDTH 495 0
DWIDTH 10 0
BBX 9 14 0 0
BITMAP
06B800
140F00
200740
000780
000780
000740
000E00
001C00
007400
00D000
024040
090080
2FFFC0
7FFF80
ENDCHAR
STARTCHAR three
ENCODING 51
SWIDTH 495 0
DWIDTH 10 0
BBX 8 14 1 0
BITMAP
1AE0
6078
402C
002C
0034
0090
0BF4
007D
001E
000F
000A
000D
A428
7E90
ENDCHAR
STARTCHAR four
ENCODING 52
SWIDTH 495 0
DWIDTH 10 0
BBX 10 14 0 0
BITMAP
000E00
002E00
007E00
009E00
025E00
061E00
0C1E00
241E00
601E00
BFFFE0
155E40
001E00
001E00
001E00
ENDCHAR
STARTCHAR five
ENCODING 53
SWIDTH 495 0
DWIDTH 10 0
BBX 8 13 1 0
BITMAP
0FFE
0FFD
1400
2400
3F90
2FF8
006E
000E
000A
000A
000D
B428
7F90
ENDCHAR
STARTCHAR six
ENCODING 54
SWIDTH 495 0
DWIDTH 10 0
BBX 8 14 1 0
BITMAP
0069
0790
1E00
3800
7400
B6A4
F42D
F00E
E00B
E00B
B00B
740A
381D
0BA4
ENDCHAR
STARTCHAR seven
ENCODING 55
SWIDTH 495 0
DWIDTH 10 0
BBX 9 13 1 0
BITMAP
7FFF40
BFFF00
800A00
400D00
001800
002400
007000
00A000
00D000
02C000
038000
070000
0A0000
ENDCHAR
STARTCHAR eight
ENCODING 56
SWIDTH 495 0
DWIDTH 10 0
BBX 8 14 1 0
BITMAP
1AA0
742C
A00D
B00D
B41C
3E64
0FD0
0AF4
747D
A01E
E00F
E00A
B41D
1AA4
ENDCHAR
STARTCHAR nine
ENCODING 57
SWIDTH 495 0
DWIDTH 10 0
BBX 9 14 0 0
BITMAP
06B800
1D0A00
380740
380380
7803C0
3802C0
3C03C0
1E0BC0
06A780
000740
000B00
001D00
00B400
1A8000
ENDCHAR
STARTCHAR colon
ENCODING 58
SWIDTH 245 0
DWIDTH 5 0
BBX 3 9 1 0
BITMAP
B4
B4
00
00
00
00
00
B4
B4
ENDCHAR
STARTCHAR semicolon
ENCODING 59
SWIDTH 245 0
DWIDTH 5 0
BBX 3 12 1 -3
BITMAP
B4
B4
00
00
00
00
00
B8
BC
18
24
50
ENDCHAR
STARTCHAR less
ENCODING 60
SWIDTH 720 0
DWIDTH 14 0
BBX 12 12 1 -1
BITMAP
000006
00006E
0006E4
006E00
06E000
6E0000
1F8000
01F800
001F80
0001B8
00001B
000001
ENDCHAR
STARTCHAR equal
ENCODING 61
SWIDTH 720 0
DWIDTH 14 0
BBX 12 6 1 3
BITMAP
AAAAAA
000000
000000
000000
000000
AAAAAA
ENDCHAR
STARTCHAR greater
ENCODING 62
SWIDTH 720 0
DWIDTH 14 0
BBX 12 12 1 -1
BITMAP
500000
7D0000
07D000
007D00
0007E0
00007E
0001B8
001F80
01F800
1F8000
B40000
400000
ENDCHAR
STARTCHAR question
ENCODING 63
SWIDTH 411 0
DWIDTH 8 0
BBX 8 14 0 0
BITMAP
0AE4
342D
741E
740E
101D
002C
0034
00A0
00C0
0180
0040
0000
03C0
02C0
ENDCHAR
STARTCHAR at
ENCODING 64
SWIDTH 905 0
DWIDTH 18 0
BBX 16 17 1 -4
BITMAP
001AA900
01E006D0
0A000074
1C00002C
340A990D
70382E0A
A0700E0A
A0E00E07
A0E00D07
A0E00D0A
B0E01D0D
70B42E18
342E87A0
1C000000
0B000000
02E40190
001BA900
ENDCHAR
STARTCHAR A
ENCODING 65
SWIDTH 718 0
DWIDTH 14 0
BBX 15 14 0 0
BITMAP
000A0000
000F0000
001F8000
0027C000
0032D000
00A1E000
00D0F400
01C0B800
02807C00
07AABD00
0A002F00
0D000F40
2C000B80
BF403FF4
ENDCHAR
STARTCHAR B
ENCODING 66
SWIDTH 618 0
DWIDTH 12 0
BBX 12 14 0 0
BITMAP
6FFF90
0780B4
07803C
07803C
078038
0780B4
07EF80
0780B4
07802D
07802E
07801E
07802D
07807C
6FEB90
ENDCHAR
STARTCHAR C
ENCODING 67
SWIDTH 670 0
DWIDTH 13 0
BBX 12 14 1 0
BITMAP
01AB99
0B407D
2D001D
78000D
B40009
F40000
F00000
F00000
F40000
B40000
780000
2D0005
0B4018
01BA90
ENDCHAR
STARTCHAR D
ENCODING 68
SWIDTH 730 0
DWIDTH 15 0
BBX 14 14 0 0
BITMAP
6FFF9000
07807D00
07800F40
078007C0
078003D0
078002D0
078002E0
078002E0
078002D0
078002D0
078003C0
07800B40
07806D00
6FEB9000
ENDCHAR
STARTCHAR E
ENCODING 69
SWIDTH 626 0
DWIDTH 13 0
BBX 12 14 0 0
BITMAP
2FFFFD
07801D
078005
078000
078020
078020
078060
07EBE0
078020
078000
078002
078006
07801E
6FFFFD
ENDCHAR
STARTCHAR F
ENCODING 70
SWIDTH 588 0
DWIDTH 12 0
BBX 12 14 0 0
BITMAP
6FFFFD
0B800D
078005
078000
078020
078060
07EBE0
078060
078020
078000
078000
078000
0B8000
7FF400
ENDCHAR
STARTCHAR G
ENCODING 71
SWIDTH 720 0
DWIDTH 14 0
BBX 13 14 1 0
BITMAP
01AB9900
0B407D00
2D001D00
78000D00
B4000900
F0000000
F0000000
F001FF80
F4002E00
B4001D00
78001D00
3D001D00
0F407D00
01BAA000
ENDCHAR
STARTCHAR H
ENCODING 72
SWIDTH 777 0
DWIDTH 16 0
BBX 14 14 1 0
BITMAP
BFE07FE0
1F000F40
0E000B40
0E000B00
0E000B00
0E000B00
0E000B00
0FAAAF00
0E000B00
0E000B00
0E000B00
0E000B40
1F000B40
BFE07FE0
ENDCHAR
STARTCHAR I
ENCODING 73
SWIDTH 357 0
DWIDTH 7 0
BBX 7 14 0 0
BITMAP
7FF4
0B80
0740
0740
0740
0740
0740
0740
0740
0740
0740
0740
0B80
7FF4
ENDCHAR
STARTCHAR J
ENCODING 74
SWIDTH 396 0
DWIDTH 8 0
BBX 8 14 0 0
BITMAP
0BFD
01F0
01E0
01E0
01E0
01E0
01E0
01E0
01E0
01E0
01E0
91E0
F1D0
7E40
ENDCHAR
STARTCHAR K
ENCODING 75
SWIDTH 702 0
DWIDTH 14 0
BBX 14 14 0 0
BITMAP
7FF4BFC0
0B802D00
07407400
0741D000
07474000
075D0000
07B40000
07BD0000
075F0000
0747C000
0741F000
07407C00
0B802F40
7FF4BFE0
ENDCHAR
STARTCHAR L
ENCODING 76
SWIDTH 585 0
DWIDTH 12 0
BBX 11 14 1 0
BITMAP
FFD000
2E0000
1E0000
1E0000
1E0000
1E0000
1E0000
1E0000
1E0000
1E0000
1E0014
1E0030
1E00B0
BFABF0
ENDCHAR
STARTCHAR M
ENCODING 77
SWIDTH 895 0
DWIDTH 18 0
BBX 17 14 0 0
BITMAP
7FC0003F80
0BD0007D00
0BE000BD00
0AF001ED00
09B402AD00
097C032D00
093D062D00
091E092D00
090F0C2D00
090B682D00
0907F02D00
0902E02D00
0A01D02D00
7FD0C1FF80
ENDCHAR
STARTCHAR N
ENCODING 78
SWIDTH 742 0
DWIDTH 15 0
BBX 15 14 0 0
BITMAP
7F401FF4
0FC00380
0BE00280
0AF80240
097D0240
092F0240
090B8240
0903D240
0901F240
0900BA40
09002F40
09000F40
0A000740
7FD00240
ENDCHAR
STARTCHAR O
ENCODING 79
SWIDTH 738 0
DWIDTH 15 0
BBX 13 14 1 0
BITMAP
01AA9000
0B40B800
2D002D00
78000F00
B4000B40
F4000780
F0000780
F0000780
F4000780
B4000B40
78000F00
2D001D00
0B407400
01AA9000
ENDCHAR
STARTCHAR P
ENCODING 80
SWIDTH 569 0
DWIDTH 11 0
BBX 10 14 1 0
BITMAP
BFFE40
1E07D0
1E01E0
1E00F0
1E00E0
1E01D0
1E0780
1FE900
1E0000
1E0000
1E0000
1E0000
2E0000
BFD000
ENDCHAR
STARTCHAR Q
ENCODING 81
SWIDTH 737 0
DWIDTH 15 0
BBX 14 18 1 -4
BITMAP
01AA9000
0B40B800
2D002D00
78000F00
B4000B40
F4000780
F0000780
F0000780
F4000780
B4000B40
78000F00
2D001D00
0F407800
02FB9000
000F8000
0007D000
0002F800
00006BD0
ENDCHAR
STARTCHAR R
ENCODING 82
SWIDTH 659 0
DWIDTH 13 0
BBX 13 14 1 0
BITMAP
BFFE4000
1E07D000
1E01E000
1E00F000
1E00F000
1E01D000
1E078000
1FFD0000
1E2D0000
1E0F4000
1E07C000
1E02E000
2E00F400
BFD07F40
ENDCHAR
STARTCHAR S
ENCODING 83
SWIDTH 504 0
DWIDTH 10 0
BBX 10 14 0 0
BITMAP
06BF80
1D0780
380180
3C0080
2E0000
1F9000
07F800
00BF40
001FC0
0003D0
5002D0
7002D0
780380
3FAE00
ENDCHAR
STARTCHAR T
ENCODING 84
SWIDTH 603 0
DWIDTH 12 0
BBX 12 14 0 0
BITMAP
BEBEBE
A03C0A
903C02
403C01
003C00
003C00
003C00
003C00
003C00
003C00
003C00
003C00
003C00
02FF80
ENDCHAR
STARTCHAR U
ENCODING 85
SWIDTH 752 0
DWIDTH 15 0
BBX 15 14 0 0
BITMAP
7FF01FF8
0F4002C0
0B400180
0B400180
0B400180
0B400180
0B400180
0B400180
0B400180
0B400180
07400180
03800240
02D00A00
006EA400
ENDCHAR
STARTCHAR V
ENCODING 86
SWIDTH 680 0
DWIDTH 14 0
BBX 14 14 0 0
BITMAP
FFC01FE0
2F000740
1F000600
0B400900
07800C00
03C01800
02E03400
00F07000
00B49000
0078C000
003D8000
002F4000
000F0000
00090000
ENDCHAR
STARTCHAR W
ENCODING 87
SWIDTH 944 0
DWIDTH 19 0
BBX 19 14 0 0
BITMAP
FF87FE07F8
2E00F400E0
1F007800C0
0B403C0180
07803D0240
03C03E0300
02D09F0600
01E0CB4900
00F1878C00
00B643D800
007F02F400
002E00F000
001D00A000
0008005000
ENDCHAR
STARTCHAR X
ENCODING 88
SWIDTH 664 0
DWIDTH 13 0
BBX 13 14 0 0
BITMAP
BFE07FC0
0B801D00
07C03400
02E0A000
00F5C000
007A4000
002E0000
002F4000
00678000
00C2D000
0240F400
0A00B800
1D007E00
BF41FFC0
ENDCHAR
STARTCHAR Y
ENCODING 89
SWIDTH 647 0
DWIDTH 13 0
BBX 13 14 0 0
BITMAP
FFD07FC0
2F000D00
0B401800
03C03000
02E09000
00F4C000
007A4000
002E0000
001D0000
001D0000
001D0000
001D0000
002E0000
01FFD000
ENDCHAR
STARTCHAR Z
ENCODING 90
SWIDTH 594 0
DWIDTH 12 0
BBX 12 14 0 0
BITMAP
2FAAFC
2800B8
2001F0
1003D0
000B80
001F00
003D00
00B800
01F000
03D000
0B8005
1F4008
2E001C
7EAAFC
ENDCHAR
STARTCHAR bracketleft
ENCODING 91
SWIDTH 349 0
DWIDTH 7 0
BBX 5 20 1 -4
BITMAP
7A80
7400
7400
7400
7400
7400
7400
7400
7400
7400
7400
7400
7400
7400
7400
7400
7400
7400
7400
7A80
ENDCHAR
STARTCHAR backslash
ENCODING 92
SWIDTH 385 0
DWIDTH 8 0
BBX 6 17 1 -3
BITMAP
C000
9000
A000
7000
3400
2800
1C00
0C00
0900
0600
0300
0240
0180
00C0
0090
0060
0010
ENDCHAR
STARTCHAR bracketright
ENCODING 93
SWIDTH 349 0
DWIDTH 7 0
BBX 5 20 1 -4
BITMAP
AB00
0740
0740
0740
0740
0740
0740
0740
0740
0740
0740
0740
0740
0740
0740
0740
0740
0740
0740
AB00
ENDCHAR
STARTCHAR asciicircum
ENCODING 94
SWIDTH 480 0
DWIDTH 10 0
BBX 8 8 1 6
BITMAP
0140
07C0
0990
1C60
2434
7018
A00D
C006
ENDCHAR
STARTCHAR underscore
ENCODING 95
SWIDTH 512 0
DWIDTH 10 0
BBX 11 1 0 -3
BITMAP
AAAAA4
ENDCHAR
STARTCHAR grave
ENCODING 96
SWIDTH 222 0
DWIDTH 4 0
BBX 4 3 0 11
BITMAP
78
1C
06
ENDCHAR
STARTCHAR a
ENCODING 97
SWIDTH 480 0
DWIDTH 10 0
BBX 9 10 0 0
BITMAP
06B800
2C1D00
2C0E00
140E00
006E00
0A4E00
2C0E00
780E00
381E00
1F8B80
ENDCHAR
STARTCHAR b
ENCODING 98
SWIDTH 522 0
DWIDTH 10 0
BBX 10 14 0 0
BITMAP
6D0000
2D0000
1D0000
1D0000
1D7E00
1E57C0
1D02D0
1D01E0
1D00E0
1D00E0
1D01D0
1D01C0
1E0740
0BE900
ENDCHAR
STARTCHAR c
ENCODING 99
SWIDTH 446 0
DWIDTH 9 0
BBX 9 10 0 0
BITMAP
06B900
1D0F00
280700
340000
740000
740000
780000
3D0240
1FFE00
06F800
ENDCHAR
STARTCHAR d
ENCODING 100
SWIDTH 539 0
DWIDTH 11 0
BBX 10 14 0 0
BITMAP
000AC0
0003C0
0002C0
0002C0
02ABC0
0D07C0
2803C0
3802C0
7402C0
7402C0
7802C0
3802C0
2D07C0
0BE6D0
ENDCHAR
STARTCHAR e
ENCODING 101
SWIDTH 464 0
DWIDTH 9 0
BBX 9 10 0 0
BITMAP
06B800
1C0E00
340740
3EAB40
740000
740000
3C0040
2E0240
1FFE00
06F800
ENDCHAR
STARTCHAR f
ENCODING 102
SWIDTH 307 0
DWIDTH 6 0
BBX 8 15 0 0
BITMAP
01B8
071D
0A04
0E00
0E00
6FA0
0E00
0E00
0E00
0E00
0E00
0E00
0E00
0F00
BFE0
ENDCHAR
STARTCHAR g
ENCODING 103
SWIDTH 484 0
DWIDTH 10 0
BBX 10 15 0 -5
BITMAP
06BF90
1D1F00
3C0B40
380B40
2C0B00
0D0E00
0AA400
280000
3FEA00
1FFFC0
2401D0
700090
B00080
780240
1FA400
ENDCHAR
STARTCHAR h
ENCODING 104
SWIDTH 577 0
DWIDTH 12 0
BBX 11 14 0 0
BITMAP
6E0000
1E0000
0E0000
0E0000
0E6B40
0F42D0
0E00E0
0E00E0
0E00E0
0E00E0
0E00E0
0E00E0
0E00E0
7FC7FC
ENDCHAR
STARTCHAR i
ENCODING 105
SWIDTH 285 0
DWIDTH 6 0
BBX 5 14 0 0
BITMAP
0E00
0F00
0000
0000
2E00
1E00
0E00
0E00
0E00
0E00
0E00
0E00
0E00
7FC0
ENDCHAR
STARTCHAR j
ENCODING 106
SWIDTH 263 0
DWIDTH 5 0
BBX 6 19 -2 -5
BITMAP
01E0
01E0
0000
0000
06E0
01E0
00E0
00E0
00E0
00E0
00E0
00E0
00E0
00E0
00E0
00E0
40D0
B1C0
7E40
ENDCHAR
STARTCHAR k
ENCODING 107
SWIDTH 542 0
DWIDTH 11 0
BBX 11 14 0 0
BITMAP
6E0000
0E0000
0E0000
0E0000
0E1FF0
0E0740
0E1800
0E6000
0FE000
0EB400
0E2D00
0E0F40
0E03D0
7FCBF8
ENDCHAR
STARTCHAR l
ENCODING 108
SWIDTH 283 0
DWIDTH 6 0
BBX 5 14 0 0
BITMAP
6A00
1E00
0E00
0E00
0E00
0E00
0E00
0E00
0E00
0E00
0E00
0E00
0E00
7FC0
ENDCHAR
STARTCHAR m
ENCODING 109
SWIDTH 852 0
DWIDTH 17 0
BBX 17 10 0 0
BITMAP
2E2B46E400
0F82E43C00
0E01E02C00
0E01D02C00
0E01D02C00
0E01D02C00
0E01D02C00
0E01D02C00
0E01E02D00
7FCBF8BF40
ENDCHAR
STARTCHAR n
ENCODING 110
SWIDTH 576 0
DWIDTH 12 0
BBX 11 10 0 0
BITMAP
2E6B40
0F42D0
0E00E0
0E00E0
0E00E0
0E00E0
0E00E0
0E00E0
0E01E0
7FD7FC
ENDCHAR
STARTCHAR o
ENCODING 111
SWIDTH 514 0
DWIDTH 10 0
BBX 10 10 0 0
BITMAP
06E900
1E0780
2C02C0
3801D0
7801E0
7801E0
3801D0
3C02C0
1E0340
06E900
ENDCHAR
STARTCHAR p
ENCODING 112
SWIDTH 537 0
DWIDTH 11 0
BBX 10 15 0 -5
BITMAP
6E6F40
1E97D0
0E01E0
0E00F0
0E00B0
0E00B0
0E00E0
0E01D0
0F4280
0EAA00
0E0000
0E0000
0E0000
1E0000
7FD000
ENDCHAR
STARTCHAR q
ENCODING 113
SWIDTH 521 0
DWIDTH 10 0
BBX 10 15 0 -5
BITMAP
02A980
0D0780
280380
340380
740380
740380
780380
3C0380
2E5B80
0BE780
000380
000380
000380
0003C0
002FF0
ENDCHAR
STARTCHAR r
ENCODING 114
SWIDTH 380 0
DWIDTH 8 0
BBX 8 10 0 0
BITMAP
2A2D
1EAD
0F40
0E00
0E00
0E00
0E00
0E00
0E00
7FD0
ENDCHAR
STARTCHAR s
ENCODING 115
SWIDTH 395 0
DWIDTH 8 0
BBX 8 10 0 0
BITMAP
1AA8
3428
3408
3D00
1F90
02F4
007C
501D
742C
6AA4
ENDCHAR
STARTCHAR t
ENCODING 116
SWIDTH 315 0
DWIDTH 6 0
BBX 5 13 1 0
BITMAP
1800
2800
7800
BE80
3800
3800
3800
3800
3800
3800
3800
3840
1E40
ENDCHAR
STARTCHAR u
ENCODING 117
SWIDTH 570 0
DWIDTH 11 0
BBX 11 10 0 0
BITMAP
6D0BD0
1D01D0
1D01D0
1D01D0
1D01D0
1D01D0
1D01D0
0E01D0
0F02D0
06E5E4
ENDCHAR
STARTCHAR v
ENCODING 118
SWIDTH 481 0
DWIDTH 10 0
BBX 11 10 -1 0
BITMAP
7F81FC
0F0060
0B4090
0780C0
02C180
01D200
00E600
00B900
007C00
003400
ENDCHAR
STARTCHAR w
ENCODING 119
SWIDTH 749 0
DWIDTH 15 0
BBX 17 10 -1 0
BITMAP
7F8BF47F40
0F01E00C00
0B40E01800
0780F42400
02C1B83000
01D22C5000
00E21D8000
00B90E8000
007C0B4000
0034070000
ENDCHAR
STARTCHAR x
ENCODING 120
SWIDTH 479 0
DWIDTH 10 0
BBX 10 10 0 0
BITMAP
BF4FD0
1E0700
0B4800
039400
01E000
01F400
023C00
091E00
280B40
FD1FE0
ENDCHAR
STARTCHAR y
ENCODING 121
SWIDTH 483 0
DWIDTH 10 0
BBX 11 15 -1 -5
BITMAP
7FC1F8
0F0060
0B4090
0780C0
02C180
01E240
00F200
007900
003C00
002800
002400
003000
00A000
2EC000
2E4000
ENDCHAR
STARTCHAR z
ENCODING 122
SWIDTH 458 0
DWIDTH 9 0
BBX 9 10 0 0
BITMAP
3FFF40
301E00
202D00
00B800
01E000
02D000
078040
0F0140
2D0340
7FFF40
ENDCHAR
STARTCHAR braceleft
ENCODING 123
SWIDTH 327 0
DWIDTH 7 0
BBX 6 19 0 -5
BITMAP
01A0
0A00
0D00
0D00
0E00
0E00
0A00
0A00
0D00
7400
1800
0A00
0A00
0E00
0E00
0D00
0D00
0A00
0290
ENDCHAR
STARTCHAR bar
ENCODING 124
SWIDTH 267 0
DWIDTH 5 0
BBX 2 19 2 -5
BITMAP
D0
D0
D0
D0
D0
D0
D0
D0
D0
D0
D0
D0
D0
D0
D0
D0
D0
D0
D0
ENDCHAR
STARTCHAR braceright
ENCODING 125
SWIDTH 327 0
DWIDTH 7 0
BBX 5 19 1 -5
BITMAP
A400
1D00
0E00
0E00
0E00
0D00
0D00
0D00
0A00
02C0
0640
0D00
0D00
0D00
0E00
0E00
0E00
1D00
A400
ENDCHAR
STARTCHAR asciitilde
ENCODING 126
SWIDTH 557 0
DWIDTH 11 0
BBX 10 2 1 4
BITMAP
6A91D0
D06E40
ENDCHAR
STARTCHAR uni00A0
ENCODING 160
SWIDTH 235 0
DWIDTH 5 0
BBX 1 1 0 0
BITMAP
00
ENDCHAR
STARTCHAR exclamdown
ENCODING 161
SWIDTH 282 0
DWIDTH 6 0
BBX 3 14 1 -4
BITMAP
38
7C
00
10
24
24
24
38
38
38
38
7C
38
24
ENDCHAR
STARTCHAR cent
ENCODING 162
SWIDTH 495 0
DWIDTH 10 0
BBX 8 14 1 0
BITMAP
00C0
0080
06F8
28AD
708E
A180
E180
E180
E180
B581
7E89
1FF4
0240
0140
ENDCHAR
STARTCHAR sterling
ENCODING 163
SWIDTH 495 0
DWIDTH 10 0
BBX 10 14 0 0
BITMAP
006E40
0183C0
0241C0
034000
074000
074000
078000
2BE900
038000
038000
028000
6B4010
93E580
797E00
ENDCHAR
STARTCHAR currency
ENCODING 164
SWIDTH 617 0
DWIDTH 12 0
BBX 11 10 1 1
BITMAP
D00034
7AAAE0
1D0280
2400C0
300090
300090
2400C0
1D0780
76A9A0
900024
ENDCHAR
STARTCHAR yen
ENCODING 165
SWIDTH 495 0
DWIDTH 10 0
BBX 10 13 0 0
BITMAP
FF47E0
3D0280
1E0200
0F4600
078900
03D800
01F400
1AFA40
00F000
1AFA40
00F000
00F400
07FE00
ENDCHAR
STARTCHAR brokenbar
ENCODING 166
SWIDTH 267 0
DWIDTH 5 0
BBX 2 15 2 -1
BITMAP
D0
D0
D0
D0
D0
D0
00
00
00
D0
D0
D0
D0
D0
D0
ENDCHAR
STARTCHAR section
ENCODING 167
SWIDTH 491 0
DWIDTH 10 0
BBX 8 19 1 -5
BITMAP
0AA0
2818
341C
3818
2D00
0F80
0BE0
20F4
603C
701D
3809
2E08
0BA4
02E0
00B4
7038
7028
7024
1A90
ENDCHAR
STARTCHAR dieresis
ENCODING 168
SWIDTH 392 0
DWIDTH 8 0
BBX 7 2 0 12
BITMAP
783C
782C
ENDCHAR
STARTCHAR copyright
ENCODING 169
SWIDTH 781 0
DWIDTH 16 0
BBX 14 14 1 0
BITMAP
006A9000
06402800
18000600
206BA180
50D06080
82C02050
82800050
82800050
82C00050
50E02080
202A8180
18000200
06402800
006A9000
ENDCHAR
STARTCHAR ordfeminine
ENCODING 170
SWIDTH 410 0
DWIDTH 8 0
BBX 8 8 0 5
BITMAP
1AA0
3834
1438
01B8
1938
3438
7879
2F6D
ENDCHAR
STARTCHAR guillemotleft
ENCODING 171
SWIDTH 517 0
DWIDTH 10 0
BBX 9 8 0 1
BITMAP
008040
024280
0A0A00
282C00
783800
1D0E00
070340
018080
ENDCHAR
STARTCHAR logicalnot
ENCODING 172
SWIDTH 720 0
DWIDTH 14 0
BBX 12 7 1 1
BITMAP
BFFFFE
15555A
00000A
00000A
00000A
00000A
000006
ENDCHAR
STARTCHAR uni00AD
ENCODING 173
SWIDTH 315 0
DWIDTH 6 0
BBX 5 1 1 5
BITMAP
AA40
ENDCHAR
STARTCHAR registered
ENCODING 174
SWIDTH 413 0
DWIDTH 8 0
BBX 8 8 0 7
BITMAP
0550
1404
1655
5261
5291
1665
1408
0550
ENDCHAR
STARTCHAR macron
ENCODING 175
SWIDTH 350 0
DWIDTH 7 0
BBX 7 1 0 12
BITMAP
6AA4
ENDCHAR
STARTCHAR degree
ENCODING 176
SWIDTH 409 0
DWIDTH 8 0
BBX 6 6 1 8
BITMAP
1A80
A0A0
D030
D030
A0A0
1A80
ENDCHAR
STARTCHAR plusminus
ENCODING 177
SWIDTH 720 0
DWIDTH 14 0
BBX 12 13 1 0
BITMAP
001800
001C00
001C00
001C00
001C00
AABEAA
001C00
001C00
001C00
001C00
001800
000000
AAAAAA
ENDCHAR
STARTCHAR twosuperior
ENCODING 178
SWIDTH 373 0
DWIDTH 7 0
BBX 7 10 0 5
BITMAP
1BD0
24B4
0038
0034
0070
00D0
0240
0904
2958
7FF8
ENDCHAR
STARTCHAR threesuperior
ENCODING 179
SWIDTH 374 0
DWIDTH 7 0
BBX 7 10 0 5
BITMAP
1BD0
25B0
0070
0090
0BD0
00B4
0038
0028
2034
7E90
ENDCHAR
STARTCHAR acute
ENCODING 180
SWIDTH 222 0
DWIDTH 4 0
BBX 4 3 0 11
BITMAP
1E
28
60
ENDCHAR
STARTCHAR uni00B5
ENCODING 181
SWIDTH 556 0
DWIDTH 11 0
BBX 10 14 1 -4
BITMAP
B40B00
740B00
700A00
700A00
600D00
601D00
A02900
B46A10
AFD7E0
DB83C0
D00000
E00000
E00000
E00000
ENDCHAR
STARTCHAR paragraph
ENCODING 182
SWIDTH 605 0
DWIDTH 12 0
BBX 10 17 1 -3
BITMAP
1AFFE0
74A740
B0A700
E0A700
E0A700
B0A700
74A700
2DE700
01E700
00A700
00A700
00A700
00A700
00A700
00A700
00E740
0696A0
ENDCHAR
STARTCHAR periodcentered
ENCODING 183
SWIDTH 282 0
DWIDTH 6 0
BBX 3 2 1 4
BITMAP
7C
78
ENDCHAR
STARTCHAR cedilla
ENCODING 184
SWIDTH 247 0
DWIDTH 5 0
BBX 4 5 1 -5
BITMAP
50
68
0D
0D
A4
ENDCHAR
STARTCHAR onesuperior
ENCODING 185
SWIDTH 343 0
DWIDTH 7 0
BBX 5 10 1 5
BITMAP
6D00
5D00
1D00
1D00
1D00
1D00
1D00
1D00
1D00
BF80
ENDCHAR
STARTCHAR ordmasculine
ENCODING 186
SWIDTH 432 0
DWIDTH 9 0
BBX 8 8 0 5
BITMAP
0AA4
281D
740B
740B
740B
740A
281D
0AA4
ENDCHAR
STARTCHAR guillemotright
ENCODING 187
SWIDTH 517 0
DWIDTH 10 0
BBX 9 8 1 1
BITMAP
804000
602000
181D00
0B0B40
074780
1D0E00
342800
906000
ENDCHAR
STARTCHAR onequarter
ENCODING 188
SWIDTH 861 0
DWIDTH 17 0
BBX 16 16 1 -1
BITMAP
00000200
18000600
6C000C00
1C001800
1C003000
1C009000
1C01C024
1C0240B4
2C0601B4
AA4D0274
00180934
00302834
00903ABE
01C00034
02400034
01000000
ENDCHAR
STARTCHAR onehalf
ENCODING 189
SWIDTH 889 0
DWIDTH 18 0
BBX 16 16 1 -1
BITMAP
00000200
18000600
6C000C00
1C001800
1C003000
1C009000
1C01C2F8
1C02491E
2C06040A
AA4D000E
0018001D
00300034
009000D0
01C00742
02400BAB
01000000
ENDCHAR
STARTCHAR threequarters
ENCODING 190
SWIDTH 861 0
DWIDTH 17 0
BBX 16 16 1 -1
BITMAP
00000200
2A400600
82C00C00
01C01800
06403000
2F409000
01D1C010
00E240B4
91D601B4
BA4D0274
00180934
00302834
00903ABE
01C00034
02400034
01000000
ENDCHAR
STARTCHAR questiondown
ENCODING 191
SWIDTH 411 0
DWIDTH 8 0
BBX 8 14 0 -4
BITMAP
02D0
02D0
0000
0040
0180
0240
0700
1D00
2800
7804
741E
740E
2C0D
0AA4
ENDCHAR
STARTCHAR Agrave
ENCODING 192
SWIDTH 718 0
DWIDTH 14 0
BBX 15 17 0 0
BITMAP
00140000
001E0000
00028000
000A0000
000F0000
001F8000
0027C000
0032D000
00A1E000
00D0F400
01C0B800
02807C00
07AABD00
0A002F00
0D000F40
2C000B80
BF403FF4
ENDCHAR
STARTCHAR Aacute
ENCODING 193
SWIDTH 718 0
DWIDTH 14 0
BBX 15 17 0 0
BITMAP
00018000
000B4000
00180000
000A0000
000F0000
001F8000
0027C000
0032D000
00A1E000
00D0F400
01C0B800
02807C00
07AABD00
0A002F00
0D000F40
2C000B80
BF403FF4
ENDCHAR
STARTCHAR Acircumflex
ENCODING 194
SWIDTH 718 0
DWIDTH 14 0
BBX 15 17 0 0
BITMAP
000F4000
002AC000
00606000
000A0000
000F0000
001F8000
0027C000
0032D000
00A1E000
00D0F400
01C0B800
02807C00
07AABD00
0A002F00
0D000F40
2C000B80
BF403FF4
ENDCHAR
STARTCHAR Atilde
ENCODING 195
SWIDTH 718 0
DWIDTH 14 0
BBX 15 17 0 0
BITMAP
00695400
0086E000
00000000
000A0000
000F0000
001F8000
0027C000
0032D000
00A1E000
00D0F400
01C0B800
02807C00
07AABD00
0A002F00
0D000F40
2C000B80
BF403FF4
ENDCHAR
STARTCHAR Adieresis
ENCODING 196
SWIDTH 718 0
DWIDTH 14 0
BBX 15 17 0 0
BITMAP
00F0B400
00E0B400
00000000
000A0000
000F0000
001F8000
0027C000
0032D000
00A1E000
00D0F400
01C0B800
02807C00
07AABD00
0A002F00
0D000F40
2C000B80
BF403FF4
ENDCHAR
STARTCHAR Aring
ENCODING 197
SWIDTH 718 0
DWIDTH 14 0
BBX 15 18 0 0
BITMAP
001A4000
0020C000
0030C000
001A4000
000A0000
000F0000
001F8000
0027C000
0032D000
00A1E000
00D0F400
01C0B800
02807C00
07AABD00
0A002F00
0D000F40
2C000B80
BF403FF4
ENDCHAR
STARTCHAR AE
ENCODING 198
SWIDTH 894 0
DWIDTH 18 0
BBX 18 14 -1 0
BITMAP
0006FFFFE0
0001AC00A0
00026C0060
00032C0010
00092C0000
001C2C0200
00242C0300
007ABEAF00
00A02C0300
01C02C0200
02402C0010
06002C0020
0E003C00B0
7F82FFFFE0
ENDCHAR
STARTCHAR Ccedilla
ENCODING 199
SWIDTH 670 0
DWIDTH 13 0
BBX 12 19 1 -5
BITMAP
01AB99
0B407D
2D001D
78000D
B40009
F40000
F00000
F00000
F40000
B40000
780000
2D0005
0B4018
01BA90
002000
002900
000700
000700
006900
ENDCHAR
STARTCHAR Egrave
ENCODING 200
SWIDTH 626 0
DWIDTH 13 0
BBX 12 17 0 0
BITMAP
006400
002C00
000600
2FFFFD
07801D
078005
078000
078020
078020
078060
07EBE0
078020
078000
078002
078006
07801E
6FFFFD
ENDCHAR
STARTCHAR Eacute
ENCODING 201
SWIDTH 626 0
DWIDTH 13 0
BBX 12 17 0 0
BITMAP
000640
001E00
002400
2FFFFD
07801D
078005
078000
078020
078020
078060
07EBE0
078020
078000
078002
078006
07801E
6FFFFD
ENDCHAR
STARTCHAR Ecircumflex
ENCODING 202
SWIDTH 626 0
DWIDTH 13 0
BBX 12 17 0 0
BITMAP
002E00
007740
018180
2FFFFD
07801D
078005
078000
078020
078020
078060
07EBE0
078020
078000
078002
078006
07801E
6FFFFD
ENDCHAR
STARTCHAR Edieresis
ENCODING 203
SWIDTH 626 0
DWIDTH 13 0
BBX 12 17 0 0
BITMAP
02D1E0
02C1D0
000000
2FFFFD
07801D
078005
078000
078020
078020
078060
07EBE0
078020
078000
078002
078006
07801E
6FFFFD
ENDCHAR
STARTCHAR Igrave
ENCODING 204
SWIDTH 357 0
DWIDTH 7 0
BBX 7 17 0 0
BITMAP
1900
0B40
0180
7FF4
0B80
0740
0740
0740
0740
0740
0740
0740
0740
0740
0740
0B80
7FF4
ENDCHAR
STARTCHAR Iacute
ENCODING 205
SWIDTH 357 0
DWIDTH 7 0
BBX 7 17 0 0
BITMAP
0190
0380
0900
7FF4
0B80
0740
0740
0740
0740
0740
0740
0740
0740
0740
0740
0B80
7FF4
ENDCHAR
STARTCHAR Icircumflex
ENCODING 206
SWIDTH 357 0
DWIDTH 7 0
BBX 7 17 0 0
BITMAP
0780
1DD0
2424
7FF4
0B80
0740
0740
0740
0740
0740
0740
0740
0740
0740
0740
0B80
7FF4
ENDCHAR
STARTCHAR Idieresis
ENCODING 207
SWIDTH 357 0
DWIDTH 7 0
BBX 7 17 0 0
BITMAP
B478
7438
0000
7FF4
0B80
0740
0740
0740
0740
0740
0740
0740
0740
0740
0740
0B80
7FF4
ENDCHAR
STARTCHAR Eth
ENCODING 208
SWIDTH 737 0
DWIDTH 15 0
BBX 13 14 1 0
BITMAP
BFFE8000
1E01F400
1E003D00
1E001F00
1E000F40
1E000B80
1E000B80
BFA80780
1E000B80
1E000B40
1E000F00
1E002D00
1E01B400
BFAE8000
ENDCHAR
STARTCHAR Ntilde
ENCODING 209
SWIDTH 742 0
DWIDTH 15 0
BBX 15 17 0 0
BITMAP
002A5800
0041A400
00000000
7F401FF4
0FC00380
0BE00280
0AF80240
097D0240
092F0240
090B8240
0903D240
0901F240
0900BA40
09002F40
09000F40
0A000740
7FD00240
ENDCHAR
STARTCHAR Ograve
ENCODING 210
SWIDTH 738 0
DWIDTH 15 0
BBX 13 17 1 0
BITMAP
00640000
002C0000
00060000
01AA9000
0B40B800
2D002D00
78000F00
B4000B40
F4000780
F0000780
F0000780
F4000780
B4000B40
78000F00
2D001D00
0B407400
01AA9000
ENDCHAR
STARTCHAR Oacute
ENCODING 211
SWIDTH 738 0
DWIDTH 15 0
BBX 13 17 1 0
BITMAP
00064000
001E0000
00640000
01AA9000
0B40B800
2D002D00
78000F00
B4000B40
F4000780
F0000780
F0000780
F4000780
B4000B40
78000F00
2D001D00
0B407400
01AA9000
ENDCHAR
STARTCHAR Ocircumflex
ENCODING 212
SWIDTH 738 0
DWIDTH 15 0
BBX 13 17 1 0
BITMAP
002D0000
00774000
01818000
01AA9000
0B40B800
2D002D00
78000F00
B4000B40
F4000780
F0000780
F0000780
F4000780
B4000B40
78000F00
2D001D00
0B407400
01AA9000
ENDCHAR
STARTCHAR Otilde
ENCODING 213
SWIDTH 738 0
DWIDTH 15 0
BBX 13 17 1 0
BITMAP
00A95000
010B8000
00000000
01AA9000
0B40B800
2D002D00
78000F00
B4000B40
F4000780
F0000780
F0000780
F4000780
B4000B40
78000F00
2D001D00
0B407400
01AA9000
ENDCHAR
STARTCHAR Odieresis
ENCODING 214
SWIDTH 738 0
DWIDTH 15 0
BBX 13 17 1 0
BITMAP
02C1E000
02C1D000
00000000
01AA9000
0B40B800
2D002D00
78000F00
B4000B40
F4000780
F0000780
F0000780
F4000780
B4000B40
78000F00
2D001D00
0B407400
01AA9000
ENDCHAR
STARTCHAR multiply
ENCODING 215
SWIDTH 720 0
DWIDTH 14 0
BBX 12 12 1 -1
BITMAP
200005
38001D
1E0074
0781D0
01E780
007E00
007E00
01E780
0781E0
1E0078
78001E
100000
ENDCHAR
STARTCHAR Oslash
ENCODING 216
SWIDTH 737 0
DWIDTH 15 0
BBX 13 14 1 0
BITMAP
01AB9500
0B40BC00
2D003D00
78009F00
B4014B40
F4060B80
F0080780
F0240780
F4900780
B5800B40
7A000F00
2D001D00
2F407400
61AA9000
ENDCHAR
STARTCHAR Ugrave
ENCODING 217
SWIDTH 752 0
DWIDTH 15 0
BBX 15 17 0 0
BITMAP
00090000
00078000
0000A000
7FF01FF8
0F4002C0
0B400180
0B400180
0B400180
0B400180
0B400180
0B400180
0B400180
0B400180
07400180
03800240
02D00A00
006EA400
ENDCHAR
STARTCHAR Uacute
ENCODING 218
SWIDTH 752 0
DWIDTH 15 0
BBX 15 17 0 0
BITMAP
00006000
0002D000
000A0000
7FF01FF8
0F4002C0
0B400180
0B400180
0B400180
0B400180
0B400180
0B400180
0B400180
0B400180
07400180
03800240
02D00A00
006EA400
ENDCHAR
STARTCHAR Ucircumflex
ENCODING 219
SWIDTH 752 0
DWIDTH 15 0
BBX 15 17 0 0
BITMAP
0003C000
000AA000
00241800
7FF01FF8
0F4002C0
0B400180
0B400180
0B400180
0B400180
0B400180
0B400180
0B400180
0B400180
07400180
03800240
02D00A00
006EA400
ENDCHAR
STARTCHAR Udieresis
ENCODING 220
SWIDTH 752 0
DWIDTH 15 0
BBX 15 17 0 0
BITMAP
00782D00
00382C00
00000000
7FF01FF8
0F4002C0
0B400180
0B400180
0B400180
0B400180
0B400180
0B400180
0B400180
0B400180
07400180
03800240
02D00A00
006EA400
ENDCHAR
STARTCHAR Yacute
ENCODING 221
SWIDTH 647 0
DWIDTH 13 0
BBX 13 17 0 0
BITMAP
00024000
000B4000
00280000
FFD07FC0
2F000D00
0B401800
03C03000
02E09000
00F4C000
007A4000
002E0000
001D0000
001D0000
001D0000
001D0000
002E0000
01FFD000
ENDCHAR
STARTCHAR Thorn
ENCODING 222
SWIDTH 572 0
DWIDTH 11 0
BBX 11 14 0 0
BITMAP
7FF800
0B8000
078000
07EE40
0741F0
074078
074078
074078
074074
0741E0
07EA40
074000
0B8000
7FF800
ENDCHAR
STARTCHAR germandbls
ENCODING 223
SWIDTH 563 0
DWIDTH 11 0
BBX 11 15 0 0
BITMAP
01AA00
0742C0
0A01D0
0E01D0
0E02C0
6E1A00
0E2900
0E06D0
0E00F0
0E00B4
0E0078
0E0078
0E2074
0E78B0
7E2E80
ENDCHAR
STARTCHAR agrave
ENCODING 224
SWIDTH 480 0
DWIDTH 10 0
BBX 9 14 0 0
BITMAP
078000
01C000
009000
000000
06B800
2C1D00
2C0E00
140E00
006E00
0A4E00
2C0E00
780E00
381E00
1F8B80
ENDCHAR
STARTCHAR aacute
ENCODING 225
SWIDTH 480 0
DWIDTH 10 0
BBX 9 14 0 0
BITMAP
007800
00A000
018000
000000
06B800
2C1D00
2C0E00
140E00
006E00
0A4E00
2C0E00
780E00
381E00
1F8B80
ENDCHAR
STARTCHAR acircumflex
ENCODING 226
SWIDTH 480 0
DWIDTH 10 0
BBX 9 14 0 0
BITMAP
01E000
037400
090800
000000
06B800
2C1D00
2C0E00
140E00
006E00
0A4E00
2C0E00
780E00
381E00
1F8B80
ENDCHAR
STARTCHAR atilde
ENCODING 227
SWIDTH 480 0
DWIDTH 10 0
BBX 9 13 0 0
BITMAP
0A9600
146900
000000
06B800
2C1D00
2C0E00
140E00
006E00
0A4E00
2C0E00
780E00
381E00
1F8B80
ENDCHAR
STARTCHAR adieresis
ENCODING 228
SWIDTH 480 0
DWIDTH 10 0
BBX 9 14 0 0
BITMAP
2D1E00
1D0E00
000000
000000
06B800
2C1D00
2C0E00
140E00
006E00
0A4E00
2C0E00
780E00
381E00
1F8B80
ENDCHAR
STARTCHAR aring
ENCODING 229
SWIDTH 480 0
DWIDTH 10 0
BBX 9 15 0 0
BITMAP
02A000
061800
061800
02A000
000000
06B800
2C1D00
2C0E00
140E00
006E00
0A4E00
2C0E00
780E00
381E00
1F8B80
ENDCHAR
STARTCHAR ae
ENCODING 230
SWIDTH 709 0
DWIDTH 14 0
BBX 14 10 0 0
BITMAP
0AB5AE00
2C1F0380
141E02D0
002FAAD0
069E0000
1D0E0000
380F0010
780F8090
3827FF80
1F81BE00
ENDCHAR
STARTCHAR ccedilla
ENCODING 231
SWIDTH 446 0
DWIDTH 9 0
BBX 9 15 0 -5
BITMAP
06B900
1D0F00
280B00
340000
740000
740000
780000
3C0140
1E5600
07F800
008000
008000
00A400
001800
01B400
ENDCHAR
STARTCHAR egrave
ENCODING 232
SWIDTH 464 0
DWIDTH 9 0
BBX 9 14 0 0
BITMAP
078000
01D000
006000
000000
06B800
1C0E00
340740
3EAB40
740000
740000
3C0040
2E0240
1FFE00
06F800
ENDCHAR
STARTCHAR eacute
ENCODING 233
SWIDTH 464 0
DWIDTH 9 0
BBX 9 14 0 0
BITMAP
003800
00B000
00C000
000000
06B800
1C0E00
340740
3EAB40
740000
740000
3C0040
2E0240
1FFE00
06F800
ENDCHAR
STARTCHAR ecircumflex
ENCODING 234
SWIDTH 464 0
DWIDTH 9 0
BBX 9 14 0 0
BITMAP
01E000
036800
090900
000000
06B800
1C0E00
340740
3EAB40
740000
740000
3C0040
2E0240
1FFE00
06F800
ENDCHAR
STARTCHAR edieresis
ENCODING 235
SWIDTH 464 0
DWIDTH 9 0
BBX 9 14 0 0
BITMAP
1E0F00
1E0B00
000000
000000
06B800
1C0E00
340740
3EAB40
740000
740000
3C0040
2E0240
1FFE00
06F800
ENDCHAR
STARTCHAR igrave
ENCODING 236
SWIDTH 285 0
DWIDTH 6 0
BBX 5 14 0 0
BITMAP
7400
2C00
0900
0000
2E00
1E00
0E00
0E00
0E00
0E00
0E00
0E00
0E00
7FC0
ENDCHAR
STARTCHAR iacute
ENCODING 237
SWIDTH 285 0
DWIDTH 6 0
BBX 5 14 0 0
BITMAP
0740
0E00
1800
0000
2E00
1E00
0E00
0E00
0E00
0E00
0E00
0E00
0E00
7FC0
ENDCHAR
STARTCHAR icircumflex
ENCODING 238
SWIDTH 285 0
DWIDTH 6 0
BBX 5 14 0 0
BITMAP
1D00
3700
9180
0000
2E00
1E00
0E00
0E00
0E00
0E00
0E00
0E00
0E00
7FC0
ENDCHAR
STARTCHAR idieresis
ENCODING 239
SWIDTH 285 0
DWIDTH 6 0
BBX 7 14 -1 0
BITMAP
7474
78B4
0000
0000
0B80
0780
0380
0380
0380
0380
0380
0380
0380
1FF0
ENDCHAR
STARTCHAR eth
ENCODING 240
SWIDTH 532 0
DWIDTH 11 0
BBX 10 15 0 0
BITMAP
0AE410
002E90
006F00
008380
0002C0
06A9D0
1D07D0
2C02E0
3801E0
7801E0
7801E0
3801D0
3C02C0
1E0740
06E900
ENDCHAR
STARTCHAR ntilde
ENCODING 241
SWIDTH 576 0
DWIDTH 12 0
BBX 11 13 0 0
BITMAP
01A580
021B40
000000
2E6B40
0F42D0
0E00E0
0E00E0
0E00E0
0E00E0
0E00E0
0E00E0
0E01E0
7FD7FC
ENDCHAR
STARTCHAR ograve
ENCODING 242
SWIDTH 514 0
DWIDTH 10 0
BBX 10 14 0 0
BITMAP
02C000
00A000
002000
000000
06E900
1E0780
2C02C0
3801D0
7801E0
7801E0
3801D0
3C02C0
1E0340
06E900
ENDCHAR
STARTCHAR oacute
ENCODING 243
SWIDTH 514 0
DWIDTH 10 0
BBX 10 14 0 0
BITMAP
002D00
007400
009000
000000
06E900
1E0780
2C02C0
3801D0
7801E0
7801E0
3801D0
3C02C0
1E0340
06E900
ENDCHAR
STARTCHAR ocircumflex
ENCODING 244
SWIDTH 514 0
DWIDTH 10 0
BBX 10 14 0 0
BITMAP
00B400
029C00
060600
000000
06E900
1E0780
2C02C0
3801D0
7801E0
7801E0
3801D0
3C02C0
1E0340
06E900
ENDCHAR
STARTCHAR otilde
ENCODING 245
SWIDTH 514 0
DWIDTH 10 0
BBX 10 13 0 0
BITMAP
02A540
082E00
000000
06E900
1E0780
2C02C0
3801D0
7801E0
7801E0
3801D0
3C02C0
1E0340
06E900
ENDCHAR
STARTCHAR odieresis
ENCODING 246
SWIDTH 514 0
DWIDTH 10 0
BBX 10 14 0 0
BITMAP
0F0B40
0B0740
000000
000000
06E900
1E0780
2C02C0
3801D0
7801E0
7801E0
3801D0
3C02C0
1E0340
06E900
ENDCHAR
STARTCHAR divide
ENCODING 247
SWIDTH 720 0
DWIDTH 14 0
BBX 12 11 1 0
BITMAP
002C00
002D00
000000
000000
000000
BFFFFF
155555
000000
000000
002D00
002C00
ENDCHAR
STARTCHAR oslash
ENCODING 248
SWIDTH 514 0
DWIDTH 10 0
BBX 10 10 0 0
BITMAP
06EA80
1E0740
2C0AC0
3815D0
7861E0
7881E0
3A01D0
2D02C0
1E0340
26A900
ENDCHAR
STARTCHAR ugrave
ENCODING 249
SWIDTH 570 0
DWIDTH 11 0
BBX 11 14 0 0
BITMAP
01D000
00B000
002400
000000
6D0BD0
1D01D0
1D01D0
1D01D0
1D01D0
1D01D0
1D01D0
0E01D0
0F02D0
06E5E4
ENDCHAR
STARTCHAR uacute
ENCODING 250
SWIDTH 570 0
DWIDTH 11 0
BBX 11 14 0 0
BITMAP
001D00
003800
006000
000000
6D0BD0
1D01D0
1D01D0
1D01D0
1D01D0
1D01D0
1D01D0
0E01D0
0F02D0
06E5E4
ENDCHAR
STARTCHAR ucircumflex
ENCODING 251
SWIDTH 570 0
DWIDTH 11 0
BBX 11 14 0 0
BITMAP
00B800
01DD00
020200
000000
6D0BD0
1D01D0
1D01D0
1D01D0
1D01D0
1D01D0
1D01D0
0E01D0
0F02D0
06E5E4
ENDCHAR
STARTCHAR udieresis
ENCODING 252
SWIDTH 570 0
DWIDTH 11 0
BBX 11 14 0 0
BITMAP
0B4780
0B4780
000000
000000
6D0BD0
1D01D0
1D01D0
1D01D0
1D01D0
1D01D0
1D01D0
0E01D0
0F02D0
06E5E4
ENDCHAR
STARTCHAR yacute
ENCODING 253
SWIDTH 483 0
DWIDTH 10 0
BBX 11 19 -1 -5
BITMAP
000B40
001D00
002400
000000
7FC1F8
0F0060
0B4090
0780C0
02C180
01E240
00F200
007900
003C00
002800
002400
003000
00A000
2EC000
2E4000
ENDCHAR
STARTCHAR thorn
ENCODING 254
SWIDTH 524 0
DWIDTH 10 0
BBX 10 19 0 -5
BITMAP
6D0000
2D0000
1D0000
1D0000
1D7E00
1E57C0
1D01D0
1D01E0
1D00E0
1D00E0
1D01D0
1D01C0
1E0340
1EE900
1D0000
1D0000
1D0000
2D0000
BFD000
ENDCHAR
STARTCHAR ydieresis
ENCODING 255
SWIDTH 483 0
DWIDTH 10 0
BBX 11 19 -1 -5
BITMAP
03C2D0
02C1D0
000000
000000
7FC1F8
0F0060
0B4090
0780C0
02C180
01E240
00F200
007900
003C00
002800
002400
003000
00A000
2EC000
2E4000
ENDCHAR
STARTCHAR Amacron
ENCODING 256
SWIDTH 718 0
DWIDTH 14 0
BBX 15 16 0 0
BITMAP
00AAA000
00000000
000A0000
000F0000
001F8000
0027C000
0032D000
00A1E000
00D0F400
01C0B800
02807C00
07AABD00
0A002F00
0D000F40
2C000B80
BF403FF4
ENDCHAR
STARTCHAR amacron
ENCODING 257
SWIDTH 480 0
DWIDTH 10 0
BBX 9 13 0 0
BITMAP
1AA900
000000
000000
06B800
2C1D00
2C0E00
140E00
006E00
0A4E00
2C0E00
780E00
381E00
1F8B80
ENDCHAR
STARTCHAR Abreve
ENCODING 258
SWIDTH 718 0
DWIDTH 14 0
BBX 15 18 0 0
BITMAP
00802000
00506000
001A8000
00000000
000A0000
000F0000
001F8000
0027C000
0032D000
00A1E000
00D0F400
01C0B800
02807C00
07AABD00
0A002F00
0D000F40
2C000B80
BF403FF4
ENDCHAR
STARTCHAR abreve
ENCODING 259
SWIDTH 480 0
DWIDTH 10 0
BBX 9 14 0 0
BITMAP
140500
080800
06A400
000000
06B800
2C1D00
2C0E00
140E00
006E00
0A4E00
2C0E00
780E00
381E00
1F8B80
ENDCHAR
STARTCHAR Aogonek
ENCODING 260
SWIDTH 719 0
DWIDTH 14 0
BBX 15 19 0 -5
BITMAP
000A0000
000F0000
001F8000
0027C000
0032D000
00A1E000
00D0F400
01C0B800
02807C00
07AABD00
0A002F00
0D001F40
2C000BC0
BF400FF4
00005000
00018000
00034000
00034000
0001E400
ENDCHAR
STARTCHAR aogonek
ENCODING 261
SWIDTH 480 0
DWIDTH 10 0
BBX 10 15 0 -5
BITMAP
06B800
2C1D00
2C0E00
140E00
006E00
0A4E00
280E00
780E00
381E00
1F8BC0
000740
001D00
002800
002810
000E80
ENDCHAR
STARTCHAR Cacute
ENCODING 262
SWIDTH 670 0
DWIDTH 13 0
BBX 12 17 1 0
BITMAP
000640
001E00
002400
01AB99
0B407D
2D001D
78000D
B40009
F40000
F00000
F00000
F40000
B40000
780000
2D0005
0B4018
01BA90
ENDCHAR
STARTCHAR cacute
ENCODING 263
SWIDTH 446 0
DWIDTH 9 0
BBX 9 14 0 0
BITMAP
003800
00B000
00C000
000000
06B900
1D0F00
280700
340000
740000
740000
780000
3D0240
1FFE00
06F800
ENDCHAR
STARTCHAR Ccircumflex
ENCODING 264
SWIDTH 670 0
DWIDTH 13 0
BBX 12 17 1 0
BITMAP
002E00
007740
008080
01AB99
0B407D
2D001D
78000D
B40009
F40000
F00000
F00000
F40000
B40000
780000
2D0005
0B4018
01BA90
ENDCHAR
STARTCHAR ccircumflex
ENCODING 265
SWIDTH 446 0
DWIDTH 9 0
BBX 9 14 0 0
BITMAP
01E000
036800
090900
000000
06B900
1D0F00
280700
340000
740000
740000
780000
3D0240
1FFE00
06F800
ENDCHAR
STARTCHAR Cdotaccent
ENCODING 266
SWIDTH 670 0
DWIDTH 13 0
BBX 12 17 1 0
BITMAP
001E00
001D00
000000
01AB99
0B407D
2D001D
78000D
B40009
F40000
F00000
F00000
F40000
B40000
780000
2D0005
0B4018
01BA90
ENDCHAR
STARTCHAR cdotaccent
ENCODING 267
SWIDTH 446 0
DWIDTH 9 0
BBX 9 14 0 0
BITMAP
01E000
00E000
000000
000000
06B900
1D0F00
280700
340000
740000
740000
780000
3D0240
1FFE00
06F800
ENDCHAR
STARTCHAR Ccaron
ENCODING 268
SWIDTH 670 0
DWIDTH 13 0
BBX 12 17 1 0
BITMAP
009080
007740
002E00
01AB99
0B407D
2D001D
78000D
B40009
F40000
F00000
F00000
F40000
B40000
780000
2D0005
0B4018
01BA90
ENDCHAR
STARTCHAR ccaron
ENCODING 269
SWIDTH 446 0
DWIDTH 9 0
BBX 9 14 0 0
BITMAP
090900
036800
01E000
000000
06B900
1D0F00
280700
340000
740000
740000
780000
3D0240
1FFE00
06F800
ENDCHAR
STARTCHAR Dcaron
ENCODING 270
SWIDTH 730 0
DWIDTH 15 0
BBX 14 17 0 0
BITMAP
00909000
003A8000
001F0000
6FFF9000
07807D00
07800F40
078007C0
078003D0
078002D0
078002E0
078002E0
078002D0
078002D0
078003C0
07800B40
07806D00
6FEB9000
ENDCHAR
STARTCHAR dcaron
ENCODING 271
SWIDTH 626 0
DWIDTH 13 0
BBX 12 14 0 0
BITMAP
000ACB
0003CB
0002CA
0002C8
02ABC0
0D07C0
2803C0
3802C0
7402C0
7402C0
7802C0
3802C0
2D07C0
0BE6D0
ENDCHAR
STARTCHAR Dcroat
ENCODING 272
SWIDTH 733 0
DWIDTH 15 0
BBX 14 14 0 0
BITMAP
6FFF9000
07807D00
07800F40
078007C0
078003D0
078002E0
078002E0
6FEA02E0
078002D0
078002D0
078003C0
07800B40
07806D00
6FEB9000
ENDCHAR
STARTCHAR dcroat
ENCODING 273
SWIDTH 540 0
DWIDTH 11 0
BBX 11 14 0 0
BITMAP
000AC0
0003C0
00ABE4
0002C0
02ABC0
0D07C0
2803C0
3802C0
7402C0
7402C0
7802C0
3802C0
2D07C0
0BE6D0
ENDCHAR
STARTCHAR Emacron
ENCODING 274
SWIDTH 626 0
DWIDTH 13 0
BBX 12 16 0 0
BITMAP
01AA90
000000
2FFFFD
07801D
078005
078000
078020
078020
078060
07EBE0
078020
078000
078002
078006
07801E
6FFFFD
ENDCHAR
STARTCHAR emacron
ENCODING 275
SWIDTH 464 0
DWIDTH 9 0
BBX 9 13 0 0
BITMAP
0AAA00
000000
000000
06B800
1C0E00
340740
3EAB40
740000
740000
3C0040
2E0240
1FFE00
06F800
ENDCHAR
STARTCHAR Ebreve
ENCODING 276
SWIDTH 626 0
DWIDTH 13 0
BBX 12 18 0 0
BITMAP
014050
008080
006A00
000000
2FFFFD
07801D
078005
078000
078020
078020
078060
07EBE0
078020
078000
078002
078006
07801E
6FFFFD
ENDCHAR
STARTCHAR ebreve
ENCODING 277
SWIDTH 464 0
DWIDTH 9 0
BBX 9 14 0 0
BITMAP
080200
090900
02A400
000000
06B800
1C0E00
340740
3EAB40
740000
740000
3C0040
2E0240
1FFE00
06F800
ENDCHAR
STARTCHAR Edotaccent
ENCODING 278
SWIDTH 626 0
DWIDTH 13 0
BBX 12 17 0 0
BITMAP
002D00
001D00
000000
2FFFFD
07801D
078005
078000
078020
078020
078060
07EBE0
078020
078000
078002
078006
07801E
6FFFFD
ENDCHAR
STARTCHAR edotaccent
ENCODING 279
SWIDTH 464 0
DWIDTH 9 0
BBX 9 14 0 0
BITMAP
01F000
00E000
000000
000000
06B800
1C0E00
340740
3EAB40
740000
740000
3C0040
2E0240
1FFE00
06F800
ENDCHAR
STARTCHAR Eogonek
ENCODING 280
SWIDTH 625 0
DWIDTH 13 0
BBX 11 19 1 -5
BITMAP
BFABF4
1D0034
1D0014
1D0000
1D0080
1D0080
1D0180
1FAF80
1D0080
1D0000
1D0008
1D0018
1D0028
BFABF4
000080
000240
000700
000704
0002E4
ENDCHAR
STARTCHAR eogonek
ENCODING 281
SWIDTH 464 0
DWIDTH 9 0
BBX 9 15 0 -5
BITMAP
06B800
1D0E00
380B40
340740
7EAB80
740000
380000
2D0140
1FFF00
06FD00
007400
00D000
01C000
01C100
00B800
ENDCHAR
STARTCHAR Ecaron
ENCODING 282
SWIDTH 626 0
DWIDTH 13 0
BBX 12 17 0 0
BITMAP
018180
007740
002D00
2FFFFD
07801D
078005
078000
078020
078020
078060
07EBE0
078020
078000
078002
078006
07801E
6FFFFD
ENDCHAR
STARTCHAR ecaron
ENCODING 283
SWIDTH 464 0
DWIDTH 9 0
BBX 9 14 0 0
BITMAP
090900
036800
01E000
000000
06B800
1C0E00
340740
3EAB40
740000
740000
3C0040
2E0240
1FFE00
06F800
ENDCHAR
STARTCHAR Gcircumflex
ENCODING 284
SWIDTH 720 0
DWIDTH 14 0
BBX 13 17 1 0
BITMAP
002E0000
00774000
00808000
01AB9900
0B407D00
2D001D00
78000D00
B4000900
F0000000
F0000000
F001FF80
F4002E00
B4001D00
78001D00
3D001D00
0F407D00
01BAA000
ENDCHAR
STARTCHAR gcircumflex
ENCODING 285
SWIDTH 484 0
DWIDTH 10 0
BBX 10 19 0 -5
BITMAP
01E000
036800
090900
000000
06BF90
1D1F00
3C0B40
380B40
2C0B00
0D0E00
0AA400
280000
3FEA00
1FFFC0
2401D0
700090
B00080
780240
1FA400
ENDCHAR
STARTCHAR Gbreve
ENCODING 286
SWIDTH 720 0
DWIDTH 14 0
BBX 13 18 1 0
BITMAP
01405000
00808000
006A4000
00000000
01AB9900
0B407D00
2D001D00
78000D00
B4000900
F0000000
F0000000
F001FF80
F4002E00
B4001D00
78001D00
3D001D00
0F407D00
01BAA000
ENDCHAR
STARTCHAR gbreve
ENCODING 287
SWIDTH 484 0
DWIDTH 10 0
BBX 10 19 0 -5
BITMAP
080200
090900
02A400
000000
06BF90
1D1F00
3C0B40
380B40
2C0B00
0D0E00
0AA400
280000
3FEA00
1FFFC0
2401D0
700090
B00080
780240
1FA400
ENDCHAR
STARTCHAR Gdotaccent
ENCODING 288
SWIDTH 720 0
DWIDTH 14 0
BBX 13 17 1 0
BITMAP
001E0000
001D0000
00000000
01AB9900
0B407D00
2D001D00
78000D00
B4000900
F0000000
F0000000
F001FF80
F4002E00
B4001D00
78001D00
3D001D00
0F407D00
01BAA000
ENDCHAR
STARTCHAR gdotaccent
ENCODING 289
SWIDTH 484 0
DWIDTH 10 0
BBX 10 19 0 -5
BITMAP
01F000
00E000
000000
000000
06BF90
1D1F00
3C0B40
380B40
2C0B00
0D0E00
0AA400
280000
3FEA00
1FFFC0
2401D0
700090
B00080
780240
1FA400
ENDCHAR
STARTCHAR Gcommaaccent
ENCODING 290
SWIDTH 720 0
DWIDTH 14 0
BBX 13 20 1 -6
BITMAP
01AB9900
0B407D00
2D001D00
78000D00
B4000900
F0000000
F0000000
F001FF80
F4002E00
B4001D00
78001D00
3D001D00
0F407D00
01BAA000
00000000
003D0000
003E0000
00090000
00180000
00100000
ENDCHAR
STARTCHAR gcommaaccent
ENCODING 291
SWIDTH 484 0
DWIDTH 10 0
BBX 10 21 0 -5
BITMAP
001000
009000
018000
02F000
01E000
000000
06BF90
1D1F00
3C0B40
380B40
2C0B00
0D0E00
0AA400
280000
3FEA00
1FFFC0
2401D0
700090
B00080
780240
1FA400
ENDCHAR
STARTCHAR Hcircumflex
ENCODING 292
SWIDTH 777 0
DWIDTH 16 0
BBX 15 17 0 0
BITMAP
0007C000
000EA000
00242400
7FF42FF8
0B8007C0
078003C0
078003C0
078003C0
078003C0
078003C0
07EAABC0
078003C0
078003C0
078003C0
078003C0
0B8003C0
6FF42FF8
ENDCHAR
STARTCHAR hcircumflex
ENCODING 293
SWIDTH 577 0
DWIDTH 12 0
BBX 11 18 0 0
BITMAP
00B800
01DD00
060600
000000
6E0000
1E0000
0E0000
0E0000
0E6B40
0F42D0
0E00E0
0E00E0
0E00E0
0E00E0
0E00E0
0E00E0
0E00E0
7FC7FC
ENDCHAR
STARTCHAR Hbar
ENCODING 294
SWIDTH 788 0
DWIDTH 16 0
BBX 14 14 1 0
BITMAP
FFD0BFE0
1E000F40
1E000F00
1E000F00
BFAAAFA0
1E000F00
1E000F00
1FAAAF00
1E000F00
1E000F00
1E000F00
1E000F00
1E000F00
BFD0BFE0
ENDCHAR
STARTCHAR hbar
ENCODING 295
SWIDTH 579 0
DWIDTH 12 0
BBX 11 14 0 0
BITMAP
6E0000
0E0000
6FA800
0E0000
0E6B80
0F41D0
0E00E0
0E00E0
0E00E0
0E00E0
0E00E0
0E00E0
0E00E0
7FC7FC
ENDCHAR
STARTCHAR Itilde
ENCODING 296
SWIDTH 357 0
DWIDTH 7 0
BBX 7 17 0 0
BITMAP
2A58
41A4
0000
7FF4
0B80
0740
0740
0740
0740
0740
0740
0740
0740
0740
0740
0B80
7FF4
ENDCHAR
STARTCHAR itilde
ENCODING 297
SWIDTH 285 0
DWIDTH 6 0
BBX 7 14 -1 0
BITMAP
1904
1254
50A0
0000
0B80
0780
0380
0380
0380
0380
0380
0380
0380
1FF0
ENDCHAR
STARTCHAR Imacron
ENCODING 298
SWIDTH 357 0
DWIDTH 7 0
BBX 7 16 0 0
BITMAP
6AA4
0000
7FF4
0B80
0740
0740
0740
0740
0740
0740
0740
0740
0740
0740
0B80
7FF4
ENDCHAR
STARTCHAR imacron
ENCODING 299
SWIDTH 285 0
DWIDTH 6 0
BBX 5 13 0 0
BITMAP
AA80
0000
0000
2E00
1E00
0E00
0E00
0E00
0E00
0E00
0E00
0E00
7FC0
ENDCHAR
STARTCHAR Ibreve
ENCODING 300
SWIDTH 357 0
DWIDTH 7 0
BBX 7 18 0 0
BITMAP
5014
2020
1A90
0000
7FF4
0B80
0740
0740
0740
0740
0740
0740
0740
0740
0740
0740
0B80
7FF4
ENDCHAR
STARTCHAR ibreve
ENCODING 301
SWIDTH 285 0
DWIDTH 6 0
BBX 5 14 0 0
BITMAP
8080
8180
2A00
0000
2E00
1E00
0E00
0E00
0E00
0E00
0E00
0E00
0E00
7FC0
ENDCHAR
STARTCHAR Iogonek
ENCODING 302
SWIDTH 357 0
DWIDTH 7 0
BBX 7 19 0 -5
BITMAP
7FF4
0B80
0740
0740
0740
0740
0740
0740
0740
0740
0740
0740
0B80
7FF4
0240
0900
1C00
1D10
0B90
ENDCHAR
STARTCHAR iogonek
ENCODING 303
SWIDTH 285 0
DWIDTH 6 0
BBX 5 19 0 -5
BITMAP
0E00
0F00
0000
0000
2E00
1E00
0E00
0E00
0E00
0E00
0E00
0E00
0E00
7FC0
0900
2800
3400
3440
2E40
ENDCHAR
STARTCHAR Idotaccent
ENCODING 304
SWIDTH 357 0
DWIDTH 7 0
BBX 7 17 0 0
BITMAP
0780
0740
0000
7FF4
0B80
0740
0740
0740
0740
0740
0740
0740
0740
0740
0740
0B80
7FF4
ENDCHAR
STARTCHAR dotlessi
ENCODING 305
SWIDTH 285 0
DWIDTH 6 0
BBX 5 10 0 0
BITMAP
2E00
1E00
0E00
0E00
0E00
0E00
0E00
0E00
0E00
7FC0
ENDCHAR
STARTCHAR IJ
ENCODING 306
SWIDTH 753 0
DWIDTH 15 0
BBX 15 14 0 0
BITMAP
7FF42FF8
0B8007C0
07400380
07400380
07400380
07400380
07400380
07400380
07400380
07400380
07400380
07414380
0B82D740
7FF5FA00
ENDCHAR
STARTCHAR ij
ENCODING 307
SWIDTH 548 0
DWIDTH 11 0
BBX 10 19 0 -5
BITMAP
0E01D0
0F02D0
000000
000000
2E06D0
1E02D0
0E01D0
0E01D0
0E01D0
0E01D0
0E01D0
0E01D0
0E01D0
7FC1D0
0001D0
0001D0
0041C0
00E280
00BE00
ENDCHAR
STARTCHAR Jcircumflex
ENCODING 308
SWIDTH 396 0
DWIDTH 8 0
BBX 8 17 0 0
BITMAP
01E0
03A8
0909
0BFD
01F0
01E0
01E0
01E0
01E0
01E0
01E0
01E0
01E0
01E0
91E0
F1D0
7E40
ENDCHAR
STARTCHAR jcircumflex
ENCODING 309
SWIDTH 263 0
DWIDTH 5 0
BBX 7 19 -2 -5
BITMAP
01E0
0774
0908
0000
06E0
01E0
00E0
00E0
00E0
00E0
00E0
00E0
00E0
00E0
00E0
00E0
40D0
B1C0
7E40
ENDCHAR
STARTCHAR Kcommaaccent
ENCODING 310
SWIDTH 702 0
DWIDTH 14 0
BBX 14 20 0 -6
BITMAP
7FF4BFC0
0B802D00
07407400
0741D000
07474000
075D0000
07B40000
07BD0000
075F0000
0747C000
0741F000
07407C00
0B802F40
7FF4BFE0
00000000
000F0000
000F4000
00024000
000A0000
00040000
ENDCHAR
STARTCHAR kcommaaccent
ENCODING 311
SWIDTH 542 0
DWIDTH 11 0
BBX 11 20 0 -6
BITMAP
6E0000
0E0000
0E0000
0E0000
0E1FF0
0E0740
0E1800
0E6000
0FE000
0EB400
0E2D00
0E0F40
0E03D0
7FCBF8
000000
00B800
00B800
001800
006000
004000
ENDCHAR
STARTCHAR kgreenlandic
ENCODING 312
SWIDTH 542 0
DWIDTH 11 0
BBX 11 10 0 0
BITMAP
6E0FF0
1E0740
0E0D00
0E2400
0EE000
0EB400
0E2D00
0E0F40
0E03D0
7FC7F8
ENDCHAR
STARTCHAR Lacute
ENCODING 313
SWIDTH 585 0
DWIDTH 12 0
BBX 11 17 1 0
BITMAP
019000
078000
090000
FFD000
2E0000
1E0000
1E0000
1E0000
1E0000
1E0000
1E0000
1E0000
1E0000
1E0014
1E0030
1E00B0
BFABF0
ENDCHAR
STARTCHAR lacute
ENCODING 314
SWIDTH 283 0
DWIDTH 6 0
BBX 5 18 0 0
BITMAP
0180
0B40
1800
0000
6A00
1E00
0E00
0E00
0E00
0E00
0E00
0E00
0E00
0E00
0E00
0E00
0E00
7FC0
ENDCHAR
STARTCHAR Lcommaaccent
ENCODING 315
SWIDTH 585 0
DWIDTH 12 0
BBX 11 19 1 -5
BITMAP
FFD000
2E0000
1E0000
1E0000
1E0000
1E0000
1E0000
1E0000
1E0000
1E0000
1E0014
1E0030
1E00B0
BFABF0
000000
01F000
01F000
003000
009000
ENDCHAR
STARTCHAR lcommaaccent
ENCODING 316
SWIDTH 283 0
DWIDTH 6 0
BBX 5 19 0 -5
BITMAP
6A00
1E00
0E00
0E00
0E00
0E00
0E00
0E00
0E00
0E00
0E00
0E00
0E00
7FC0
0000
1F00
1F00
0300
0900
ENDCHAR
STARTCHAR Lcaron
ENCODING 317
SWIDTH 585 0
DWIDTH 12 0
BBX 11 14 1 0
BITMAP
FFD1C0
2E02C0
1E0280
1E0240
1E0000
1E0000
1E0000
1E0000
1E0000
1E0000
1E0014
1E0030
1E00B0
BFABF0
ENDCHAR
STARTCHAR lcaron
ENCODING 318
SWIDTH 366 0
DWIDTH 7 0
BBX 7 14 0 0
BITMAP
6A2C
1E28
0E34
0E20
0E00
0E00
0E00
0E00
0E00
0E00
0E00
0E00
0E00
7FC0
ENDCHAR
STARTCHAR Ldot
ENCODING 319
SWIDTH 605 0
DWIDTH 12 0
BBX 11 14 1 0
BITMAP
FFD000
2E0000
1E0000
1E0000
1E0000
1E01E0
1E01E0
1E0000
1E0000
1E0000
1E0014
1E0030
1E00B0
BFABF0
ENDCHAR
STARTCHAR ldot
ENCODING 320
SWIDTH 357 0
DWIDTH 7 0
BBX 8 14 0 0
BITMAP
6A00
1E00
0E00
0E00
0E00
0E2D
0E1D
0E00
0E00
0E00
0E00
0E00
0E00
7FC0
ENDCHAR
STARTCHAR Lslash
ENCODING 321
SWIDTH 590 0
DWIDTH 12 0
BBX 11 14 1 0
BITMAP
BFD000
1E0000
1E0000
1E0000
1E0800
1EA000
1F4000
2E0000
AE0000
1E0000
1E0014
1E0024
1E0070
BFEBF0
ENDCHAR
STARTCHAR lslash
ENCODING 322
SWIDTH 290 0
DWIDTH 6 0
BBX 6 14 0 0
BITMAP
2A00
1E00
0E00
0E00
0E00
0F90
0F00
6E00
4E00
0E00
0E00
0E00
0F00
7FD0
ENDCHAR
STARTCHAR Nacute
ENCODING 323
SWIDTH 742 0
DWIDTH 15 0
BBX 15 17 0 0
BITMAP
00019000
00038000
00090000
7F401FF4
0FC00380
0BE00280
0AF80240
097D0240
092F0240
090B8240
0903D240
0901F240
0900BA40
09002F40
09000F40
0A000740
7FD00240
ENDCHAR
STARTCHAR nacute
ENCODING 324
SWIDTH 576 0
DWIDTH 12 0
BBX 11 14 0 0
BITMAP
000F00
001D00
002400
000000
2E6B40
0F42D0
0E00E0
0E00E0
0E00E0
0E00E0
0E00E0
0E00E0
0E01E0
7FD7FC
ENDCHAR
STARTCHAR Ncommaaccent
ENCODING 325
SWIDTH 742 0
DWIDTH 15 0
BBX 15 20 0 -6
BITMAP
7F401FF4
0FC00380
0BE00280
0AF80240
097D0240
092F0240
090B8240
0903D240
0901F240
0900BA40
09002F40
09000F40
0A000740
7FD00240
00000000
000F4000
000F8000
00024000
00060000
00040000
ENDCHAR
STARTCHAR ncommaaccent
ENCODING 326
SWIDTH 576 0
DWIDTH 12 0
BBX 11 15 0 -5
BITMAP
2E6B40
0F42D0
0E00E0
0E00E0
0E00E0
0E00E0
0E00E0
0E00E0
0E01E0
7FD7FC
000000
007800
007C00
000800
002400
ENDCHAR
STARTCHAR Ncaron
ENCODING 327
SWIDTH 742 0
DWIDTH 15 0
BBX 15 17 0 0
BITMAP
00242400
001DD000
00078000
7F401FF4
0FC00380
0BE00280
0AF80240
097D0240
092F0240
090B8240
0903D240
0901F240
0900BA40
09002F40
09000F40
0A000740
7FD00240
ENDCHAR
STARTCHAR ncaron
ENCODING 328
SWIDTH 576 0
DWIDTH 12 0
BBX 11 14 0 0
BITMAP
018140
00AA00
003C00
000000
2E6B40
0F42D0
0E00E0
0E00E0
0E00E0
0E00E0
0E00E0
0E00E0
0E01E0
7FD7FC
ENDCHAR
STARTCHAR napostrophe
ENCODING 329
SWIDTH 576 0
DWIDTH 12 0
BBX 14 14 -3 0
BITMAP
B4000000
F8000000
18000000
24000000
90B9AD00
003D0B40
00380380
00380380
00380380
00380380
00380380
00380380
00380780
01FF5FF0
ENDCHAR
STARTCHAR Eng
ENCODING 330
SWIDTH 742 0
DWIDTH 15 0
BBX 15 19 0 -5
BITMAP
7F401FF4
0FC00280
0BE00280
0AF40240
097D0240
092F0240
090F8240
0907D240
0901F240
0900BA40
09003F40
09001F40
0A000B40
7FD00340
00000240
00000240
00014240
0003C700
0002F900
ENDCHAR
STARTCHAR eng
ENCODING 331
SWIDTH 559 0
DWIDTH 11 0
BBX 10 15 0 -5
BITMAP
2E6B40
0F42D0
0E00D0
0E00E0
0E00E0
0E00E0
0E00E0
0E00E0
0E00E0
7FD0E0
0000E0
0000E0
0050D0
00F1C0
007E40
ENDCHAR
STARTCHAR Omacron
ENCODING 332
SWIDTH 738 0
DWIDTH 15 0
BBX 13 16 1 0
BITMAP
01AA9000
00000000
01AA9000
0B40B800
2D002D00
78000F00
B4000B40
F4000780
F0000780
F0000780
F4000780
B4000B40
78000F00
2D001D00
0B407400
01AA9000
ENDCHAR
STARTCHAR omacron
ENCODING 333
SWIDTH 514 0
DWIDTH 10 0
BBX 10 13 0 0
BITMAP
0AAA00
000000
000000
06E900
1E0780
2C02C0
3801D0
7801E0
7801E0
3801D0
3C02C0
1E0340
06E900
ENDCHAR
STARTCHAR Obreve
ENCODING 334
SWIDTH 738 0
DWIDTH 15 0
BBX 13 18 1 0
BITMAP
01405000
01808000
006A0000
00000000
01AA9000
0B40B800
2D002D00
78000F00
B4000B40
F4000780
F0000780
F0000780
F4000780
B4000B40
78000F00
2D001D00
0B407400
01AA9000
ENDCHAR
STARTCHAR obreve
ENCODING 335
SWIDTH 514 0
DWIDTH 10 0
BBX 10 14 0 0
BITMAP
080200
060600
01A800
000000
06E900
1E0780
2C02C0
3801D0
7801E0
7801E0
3801D0
3C02C0
1E0340
06E900
ENDCHAR
STARTCHAR Ohungarumlaut
ENCODING 336
SWIDTH 738 0
DWIDTH 15 0
BBX 13 17 1 0
BITMAP
001E7400
0028E000
00628000
01AA9000
0B40B800
2D002D00
78000F00
B4000B40
F4000780
F0000780
F0000780
F4000780
B4000B40
78000F00
2D001D00
0B407400
01AA9000
ENDCHAR
STARTCHAR ohungarumlaut
ENCODING 337
SWIDTH 514 0
DWIDTH 10 0
BBX 10 14 0 0
BITMAP
00B7C0
00D700
018900
000000
06E900
1E0780
2C02C0
3801D0
7801E0
7801E0
3801D0
3C02C0
1E0340
06E900
ENDCHAR
STARTCHAR OE
ENCODING 338
SWIDTH 945 0
DWIDTH 19 0
BBX 18 14 1 0
BITMAP
01ABFFFF80
0B40F00280
2D00B00080
7800B00040
B400B00800
F400B00C00
F000BABC00
F000B00800
F400B00800
B400B00000
7800B00050
2D00B000C0
0B40F002C0
01ABFFFFC0
ENDCHAR
STARTCHAR oe
ENCODING 339
SWIDTH 807 0
DWIDTH 16 0
BBX 16 10 0 0
BITMAP
06E91AE0
1E07B038
2C02D02D
3802FAAD
7801D000
7801D000
3801F001
3C02F809
1E077FF8
06E80BE0
ENDCHAR
STARTCHAR Racute
ENCODING 340
SWIDTH 659 0
DWIDTH 13 0
BBX 13 17 1 0
BITMAP
00190000
00780000
01900000
BFFE4000
1E07D000
1E01E000
1E00F000
1E00F000
1E01D000
1E078000
1FFD0000
1E2D0000
1E0F4000
1E07C000
1E02E000
2E00F400
BFD07F40
ENDCHAR
STARTCHAR racute
ENCODING 341
SWIDTH 380 0
DWIDTH 8 0
BBX 8 14 0 0
BITMAP
00F0
01C0
0240
0000
2A2D
1EAD
0F40
0E00
0E00
0E00
0E00
0E00
0E00
7FD0
ENDCHAR
STARTCHAR Rcommaaccent
ENCODING 342
SWIDTH 659 0
DWIDTH 13 0
BBX 13 19 1 -5
BITMAP
BFFE4000
1E07D000
1E01E000
1E00F000
1E00F000
1E01D000
1E078000
1FFD0000
1E2D0000
1E0F4000
1E07C000
1E02E000
2E00F400
BFD07F40
00000000
00780000
007C0000
000C0000
00240000
ENDCHAR
STARTCHAR rcommaaccent
ENCODING 343
SWIDTH 380 0
DWIDTH 8 0
BBX 8 16 0 -6
BITMAP
2A2D
1EAD
0F40
0E00
0E00
0E00
0E00
0E00
0E00
7FD0
0000
0F40
0F40
0240
0600
0400
ENDCHAR
STARTCHAR Rcaron
ENCODING 344
SWIDTH 659 0
DWIDTH 13 0
BBX 13 17 1 0
BITMAP
06060000
029C0000
00B40000
BFFE4000
1E07D000
1E01E000
1E00F000
1E00F000
1E01D000
1E078000
1FFD0000
1E2D0000
1E0F4000
1E07C000
1E02E000
2E00F400
BFD07F40
ENDCHAR
STARTCHAR rcaron
ENCODING 345
SWIDTH 380 0
DWIDTH 8 0
BBX 8 14 0 0
BITMAP
2424
09A0
03C0
0000
2A2D
1EAD
0F40
0E00
0E00
0E00
0E00
0E00
0E00
7FD0
ENDCHAR
STARTCHAR Sacute
ENCODING 346
SWIDTH 504 0
DWIDTH 10 0
BBX 10 17 0 0
BITMAP
001800
00B400
028000
06BF80
1D0780
380180
3C0080
2E0000
1F9000
07F800
00BF40
001FC0
0003D0
5002D0
7002D0
780380
3FAE00
ENDCHAR
STARTCHAR sacute
ENCODING 347
SWIDTH 394 0
DWIDTH 8 0
BBX 8 14 0 0
BITMAP
00F0
01D0
0240
0000
1AA8
3428
3408
3D00
1F90
02F4
007C
501D
742C
6AA4
ENDCHAR
STARTCHAR Scircumflex
ENCODING 348
SWIDTH 504 0
DWIDTH 10 0
BBX 10 17 0 0
BITMAP
00F000
02A800
090600
06BF80
1D0780
380180
3C0080
2E0000
1F9000
07F800
00BF40
001FC0
0003D0
5002D0
7002D0
780380
3FAE00
ENDCHAR
STARTCHAR scircumflex
ENCODING 349
SWIDTH 394 0
DWIDTH 8 0
BBX 8 14 0 0
BITMAP
03C0
0AA0
1814
0000
1AA8
3428
3408
3D00
1F90
02F4
007C
501D
742C
6AA4
ENDCHAR
STARTCHAR uni015E
ENCODING 350
SWIDTH 504 0
DWIDTH 10 0
BBX 10 19 0 -5
BITMAP
06BF80
1D0780
380180
3C0080
2E0000
1F9000
07F800
00BF40
001FC0
0003D0
5002D0
7002D0
780380
3FEE00
008000
00A400
001C00
001800
01A400
ENDCHAR
STARTCHAR uni015F
ENCODING 351
SWIDTH 394 0
DWIDTH 8 0
BBX 8 15 0 -5
BITMAP
1AA8
3428
3408
3D00
1F90
02F4
007C
501D
742C
6AA4
0200
0290
0060
0060
0680
ENDCHAR
STARTCHAR Scaron
ENCODING 352
SWIDTH 504 0
DWIDTH 10 0
BBX 10 17 0 0
BITMAP
060600
02AC00
00F400
06BF80
1D0780
380180
3C0080
2E0000
1F9000
07F800
00BF40
001FC0
0003D0
5002D0
7002D0
780380
3FAE00
ENDCHAR
STARTCHAR scaron
ENCODING 353
SWIDTH 394 0
DWIDTH 8 0
BBX 8 14 0 0
BITMAP
1414
0AA0
03C0
0000
1AA8
3428
3408
3D00
1F90
02F4
007C
501D
742C
6AA4
ENDCHAR
STARTCHAR uni0162
ENCODING 354
SWIDTH 603 0
DWIDTH 12 0
BBX 12 19 0 -5
BITMAP
BEBEBE
A03C0A
903C02
403C01
003C00
003C00
003C00
003C00
003C00
003C00
003C00
003C00
003C00
02FF80
002000
002900
000700
000700
006900
ENDCHAR
STARTCHAR uni0163
ENCODING 355
SWIDTH 315 0
DWIDTH 6 0
BBX 5 18 1 -5
BITMAP
1800
2800
7800
BE80
3800
3800
3800
3800
3800
3800
3800
3840
1E40
0800
0A40
0280
0280
2A00
ENDCHAR
STARTCHAR Tcaron
ENCODING 356
SWIDTH 603 0
DWIDTH 12 0
BBX 12 17 0 0
BITMAP
028180
00AB00
003D00
BEBEBE
A03C0A
903C02
403C01
003C00
003C00
003C00
003C00
003C00
003C00
003C00
003C00
003C00
02FF80
ENDCHAR
STARTCHAR tcaron
ENCODING 357
SWIDTH 353 0
DWIDTH 7 0
BBX 6 14 1 0
BITMAP
00A0
18E0
28D0
7880
BE80
3800
3800
3800
3800
3800
3800
3800
3840
1E40
ENDCHAR
STARTCHAR Tbar
ENCODING 358
SWIDTH 603 0
DWIDTH 12 0
BBX 12 14 0 0
BITMAP
BEBEBE
A03C0A
903C02
403C01
003C00
003C00
06BE90
003C00
003C00
003C00
003C00
003C00
003C00
02FF80
ENDCHAR
STARTCHAR tbar
ENCODING 359
SWIDTH 328 0
DWIDTH 7 0
BBX 5 13 1 0
BITMAP
0800
2800
7800
BE80
3800
3800
BE80
3800
3800
3800
3800
3840
1E40
ENDCHAR
STARTCHAR Utilde
ENCODING 360
SWIDTH 752 0
DWIDTH 15 0
BBX 15 17 0 0
BITMAP
001A4400
0011B400
00000000
7FF01FF8
0F4002C0
0B400180
0B400180
0B400180
0B400180
0B400180
0B400180
0B400180
0B400180
07400180
03800240
02D00A00
006EA400
ENDCHAR
STARTCHAR utilde
ENCODING 361
SWIDTH 570 0
DWIDTH 11 0
BBX 11 13 0 0
BITMAP
02A540
041A00
000000
6D0BD0
1D01D0
1D01D0
1D01D0
1D01D0
1D01D0
1D01D0
0E01D0
0F02D0
06E5E4
ENDCHAR
STARTCHAR Umacron
ENCODING 362
SWIDTH 752 0
DWIDTH 15 0
BBX 15 16 0 0
BITMAP
002AA800
00000000
7FF01FF8
0F4002C0
0B400180
0B400180
0B400180
0B400180
0B400180
0B400180
0B400180
0B400180
07400180
03800240
02D00A00
006EA400
ENDCHAR
STARTCHAR umacron
ENCODING 363
SWIDTH 570 0
DWIDTH 11 0
BBX 11 13 0 0
BITMAP
06AA40
000000
000000
6D0BD0
1D01D0
1D01D0
1D01D0
1D01D0
1D01D0
1D01D0
0E01D0
0F02D0
06E5E4
ENDCHAR
STARTCHAR Ubreve
ENCODING 364
SWIDTH 752 0
DWIDTH 15 0
BBX 15 18 0 0
BITMAP
00200800
00241400
000AA000
00000000
7FF01FF8
0F4002C0
0B400180
0B400180
0B400180
0B400180
0B400180
0B400180
0B400180
0B400180
07400180
03800240
02D00A00
006EA400
ENDCHAR
STARTCHAR ubreve
ENCODING 365
SWIDTH 570 0
DWIDTH 11 0
BBX 11 14 0 0
BITMAP
050140
020200
01A900
000000
6D0BD0
1D01D0
1D01D0
1D01D0
1D01D0
1D01D0
1D01D0
0E01D0
0F02D0
06E5E4
ENDCHAR
STARTCHAR Uring
ENCODING 366
SWIDTH 752 0
DWIDTH 15 0
BBX 15 18 0 0
BITMAP
00069000
000C3000
000C3000
00069000
7FF01FF8
0F4002C0
0B400180
0B400180
0B400180
0B400180
0B400180
0B400180
0B400180
0B400180
07400180
03800240
02D00A00
006EA400
ENDCHAR
STARTCHAR uring
ENCODING 367
SWIDTH 570 0
DWIDTH 11 0
BBX 11 15 0 0
BITMAP
00A800
014900
014900
00A800
000000
6D0BD0
1D01D0
1D01D0
1D01D0
1D01D0
1D01D0
1D01D0
0E01D0
0F02D0
06E5E4
ENDCHAR
STARTCHAR Uhungarumlaut
ENCODING 368
SWIDTH 752 0
DWIDTH 15 0
BBX 15 17 0 0
BITMAP
0002DA40
00075D00
00092400
7FF01FF8
0F4002C0
0B400180
0B400180
0B400180
0B400180
0B400180
0B400180
0B400180
0B400180
07400180
03800240
02D00A00
006EA400
ENDCHAR
STARTCHAR uhungarumlaut
ENCODING 369
SWIDTH 570 0
DWIDTH 11 0
BBX 11 14 0 0
BITMAP
007AD0
00A340
018900
000000
6D0BD0
1D01D0
1D01D0
1D01D0
1D01D0
1D01D0
1D01D0
0E01D0
0F02D0
06E5E4
ENDCHAR
STARTCHAR Uogonek
ENCODING 370
SWIDTH 753 0
DWIDTH 15 0
BBX 15 19 0 -5
BITMAP
7FF01FF8
0F4002C0
0B4001C0
0B400180
0B400180
0B400180
0B400180
0B400180
0B400180
0B400180
07400180
03800240
02D00B00
006EBD00
0000E000
00028000
00070000
00070400
0002E400
ENDCHAR
STARTCHAR uogonek
ENCODING 371
SWIDTH 570 0
DWIDTH 11 0
BBX 11 15 0 -5
BITMAP
6D0BD0
1D01D0
1D01D0
1D01D0
1D01D0
1D01D0
1D01D0
0E01D0
0F02D0
06E5F4
000240
000A00
000D00
000D10
000790
ENDCHAR
STARTCHAR Wcircumflex
ENCODING 372
SWIDTH 944 0
DWIDTH 19 0
BBX 19 17 0 0
BITMAP
0000F40000
0002AC0000
0006060000
FF87FE07F8
2E00F400E0
1F007800C0
0B403C0180
07803D0240
03C03E0300
02D09F0600
01E0CB4900
00F1878C00
00B643D800
007F02F400
002E00F000
001D00A000
0008005000
ENDCHAR
STARTCHAR wcircumflex
ENCODING 373
SWIDTH 749 0
DWIDTH 15 0
BBX 17 14 -1 0
BITMAP
0002E00000
0007740000
0008080000
0000000000
7F8BF47F40
0F01E00C00
0B40E01800
0780F42400
02C1B83000
01D22C5000
00E21D8000
00B90E8000
007C0B4000
0034070000
ENDCHAR
STARTCHAR Ycircumflex
ENCODING 374
SWIDTH 647 0
DWIDTH 13 0
BBX 13 17 0 0
BITMAP
001F0000
003A8000
00909000
FFD07FC0
2F000D00
0B401800
03C03000
02E09000
00F4C000
007A4000
002E0000
001D0000
001D0000
001D0000
001D0000
002E0000
01FFD000
ENDCHAR
STARTCHAR ycircumflex
ENCODING 375
SWIDTH 483 0
DWIDTH 10 0
BBX 11 19 -1 -5
BITMAP
002D00
00A700
018180
000000
7FC1F8
0F0060
0B4090
0780C0
02C180
01E240
00F200
007900
003C00
002800
002400
003000
00A000
2EC000
2E4000
ENDCHAR
STARTCHAR Ydieresis
ENCODING 376
SWIDTH 647 0
DWIDTH 13 0
BBX 13 17 0 0
BITMAP
01E0F000
01D0B000
00000000
FFD07FC0
2F000D00
0B401800
03C03000
02E09000
00F4C000
007A4000
002E0000
001D0000
001D0000
001D0000
001D0000
002E0000
01FFD000
ENDCHAR
STARTCHAR Zacute
ENCODING 377
SWIDTH 594 0
DWIDTH 12 0
BBX 12 17 0 0
BITMAP
000640
001E00
006400
2FAAFC
2800B8
2001F0
1003D0
000B80
001F00
003D00
00B800
01F000
03D000
0B8005
1F4008
2E001C
7EAAFC
ENDCHAR
STARTCHAR zacute
ENCODING 378
SWIDTH 458 0
DWIDTH 9 0
BBX 9 14 0 0
BITMAP
003800
00B000
008000
000000
3FFF40
301E00
202D00
00B800
01E000
02D000
078040
0F0140
2D0340
7FFF40
ENDCHAR
STARTCHAR Zdotaccent
ENCODING 379
SWIDTH 594 0
DWIDTH 12 0
BBX 12 17 0 0
BITMAP
002D00
002D00
000000
2FAAFC
2800B8
2001F0
1003D0
000B80
001F00
003D00
00B800
01F000
03D000
0B8005
1F4008
2E001C
7EAAFC
ENDCHAR
STARTCHAR zdotaccent
ENCODING 380
SWIDTH 458 0
DWIDTH 9 0
BBX 9 14 0 0
BITMAP
01E000
00E000
000000
000000
3FFF40
301E00
202D00
00B800
01E000
02D000
078040
0F0140
2D0340
7FFF40
ENDCHAR
STARTCHAR Zcaron
ENCODING 381
SWIDTH 594 0
DWIDTH 12 0
BBX 12 17 0 0
BITMAP
018180
00B700
002D00
2FAAFC
2800B8
2001F0
1003D0
000B80
001F00
003D00
00B800
01F000
03D000
0B8005
1F4008
2E001C
7EAAFC
ENDCHAR
STARTCHAR zcaron
ENCODING 382
SWIDTH 458 0
DWIDTH 9 0
BBX 9 14 0 0
BITMAP
090900
036800
01E000
000000
3FFF40
301E00
202D00
00B800
01E000
02D000
078040
0F0140
2D0340
7FFF40
ENDCHAR
STARTCHAR longs
ENCODING 383
SWIDTH 285 0
DWIDTH 6 0
BBX 8 15 0 0
BITMAP
01B8
071D
0A04
0E00
0E00
6E00
0E00
0E00
0E00
0E00
0E00
0E00
0E00
0F00
BFE0
ENDCHAR
STARTCHAR uni0180
ENCODING 384
SWIDTH 522 0
DWIDTH 10 0
BBX 10 14 0 0
BITMAP
6D0000
1D0000
BFA800
1D0000
1D7E00
1E57C0
1D02D0
1D01E0
1D00E0
1D00E0
1D01D0
1D01C0
1E0740
0BE900
ENDCHAR
STARTCHAR uni0188
ENCODING 392
SWIDTH 446 0
DWIDTH 9 0
BBX 11 14 0 0
BITMAP
0001B4
000228
000500
000500
06BD00
1D0F00
280700
340000
740000
740000
780000
3D0240
1FFE00
06F800
ENDCHAR
STARTCHAR uni0190
ENCODING 400
SWIDTH 518 0
DWIDTH 10 0
BBX 9 14 1 0
BITMAP
1BB900
781F40
F00B40
F00100
B00000
290000
0BE400
390000
B00000
F00000
E00000
F00040
B80240
1BA800
ENDCHAR
STARTCHAR uni0192
ENCODING 402
SWIDTH 301 0
DWIDTH 6 0
BBX 10 20 -2 -5
BITMAP
001B80
0071D0
00A040
00E000
00E000
06FA00
00E000
00E000
00E000
00E000
00E000
00E000
00E000
00E000
00E000
00E000
00E000
40D000
B1C000
7E4000
ENDCHAR
STARTCHAR uni0195
ENCODING 405
SWIDTH 798 0
DWIDTH 16 0
BBX 15 14 0 0
BITMAP
6E000000
1E000000
0E000000
0E000000
0E6F40B0
0F42C078
0E01D028
0E01D01C
0E01D00C
0E01D008
0E01D008
0E00E004
0E00E020
7FC06E80
ENDCHAR
STARTCHAR uni0199
ENCODING 409
SWIDTH 538 0
DWIDTH 11 0
BBX 11 15 0 0
BITMAP
01B900
060F00
0A0100
0E0000
0E0000
0E1FE0
0E0B40
0E1800
0E6000
0FD000
0EB400
0E2D00
0E0F00
1E07C0
7FCBF8
ENDCHAR
STARTCHAR uni019A
ENCODING 410
SWIDTH 287 0
DWIDTH 6 0
BBX 6 14 0 0
BITMAP
2A00
1E00
0E00
0E00
0E00
0E00
6F90
0E00
0E00
0E00
0E00
0E00
0E00
7FD0
ENDCHAR
STARTCHAR uni019B
ENCODING 411
SWIDTH 495 0
DWIDTH 10 0
BBX 10 14 0 0
BITMAP
3E0000
7F4900
11E400
069000
042000
007400
00B800
01D800
02C900
074600
0F0300
1D0240
3C01C0
FF07F0
ENDCHAR
STARTCHAR uni019E
ENCODING 414
SWIDTH 559 0
DWIDTH 11 0
BBX 11 15 0 -5
BITMAP
2E6B40
0F42D0
0E01D0
0E00E0
0E00E0
0E00E0
0E00E0
0E00E0
0E00E0
7FD0E0
0000E0
0000E0
0000E0
0000E0
0000FC
ENDCHAR
STARTCHAR Ohorn
ENCODING 416
SWIDTH 737 0
DWIDTH 15 0
BBX 14 17 1 0
BITMAP
00000140
000002D0
000001C0
01ABFA40
0B40B800
2D002E00
78000F00
B4000B40
F4000780
F0000780
F0000780
F4000780
B4000B40
78000F00
2D001D00
0B407400
01AA9000
ENDCHAR
STARTCHAR ohorn
ENCODING 417
SWIDTH 516 0
DWIDTH 10 0
BBX 10 13 0 0
BITMAP
0000A0
000070
000070
06FF90
1E0740
2C02C0
3801D0
7801E0
7801E0
3801D0
3C02C0
1E0340
06E900
ENDCHAR
STARTCHAR uni01A5
ENCODING 421
SWIDTH 522 0
DWIDTH 10 0
BBX 10 19 0 -5
BITMAP
01B900
0A1E00
0D0000
1D0000
1D7E00
1E57C0
1D02D0
1D01E0
1D00E0
1D00E0
1D01D0
1D01C0
1E0340
1EA900
1D0000
1D0000
1D0000
2D0000
BFC000
ENDCHAR
STARTCHAR uni01AA
ENCODING 426
SWIDTH 298 0
DWIDTH 6 0
BBX 10 19 -2 -5
BITMAP
1A8000
20A000
507000
20B000
1AB400
007400
007400
007400
007400
007400
007400
007400
007400
007400
007400
007400
007410
0034B0
001BD0
ENDCHAR
STARTCHAR uni01AB
ENCODING 427
SWIDTH 321 0
DWIDTH 6 0
BBX 6 18 1 -5
BITMAP
0400
2800
7800
BE80
3800
3800
3800
3800
3800
3800
3800
3840
1ED0
0090
0090
0080
3480
1E40
ENDCHAR
STARTCHAR uni01AD
ENCODING 429
SWIDTH 315 0
DWIDTH 6 0
BBX 7 15 1 0
BITMAP
06E4
187C
2804
3800
7800
BE80
3800
3800
3800
3800
3800
3800
3800
3840
1E40
ENDCHAR
STARTCHAR Uhorn
ENCODING 431
SWIDTH 762 0
DWIDTH 15 0
BBX 17 18 0 0
BITMAP
0000000100
0000000B40
0000000740
0000000300
7FF01FF900
0F4002C000
0B4001C000
0B40018000
0B40018000
0B40018000
0B40018000
0B40018000
0B40018000
0B40018000
0740018000
0380024000
02D00A0000
006EA40000
ENDCHAR
STARTCHAR uhorn
ENCODING 432
SWIDTH 574 0
DWIDTH 11 0
BBX 12 13 0 0
BITMAP
00000D
00000E
000009
6D0AF8
1D06D0
1D01D0
1D01D0
1D01D0
1D01D0
1D01D0
0E01D0
0F02D0
06E5E4
ENDCHAR
STARTCHAR uni01B5
ENCODING 437
SWIDTH 594 0
DWIDTH 12 0
BBX 12 14 0 0
BITMAP
2FAAFC
2800B8
2001F0
1003D0
000B80
001F00
0ABFA0
00B800
01F000
03D000
0B8005
0F4008
2E001C
7EAAFC
ENDCHAR
STARTCHAR uni01BA
ENCODING 442
SWIDTH 430 0
DWIDTH 9 0
BBX 8 15 0 -5
BITMAP
7EBD
6078
50F0
02C0
0740
0AF8
002E
000E
000E
002D
06E0
2900
2018
303C
1AE4
ENDCHAR
STARTCHAR uni01BB
ENCODING 443
SWIDTH 508 0
DWIDTH 10 0
BBX 10 14 0 0
BITMAP
06B800
180F00
200780
000780
000780
000740
000B00
2ABF90
003400
009000
024010
090090
2FFFC0
7FFFC0
ENDCHAR
STARTCHAR uni01BE
ENCODING 446
SWIDTH 406 0
DWIDTH 8 0
BBX 8 13 0 0
BITMAP
0200
0A00
1E00
2FA0
0E00
0B40
00B4
002D
001D
001E
501D
702C
6AE0
ENDCHAR
STARTCHAR uni01C0
ENCODING 448
SWIDTH 250 0
DWIDTH 5 0
BBX 3 14 1 0
BITMAP
74
74
74
74
74
74
74
74
74
74
74
74
74
74
ENDCHAR
STARTCHAR uni01C1
ENCODING 449
SWIDTH 423 0
DWIDTH 8 0
BBX 6 14 1 0
BITMAP
74E0
74E0
74E0
74E0
74E0
74E0
74E0
74E0
74E0
74E0
74E0
74E0
74E0
74E0
ENDCHAR
STARTCHAR uni01C2
ENCODING 450
SWIDTH 422 0
DWIDTH 8 0
BBX 7 14 1 0
BITMAP
0B00
0B00
0B00
0B00
AFA4
0B00
0B00
AFA4
0B00
0B00
0B00
0B00
0B00
0B00
ENDCHAR
STARTCHAR uni01C3
ENCODING 451
SWIDTH 245 0
DWIDTH 5 0
BBX 3 14 1 0
BITMAP
74
74
74
74
74
70
70
30
30
30
10
00
B4
74
ENDCHAR
STARTCHAR uni01DE
ENCODING 478
SWIDTH 718 0
DWIDTH 14 0
BBX 15 18 0 0
BITMAP
00AAB000
00F0B400
00E0B400
00000000
000A0000
000F0000
001F8000
0027C000
0032D000
00A1E000
00D0F400
01C0B800
02807C00
07AABD00
0A002F00
0D000F40
2C000B80
BF403FF4
ENDCHAR
STARTCHAR uni01DF
ENCODING 479
SWIDTH 480 0
DWIDTH 10 0
BBX 9 16 0 0
BITMAP
1AA900
000000
2D1E00
1D0E00
000000
000000
06B800
2C1D00
2C0E00
140E00
006E00
0A4E00
2C0E00
780E00
381E00
1F8B80
ENDCHAR
STARTCHAR uni01F0
ENCODING 496
SWIDTH 263 0
DWIDTH 5 0
BBX 7 19 -2 -5
BITMAP
0908
0774
01E0
0000
06E0
01E0
00E0
00E0
00E0
00E0
00E0
00E0
00E0
00E0
00E0
00E0
40D0
B1C0
7E40
ENDCHAR
STARTCHAR Aringacute
ENCODING 506
SWIDTH 718 0
DWIDTH 14 0
BBX 15 21 0 0
BITMAP
00018000
000B4000
00180000
001A4000
0020C000
0030C000
001A4000
000A0000
000F0000
001F8000
0027C000
0032D000
00A1E000
00D0F400
01C0B800
02807C00
07AABD00
0A002F00
0D000F40
2C000B80
BF403FF4
ENDCHAR
STARTCHAR aringacute
ENCODING 507
SWIDTH 480 0
DWIDTH 10 0
BBX 9 18 0 0
BITMAP
006400
00E000
024000
02A000
061800
061800
02A000
000000
06B800
2C1D00
2C0E00
140E00
006E00
0A4E00
2C0E00
780E00
381E00
1F8B80
ENDCHAR
STARTCHAR AEacute
ENCODING 508
SWIDTH 894 0
DWIDTH 18 0
BBX 18 17 -1 0
BITMAP
0000006400
000001E000
0000064000
0006FFFFE0
0001AC00A0
00026C0060
00032C0010
00092C0000
001C2C0200
00242C0300
007ABEAF00
00A02C0300
01C02C0200
02402C0010
06002C0020
0E003C00B0
7F82FFFFE0
ENDCHAR
STARTCHAR aeacute
ENCODING 509
SWIDTH 709 0
DWIDTH 14 0
BBX 14 14 0 0
BITMAP
00074000
000E0000
00180000
00000000
0AB5AE00
2C1F0380
141E02D0
002FAAD0
069E0000
1D0E0000
380F0010
780F8090
3827FF80
1F81BE00
ENDCHAR
STARTCHAR Oslashacute
ENCODING 510
SWIDTH 737 0
DWIDTH 15 0
BBX 13 17 1 0
BITMAP
00064000
001E0000
00640000
01AB9500
0B40BC00
2D003D00
78009F00
B4014B40
F4060B80
F0080780
F0240780
F4900780
B5800B40
7A000F00
2D001D00
2F407400
61AA9000
ENDCHAR
STARTCHAR oslashacute
ENCODING 511
SWIDTH 514 0
DWIDTH 10 0
BBX 10 14 0 0
BITMAP
003800
00B000
008000
000000
06EA80
1E0740
2C0AC0
3815D0
7861E0
7881E0
3A01D0
2D02C0
1E0340
26A900
ENDCHAR
STARTCHAR uni0218
ENCODING 536
SWIDTH 504 0
DWIDTH 10 0
BBX 10 19 0 -5
BITMAP
06BF80
1D0780
380180
3C0080
2E0000
1F9000
07F800
00BF40
001FC0
0003D0
5002D0
7002D0
780380
3FAE00
000000
01F000
01F400
003000
009000
ENDCHAR
STARTCHAR uni0219
ENCODING 537
SWIDTH 394 0
DWIDTH 8 0
BBX 8 15 0 -5
BITMAP
1AA8
3428
3408
3D00
1F90
02F4
007C
501D
742C
6AA4
0000
07C0
07D0
00C0
0240
ENDCHAR
STARTCHAR uni021A
ENCODING 538
SWIDTH 603 0
DWIDTH 12 0
BBX 12 20 0 -6
BITMAP
BEBEBE
A03C0A
903C02
403C01
003C00
003C00
003C00
003C00
003C00
003C00
003C00
003C00
003C00
02FF80
000000
003C00
003D00
000900
002800
001000
ENDCHAR
STARTCHAR uni021B
ENCODING 539
SWIDTH 315 0
DWIDTH 6 0
BBX 5 18 1 -5
BITMAP
1800
2800
7800
BE80
3800
3800
3800
3800
3800
3800
3800
3840
1E40
0000
1E00
1F00
0300
0900
ENDCHAR
STARTCHAR uni0221
ENCODING 545
SWIDTH 674 0
DWIDTH 13 0
BBX 14 17 0 -3
BITMAP
000AC000
0003C000
0002C000
0002C000
02ABC000
0D07C000
2802C000
3802C000
7402C000
7402C000
7802C280
3D07C860
2FFAE490
0BE0BA40
00009000
00018000
00020000
ENDCHAR
STARTCHAR uni0228
ENCODING 552
SWIDTH 626 0
DWIDTH 13 0
BBX 12 19 0 -5
BITMAP
2FFFFD
07801D
078005
078000
078020
078020
078060
07EBE0
078020
078000
078002
078006
07801E
6FFFFD
001400
001A00
000340
000340
002A00
ENDCHAR
STARTCHAR uni0229
ENCODING 553
SWIDTH 464 0
DWIDTH 9 0
BBX 9 15 0 -5
BITMAP
06B800
1C0E00
340740
3EAB40
740000
740000
3C0040
2E0240
1FFE00
06F800
008000
00A400
002800
002800
02A000
ENDCHAR
STARTCHAR uni0234
ENCODING 564
SWIDTH 399 0
DWIDTH 8 0
BBX 8 17 0 -3
BITMAP
6D00
2D00
1D00
1D00
1D00
1D00
1D00
1D00
1D00
1D00
1D2A
1D53
1E86
0BA8
0600
0800
1400
ENDCHAR
STARTCHAR uni0235
ENCODING 565
SWIDTH 702 0
DWIDTH 14 0
BBX 14 13 0 -3
BITMAP
2E6F4000
0F42C000
0E01D000
0E01D000
0E01D000
0E01D000
0E01D1A0
0E01D620
0E00E820
7FD0BE80
00002000
00009000
00008000
ENDCHAR
STARTCHAR uni0236
ENCODING 566
SWIDTH 406 0
DWIDTH 8 0
BBX 8 16 1 -3
BITMAP
1800
2800
7800
BE80
3800
3800
3800
3800
3800
3868
3989
3A08
1FA4
0800
2400
2000
ENDCHAR
STARTCHAR uni0237
ENCODING 567
SWIDTH 263 0
DWIDTH 5 0
BBX 6 15 -2 -5
BITMAP
06E0
01E0
00E0
00E0
00E0
00E0
00E0
00E0
00E0
00E0
00E0
00E0
40D0
B1C0
7E40
ENDCHAR
STARTCHAR uni0250
ENCODING 592
SWIDTH 475 0
DWIDTH 10 0
BBX 9 10 0 0
BITMAP
6C6E00
1E0780
1D0380
1D0740
1D6900
1F5000
1D0100
0E0740
0B0B00
02E900
ENDCHAR
STARTCHAR uni0251
ENCODING 593
SWIDTH 542 0
DWIDTH 11 0
BBX 10 10 0 0
BITMAP
02A9C0
0D07C0
2803C0
3402C0
7402C0
7402C0
7402C0
3802C0
2D07C0
0BA6D0
ENDCHAR
STARTCHAR uni0252
ENCODING 594
SWIDTH 544 0
DWIDTH 11 0
BBX 10 10 0 0
BITMAP
6E6F40
0F56D0
0E00F0
0E00B0
0E00B0
0E00B0
0E00B0
0E00E0
0F4280
0DAA00
ENDCHAR
STARTCHAR uni0253
ENCODING 595
SWIDTH 518 0
DWIDTH 10 0
BBX 9 15 1 0
BITMAP
06E400
247800
341400
740000
740000
75F800
795E00
740B40
740780
740780
740780
740740
740B00
781D00
6FA400
ENDCHAR
STARTCHAR uni0254
ENCODING 596
SWIDTH 454 0
DWIDTH 9 0
BBX 9 10 0 0
BITMAP
07E400
2FFD00
201F00
400B40
000740
000740
000700
340A00
3C1D00
1BA400
ENDCHAR
STARTCHAR uni0255
ENCODING 597
SWIDTH 447 0
DWIDTH 9 0
BBX 9 13 0 -3
BITMAP
06B900
1D0F00
280700
340000
740000
740000
782A00
3C9240
1F4200
07E900
090000
080000
040000
ENDCHAR
STARTCHAR uni0256
ENCODING 598
SWIDTH 528 0
DWIDTH 11 0
BBX 13 19 0 -5
BITMAP
000AC000
0003C000
0002C000
0002C000
02ABC000
0E07C000
2803C000
3802C000
7402C000
7402C000
7802C000
3C02C000
2E5BC000
0BE6C000
0002C000
0002C000
0002C100
0001C380
00006E40
ENDCHAR
STARTCHAR uni0257
ENCODING 599
SWIDTH 542 0
DWIDTH 11 0
BBX 13 15 0 0
BITMAP
00006A40
0000D3C0
0001C140
0002C000
0002C000
02ABC000
0D07C000
2803C000
3802C000
7402C000
7402C000
7802C000
3802C000
2D07C000
0BE6D000
ENDCHAR
STARTCHAR uni0258
ENCODING 600
SWIDTH 466 0
DWIDTH 9 0
BBX 9 10 0 0
BITMAP
06A800
1D0A00
380340
7EAB40
000380
000780
000B40
241F00
1FFE00
07E400
ENDCHAR
STARTCHAR uni0259
ENCODING 601
SWIDTH 464 0
DWIDTH 9 0
BBX 9 10 0 0
BITMAP
07E400
2FFD00
601F00
000740
000380
7EAB80
780340
3C0700
1D0A00
07A400
ENDCHAR
STARTCHAR uni025A
ENCODING 602
SWIDTH 642 0
DWIDTH 13 0
BBX 13 10 0 0
BITMAP
07E40000
2FFE0000
601F6440
00075A40
00038000
7EAB8000
78034000
3C070000
1D090000
07A40000
ENDCHAR
STARTCHAR uni025B
ENCODING 603
SWIDTH 399 0
DWIDTH 8 0
BBX 8 10 0 0
BITMAP
0AB8
381D
3804
2D00
07E0
2D00
7800
7800
3805
1BA4
ENDCHAR
STARTCHAR uni025C
ENCODING 604
SWIDTH 398 0
DWIDTH 8 0
BBX 8 10 0 0
BITMAP
2EE0
742C
102C
0074
0BD0
0078
002C
002D
502C
1AE0
ENDCHAR
STARTCHAR uni025D
ENCODING 605
SWIDTH 575 0
DWIDTH 12 0
BBX 12 10 0 0
BITMAP
2EA400
742C40
002ED5
006468
0BE000
007C00
002D00
002D00
502800
1AE000
ENDCHAR
STARTCHAR uni025E
ENCODING 606
SWIDTH 500 0
DWIDTH 10 0
BBX 10 10 0 0
BITMAP
02AE00
0E02C0
2C02C0
340780
747D00
740380
3402D0
2802D0
0E03C0
02AE00
ENDCHAR
STARTCHAR uni025F
ENCODING 607
SWIDTH 272 0
DWIDTH 5 0
BBX 8 15 -2 -5
BITMAP
06E0
00E0
00E0
00E0
06F9
00E0
00E0
00E0
00E0
00E0
00E0
00E0
50D0
B5C0
7E40
ENDCHAR
STARTCHAR uni0260
ENCODING 608
SWIDTH 541 0
DWIDTH 11 0
BBX 14 20 0 -5
BITMAP
00002A80
0000C2D0
0001C040
00028000
00028000
02AB8000
0D078000
28038000
34038000
74038000
74038000
78038000
3C038000
2E5B8000
0BE78000
00038000
00038000
24034000
2D0B0000
0BA80000
ENDCHAR
STARTCHAR uni0261
ENCODING 609
SWIDTH 521 0
DWIDTH 10 0
BBX 9 15 0 -5
BITMAP
02A980
0D0780
280380
340380
740380
740380
780380
3C0380
2E5B80
0BE780
000380
000380
240340
2D0B00
0BA800
ENDCHAR
STARTCHAR uni0262
ENCODING 610
SWIDTH 535 0
DWIDTH 11 0
BBX 11 10 0 0
BITMAP
02AFD0
0E01D0
2C0090
380050
780000
7807F4
3801D0
3C01D0
1E01D0
06EA40
ENDCHAR
STARTCHAR uni0263
ENCODING 611
SWIDTH 479 0
DWIDTH 10 0
BBX 11 15 -1 -5
BITMAP
7F81F8
0F0060
0B4090
0780C0
03C180
01D200
00E600
00B900
007C00
003C00
007D00
009E00
00CA00
00CA00
00AD00
ENDCHAR
STARTCHAR uni0264
ENCODING 612
SWIDTH 466 0
DWIDTH 9 0
BBX 9 10 0 0
BITMAP
6A5B40
E1E1C0
52B080
023800
092C00
081D00
081D00
081D00
092C00
06A400
ENDCHAR
STARTCHAR uni0265
ENCODING 613
SWIDTH 553 0
DWIDTH 11 0
BBX 11 15 0 -5
BITMAP
6D06D0
1D01D0
1D01D0
1D01D0
1D01D0
1D01D0
1E01D0
0E01D0
0B02D0
02E9D0
0001D0
0001D0
0001D0
0001E0
0001FC
ENDCHAR
STARTCHAR uni0266
ENCODING 614
SWIDTH 577 0
DWIDTH 12 0
BBX 11 15 0 0
BITMAP
01B900
070F00
0A0100
0E0000
0E0000
0E6B40
0F42D0
0E00E0
0E00E0
0E00E0
0E00E0
0E00E0
0E00E0
0E00E0
7FC7FC
ENDCHAR
STARTCHAR uni0267
ENCODING 615
SWIDTH 562 0
DWIDTH 11 0
BBX 10 20 0 -5
BITMAP
01B900
070F00
0A0100
0E0000
0E0000
0E6B40
0F42D0
0E00D0
0E00E0
0E00E0
0E00E0
0E00E0
0E00E0
0E00E0
7FC0E0
0000E0
0000E0
0050D0
00F1C0
007E40
ENDCHAR
STARTCHAR uni0268
ENCODING 616
SWIDTH 295 0
DWIDTH 6 0
BBX 6 14 0 0
BITMAP
0F00
0F00
0000
0000
2A00
1E00
0E00
0E00
6F90
0E00
0E00
0E00
0F00
7FD0
ENDCHAR
STARTCHAR uni0269
ENCODING 617
SWIDTH 286 0
DWIDTH 6 0
BBX 6 10 0 0
BITMAP
6D00
1D00
1D00
1D00
1D00
1D00
1D00
1D00
0E10
0B90
ENDCHAR
STARTCHAR uni026A
ENCODING 618
SWIDTH 287 0
DWIDTH 6 0
BBX 5 10 0 0
BITMAP
7FC0
0E00
0E00
0E00
0E00
0E00
0E00
0E00
0E00
7FC0
ENDCHAR
STARTCHAR uni026B
ENCODING 619
SWIDTH 290 0
DWIDTH 6 0
BBX 6 14 0 0
BITMAP
6E00
0E00
0E00
0E00
0E00
6E20
8F90
0E00
0E00
0E00
0E00
0E00
0E00
7FD0
ENDCHAR
STARTCHAR uni026C
ENCODING 620
SWIDTH 318 0
DWIDTH 6 0
BBX 7 14 0 0
BITMAP
1B40
0740
0740
0740
6F40
D740
C744
E7A0
2F80
0740
0740
0740
0740
2FE0
ENDCHAR
STARTCHAR uni026D
ENCODING 621
SWIDTH 248 0
DWIDTH 5 0
BBX 7 19 0 -5
BITMAP
6D00
6D00
1D00
1D00
1D00
1D00
1D00
1D00
1D00
1D00
1D00
1D00
1D00
1D00
1D00
1D00
0D04
0A2C
02F8
ENDCHAR
STARTCHAR uni026E
ENCODING 622
SWIDTH 590 0
DWIDTH 12 0
BBX 12 19 0 -5
BITMAP
6E0000
0E0000
0E0000
0E0000
0FAABC
0E0078
0E01E0
0E02D0
0E0740
0E1E00
0E1F80
0E01B4
0E003C
7FC01D
00001D
00001D
01802C
01E074
00BA80
ENDCHAR
STARTCHAR uni026F
ENCODING 623
SWIDTH 846 0
DWIDTH 17 0
BBX 16 10 0 0
BITMAP
6D06C0AC
1D02C07C
1D02C02C
1D02C02C
1D02C02C
1D02C02C
1D02C02C
0E02D02C
0E07E0BC
06E4BA2E
ENDCHAR
STARTCHAR uni0270
ENCODING 624
SWIDTH 826 0
DWIDTH 17 0
BBX 17 15 0 -5
BITMAP
6D06C0AC00
1D06C07C00
1D02C02C00
1D02C02C00
1D02C02C00
1D02C02C00
1D02C02C00
0E02D02C00
0E07E0BC00
06E4BA6C00
0000002C00
0000002C00
0000002C00
0000002C00
0000002F40
ENDCHAR
STARTCHAR uni0271
ENCODING 625
SWIDTH 835 0
DWIDTH 17 0
BBX 15 15 0 -5
BITMAP
2E2B86E4
0F82F438
0E01D02C
0E01D02C
0E01D02C
0E01D02C
0E01D02C
0E01D02C
0E01E02C
7FCBF82C
0000002C
0000002C
0000042C
00001E24
00000BE0
ENDCHAR
STARTCHAR uni0272
ENCODING 626
SWIDTH 574 0
DWIDTH 11 0
BBX 13 15 -2 -5
BITMAP
02E2F400
00F42D00
00E01D00
00E00E00
00E00E00
00E00E00
00E00E00
00E00E00
00E01E00
00E07FC0
00E00000
00E00000
50D00000
F5C00000
7E400000
ENDCHAR
STARTCHAR uni0273
ENCODING 627
SWIDTH 563 0
DWIDTH 11 0
BBX 14 15 0 -5
BITMAP
2E6B4000
0F42C000
0E01D000
0E00E000
0E00E000
0E00E000
0E00E000
0E00E000
0E00E000
7FC0E000
0000E000
0000E000
0000A040
000072D0
00001F80
ENDCHAR
STARTCHAR uni0274
ENCODING 628
SWIDTH 568 0
DWIDTH 11 0
BBX 11 10 0 0
BITMAP
BE02FC
1F4070
0FD060
09F060
08B860
082E60
080F60
0807E0
1801E0
7F0060
ENDCHAR
STARTCHAR uni0275
ENCODING 629
SWIDTH 514 0
DWIDTH 10 0
BBX 10 10 0 0
BITMAP
06B900
1D0780
2C02C0
3801D0
7EABE0
7801E0
3801D0
3C02C0
1E0740
06E900
ENDCHAR
STARTCHAR uni0276
ENCODING 630
SWIDTH 732 0
DWIDTH 15 0
BBX 14 10 0 0
BITMAP
06EFEBD0
1E078050
2C038010
38038140
7803EF40
78038240
38038140
2C038010
1E078060
06EFEBE0
ENDCHAR
STARTCHAR uni0277
ENCODING 631
SWIDTH 672 0
DWIDTH 13 0
BBX 13 10 0 0
BITMAP
01AA9000
0B402C00
1D000A00
38040740
781E0780
781E0380
780E0380
380D0740
1D1A0B00
07A1B800
ENDCHAR
STARTCHAR uni0278
ENCODING 632
SWIDTH 658 0
DWIDTH 13 0
BBX 13 19 0 -5
BITMAP
006D0000
001D0000
001D0000
001D0000
02FFE400
0E1D2D00
2C1D0F00
381D0B40
781D0740
781D0740
381D0B40
3C1D0A00
1E1D1D00
06AEA000
001D0000
001D0000
001D0000
001D0000
00BF8000
ENDCHAR
STARTCHAR uni0279
ENCODING 633
SWIDTH 380 0
DWIDTH 8 0
BBX 7 10 0 0
BITMAP
0BF8
01E0
00E0
00E0
00E0
00E0
00E0
02E0
B9E4
B4E4
ENDCHAR
STARTCHAR uni027A
ENCODING 634
SWIDTH 374 0
DWIDTH 7 0
BBX 7 14 0 0
BITMAP
06E0
01E0
00E0
00E0
00E0
00E0
00E0
00E0
00E0
00E0
00E0
02E0
B9E4
B4E4
ENDCHAR
STARTCHAR uni027B
ENCODING 635
SWIDTH 375 0
DWIDTH 8 0
BBX 10 15 0 -5
BITMAP
0BF800
01E000
00E000
00E000
00E000
00E000
00E000
02E000
B9E000
B4E000
00E000
00E000
00A040
0072D0
002F80
ENDCHAR
STARTCHAR uni027C
ENCODING 636
SWIDTH 378 0
DWIDTH 8 0
BBX 8 15 0 -5
BITMAP
2A2D
1EAD
0F40
0E00
0E00
0E00
0E00
0E00
0E00
0E00
0E00
0E00
0E00
0E00
7FD0
ENDCHAR
STARTCHAR uni027D
ENCODING 637
SWIDTH 373 0
DWIDTH 7 0
BBX 8 15 0 -5
BITMAP
6E2C
1EAD
0F00
0E00
0E00
0E00
0E00
0E00
0E00
0E00
0E00
0E00
0E04
072D
02F8
ENDCHAR
STARTCHAR uni027E
ENCODING 638
SWIDTH 371 0
DWIDTH 7 0
BBX 8 10 0 0
BITMAP
01B8
061D
0A00
0E00
0E00
0E00
0E00
0E00
1E00
7FD0
ENDCHAR
STARTCHAR uni027F
ENCODING 639
SWIDTH 371 0
DWIDTH 7 0
BBX 7 10 0 0
BITMAP
7E00
A180
01D0
00D0
00E0
00E0
00E0
00E0
01E0
0BF8
ENDCHAR
STARTCHAR uni0280
ENCODING 640
SWIDTH 494 0
DWIDTH 10 0
BBX 10 10 0 0
BITMAP
2FA900
0E0B00
0E0740
0E0740
0E0E00
0FF400
0E3800
0E1E00
0E0B80
7F83F0
ENDCHAR
STARTCHAR uni0281
ENCODING 641
SWIDTH 494 0
DWIDTH 10 0
BBX 10 10 0 0
BITMAP
7F83F0
0E0B80
0E1E00
0E3800
0FF400
0E1E00
0E0740
0E0740
0E0B00
2FA900
ENDCHAR
STARTCHAR uni0282
ENCODING 642
SWIDTH 395 0
DWIDTH 8 0
BBX 8 15 0 -5
BITMAP
1AA8
3418
3408
3D00
1F90
02F4
107C
601D
742C
7AA4
2000
2000
2000
21C0
1B80
ENDCHAR
STARTCHAR uni0283
ENCODING 643
SWIDTH 253 0
DWIDTH 5 0
BBX 9 20 -2 -5
BITMAP
002B40
00A2C0
00D040
01D000
01D000
01D000
01D000
01D000
01D000
01D000
01D000
01D000
01D000
01D000
01D000
01D000
01D000
41C000
E18000
BE0000
ENDCHAR
STARTCHAR uni0284
ENCODING 644
SWIDTH 286 0
DWIDTH 6 0
BBX 10 19 -2 -5
BITMAP
001B80
0071D0
00A000
00E000
00E000
00E000
00E000
00E000
00E000
00E000
00E000
00E000
00E000
06F900
00E000
00E000
00D000
B1C000
7E0000
ENDCHAR
STARTCHAR uni0285
ENCODING 645
SWIDTH 361 0
DWIDTH 7 0
BBX 10 15 0 -5
BITMAP
7E0000
A1C000
00D000
00D000
00E000
00E000
00E000
00E000
00E000
00E000
00E000
00E000
00E040
00A1D0
002B80
ENDCHAR
STARTCHAR uni0286
ENCODING 646
SWIDTH 253 0
DWIDTH 5 0
BBX 9 20 -2 -5
BITMAP
002B40
00A2C0
00D040
01D000
01D000
01D000
01D000
01D000
01D000
01D000
01D000
01D000
01D000
01D000
01D000
01D000
2BE000
91E800
92C000
6A4000
ENDCHAR
STARTCHAR uni0287
ENCODING 647
SWIDTH 315 0
DWIDTH 6 0
BBX 6 13 0 -3
BITMAP
6E00
4740
0740
0740
0740
0740
0740
0740
0740
6BD0
0780
0700
0600
ENDCHAR
STARTCHAR uni0288
ENCODING 648
SWIDTH 309 0
DWIDTH 6 0
BBX 7 18 1 -5
BITMAP
0400
1800
7800
FF80
3800
3800
3800
3800
3800
3800
3800
3800
3800
3800
3800
2810
1CB4
0BE0
ENDCHAR
STARTCHAR uni0289
ENCODING 649
SWIDTH 580 0
DWIDTH 12 0
BBX 11 10 0 0
BITMAP
6E0AD0
1E01E0
0E00E0
0E00E0
6FAAF8
0E00E0
0E00E0
0E00E0
0B02E0
02E8E4
ENDCHAR
STARTCHAR uni028A
ENCODING 650
SWIDTH 548 0
DWIDTH 11 0
BBX 9 10 1 0
BITMAP
BD1F80
180900
340700
B00340
E002C0
E002C0
E002C0
B00380
780B40
1BB800
ENDCHAR
STARTCHAR uni028B
ENCODING 651
SWIDTH 530 0
DWIDTH 11 0
BBX 10 10 0 0
BITMAP
6D0380
1D02D0
1D00D0
1D00A0
1D0060
1D0060
1E0050
0E0080
0B0140
02E900
ENDCHAR
STARTCHAR uni028C
ENCODING 652
SWIDTH 495 0
DWIDTH 10 0
BBX 10 10 0 0
BITMAP
00A000
00F000
02B400
033800
062C00
091E00
0C0F00
240B40
340780
FD0FF0
ENDCHAR
STARTCHAR uni028D
ENCODING 653
SWIDTH 764 0
DWIDTH 15 0
BBX 16 10 0 0
BITMAP
00901C00
01F02D00
02B42E00
03389B00
062C8780
091E83C0
0C0F02D0
180B00E0
340740F4
FD1FE2FD
ENDCHAR
STARTCHAR uni028E
ENCODING 654
SWIDTH 492 0
DWIDTH 10 0
BBX 10 14 0 0
BITMAP
0007D0
001ED0
002400
006000
009000
00D000
01F000
027400
063C00
091D00
0C0F00
180B40
3407C0
FD1FF0
ENDCHAR
STARTCHAR uni028F
ENCODING 655
SWIDTH 454 0
DWIDTH 9 0
BBX 11 10 -1 0
BITMAP
7F82F4
0F0080
074140
02C200
00E900
007800
003800
003800
007800
01FE00
ENDCHAR
STARTCHAR uni0290
ENCODING 656
SWIDTH 458 0
DWIDTH 9 0
BBX 12 15 0 -5
BITMAP
3EAF40
301E00
203C00
00B400
01E000
02D000
078000
0F0140
2D0240
7EAF40
000240
000240
000140
00018A
0000AD
ENDCHAR
STARTCHAR uni0291
ENCODING 657
SWIDTH 458 0
DWIDTH 9 0
BBX 9 13 0 -3
BITMAP
3EAF40
301E00
203C00
00B400
01E000
02D000
078A40
0F24C0
2D5080
7EEA40
014000
020000
050000
ENDCHAR
STARTCHAR uni0292
ENCODING 658
SWIDTH 443 0
DWIDTH 9 0
BBX 9 15 0 -5
BITMAP
3EAF00
601E00
503C00
00B400
01E000
03C000
07E000
006D00
000B00
000740
000780
000740
700B00
781D00
2EA000
ENDCHAR
STARTCHAR uni0293
ENCODING 659
SWIDTH 443 0
DWIDTH 9 0
BBX 9 18 0 -8
BITMAP
3EAF00
701E00
503C00
00B400
01E000
03C000
079000
01B900
000F00
000B40
000740
290740
624B00
209D00
1AF400
002000
001800
000800
ENDCHAR
STARTCHAR uni0294
ENCODING 660
SWIDTH 383 0
DWIDTH 8 0
BBX 8 15 0 0
BITMAP
1AE0
382C
741D
101E
001E
001D
0038
01A0
0A40
0E00
0E00
0E00
0E00
0E00
7FD0
ENDCHAR
STARTCHAR uni0295
ENCODING 661
SWIDTH 383 0
DWIDTH 8 0
BBX 7 14 0 0
BITMAP
1AA4
742C
B02C
F000
F000
B400
2800
0690
00E0
00E0
00E0
00E0
00E0
0BFC
ENDCHAR
STARTCHAR uni0296
ENCODING 662
SWIDTH 408 0
DWIDTH 8 0
BBX 8 14 0 0
BITMAP
2B00
1F00
0B00
0B00
0B00
0B00
0690
0074
002C
001D
001E
701D
742C
1AA0
ENDCHAR
STARTCHAR uni0297
ENCODING 663
SWIDTH 437 0
DWIDTH 9 0
BBX 9 13 0 -3
BITMAP
02B900
0D0F00
2C0B00
380000
340000
740000
740000
740000
740000
380000
2C0040
1E0600
07F800
ENDCHAR
STARTCHAR uni0298
ENCODING 664
SWIDTH 736 0
DWIDTH 15 0
BBX 14 14 0 0
BITMAP
006AA400
02901E00
0E000780
2D0002D0
3C0001E0
780640F0
780F80B0
780B40B0
780000F0
3C0001E0
2D0002D0
0A000780
02901E00
006EE400
ENDCHAR
STARTCHAR uni0299
ENCODING 665
SWIDTH 485 0
DWIDTH 10 0
BBX 9 10 0 0
BITMAP
6FB900
0E0B40
0E0740
0E0B40
0FB900
0E0B40
0E03C0
0E03C0
0E0780
6FAE00
ENDCHAR
STARTCHAR uni029A
ENCODING 666
SWIDTH 500 0
DWIDTH 10 0
BBX 10 10 0 0
BITMAP
0BA800
380B00
380380
2D02C0
07D1D0
2C01D0
7801C0
780280
3C0B00
0BA800
ENDCHAR
STARTCHAR uni029B
ENCODING 667
SWIDTH 536 0
DWIDTH 11 0
BBX 13 14 0 0
BITMAP
00002B40
00006280
00005000
00009000
02AFD000
0E01D000
2C009000
38000000
78000000
7807F400
3801D000
3C01D000
1E01D000
06EA4000
ENDCHAR
STARTCHAR uni029C
ENCODING 668
SWIDTH 599 0
DWIDTH 12 0
BBX 12 10 0 0
BITMAP
7FC3FD
0E00B0
0E00B0
0E00B0
0FAAF0
0E00B0
0E00B0
0E00B0
0E00B0
7FC3FD
ENDCHAR
STARTCHAR uni029D
ENCODING 669
SWIDTH 263 0
DWIDTH 5 0
BBX 8 19 -2 -5
BITMAP
01E0
01E0
0000
0000
06E0
01E0
00E0
00E0
00E0
00E0
00E0
00E0
00E0
00E0
00E0
1AE0
60E9
51D0
2A40
ENDCHAR
STARTCHAR uni029E
ENCODING 670
SWIDTH 542 0
DWIDTH 11 0
BBX 11 15 0 -5
BITMAP
BF5FF4
1F03C0
0782C0
01E2C0
00B6C0
002FC0
0026C0
0092C0
0742C0
7FC2C0
0002C0
0002C0
0002C0
0002C0
0002F4
ENDCHAR
STARTCHAR uni029F
ENCODING 671
SWIDTH 440 0
DWIDTH 9 0
BBX 9 10 0 0
BITMAP
7FC000
1E0000
1D0000
1D0000
1D0000
1D0000
1D0000
1D0140
1E0240
6FAF00
ENDCHAR
STARTCHAR uni02A0
ENCODING 672
SWIDTH 541 0
DWIDTH 11 0
BBX 14 19 0 -5
BITMAP
00006B80
0000C2D0
0002C000
00028000
02AB8000
0D078000
28038000
34038000
74038000
74038000
78038000
3C038000
2E5B8000
0BE78000
00038000
00038000
00038000
0003C000
002FF000
ENDCHAR
STARTCHAR uni02A1
ENCODING 673
SWIDTH 393 0
DWIDTH 8 0
BBX 8 15 0 0
BITMAP
0AE4
382C
741E
100E
000E
001D
002C
01A0
0B00
0E00
6FA0
0E00
0E00
0F00
7FD0
ENDCHAR
STARTCHAR uni02A2
ENCODING 674
SWIDTH 393 0
DWIDTH 8 0
BBX 8 14 0 0
BITMAP
1AA4
742C
B01C
B000
B000
7400
1D00
01E0
00E0
0AF9
00E0
00E0
00F0
0BFD
ENDCHAR
STARTCHAR uni02A3
ENCODING 675
SWIDTH 830 0
DWIDTH 17 0
BBX 16 14 0 0
BITMAP
000AC000
0003C000
0002C000
0002C000
02FBFFFF
0E07C02D
2802C078
3802C0F0
7402C2D0
7402C780
7802CF01
3C02ED02
2E5BF806
0BE6FFFE
ENDCHAR
STARTCHAR uni02A4
ENCODING 676
SWIDTH 838 0
DWIDTH 17 0
BBX 17 19 0 -5
BITMAP
000AC00000
0003C00000
0002C00000
0002C00000
02AFEAAF00
0D07C02E00
2802C03C00
3802C0B400
7402C1E000
7402C3C000
7802C78000
3802C5B800
2D07C01E00
0BE6D00B40
0000000740
0000000740
0000600B00
0000B41D00
00002EA000
ENDCHAR
STARTCHAR uni02A5
ENCODING 677
SWIDTH 829 0
DWIDTH 17 0
BBX 17 17 0 -3
BITMAP
000AC00000
0003C00000
0002C00000
0002C00000
02AFEABF00
0E07C02D00
2802C07800
3802C0F000
7402C2D000
7402C78000
7802CF1A00
3C02ED6240
2E5BF88240
0BE6FFE900
0000020000
0000090000
0000080000
ENDCHAR
STARTCHAR uni02A6
ENCODING 678
SWIDTH 614 0
DWIDTH 12 0
BBX 11 13 1 0
BITMAP
180000
280000
780000
BEFEA0
38A070
38A020
38B800
382F40
3807E0
3800B8
380038
2D00B4
06EA90
ENDCHAR
STARTCHAR uni02A7
ENCODING 679
SWIDTH 513 0
DWIDTH 10 0
BBX 12 20 1 -5
BITMAP
0001B8
00062D
040A04
280E00
780E00
BEAE00
380E00
380E00
380E00
380E00
380E00
380E00
380E00
384E00
1E4E00
000E00
000D00
050D00
0B1C00
07E400
ENDCHAR
STARTCHAR uni02A8
ENCODING 680
SWIDTH 687 0
DWIDTH 14 0
BBX 12 13 1 0
BITMAP
180000
280000
780000
BE86B9
381C1F
383406
387000
387000
387400
387469
383E42
382E02
2E96E9
ENDCHAR
STARTCHAR uni02A9
ENCODING 681
SWIDTH 866 0
DWIDTH 17 0
BBX 16 20 0 -5
BITMAP
01B80000
071E0000
0A040000
0E000000
0E000000
6FABE2B8
0E00F81D
0E00B00E
0E00B00E
0E00B00E
0E00B00E
0E00B00E
0E00B00E
0F00F00E
BFE7FD0E
0000000E
0000000E
0000010D
00000B5C
000007E4
ENDCHAR
STARTCHAR uni02AA
ENCODING 682
SWIDTH 595 0
DWIDTH 12 0
BBX 12 14 0 0
BITMAP
6D0000
2D0000
1D0000
1D0000
1D0AA8
1D341C
1D3408
1D3D00
1D1F90
1D02F8
1D007D
1D001D
0E002C
06AA90
ENDCHAR
STARTCHAR uni02AB
ENCODING 683
SWIDTH 580 0
DWIDTH 12 0
BBX 11 14 0 0
BITMAP
6E0000
0E0000
0E0000
0E0000
0FFFF8
0E00B0
0E01E0
0E03C0
0E0B40
0E1E00
0E2C04
0E7408
0EE028
6FFFF8
ENDCHAR
STARTCHAR uni02AC
ENCODING 684
SWIDTH 599 0
DWIDTH 12 0
BBX 12 14 0 0
BITMAP
BDBD2E
282C08
1D1D14
0A2A20
075750
03C2C0
014140
BDBD2E
282C08
1C1D14
0E2A20
0B5760
038390
028280
ENDCHAR
STARTCHAR uni02AD
ENCODING 685
SWIDTH 479 0
DWIDTH 10 0
BBX 8 14 1 0
BITMAP
BFFD
A00D
A00D
A00D
A00D
A00D
5008
0000
BFFD
A55D
A00D
A00D
A00D
A00D
ENDCHAR
STARTCHAR uni02AE
ENCODING 686
SWIDTH 595 0
DWIDTH 12 0
BBX 13 15 -1 -5
BITMAP
7E006D00
B1806D00
01D01D00
01D01D00
01D01D00
01D01D00
01D01D00
00E01D00
00B06D00
003E5D00
00001D00
00001D00
00001D00
00001D00
00001F80
ENDCHAR
STARTCHAR uni02AF
ENCODING 687
SWIDTH 600 0
DWIDTH 12 0
BBX 15 15 -1 -5
BITMAP
7E006D00
B1806D00
01D01D00
01D01D00
01D01D00
01D01D00
01D01D00
00E01D00
00B06D00
003E5D00
00001D00
00001D00
00000D04
00000A3C
000002F8
ENDCHAR
STARTCHAR uni02B0
ENCODING 688
SWIDTH 488 0
DWIDTH 10 0
BBX 9 11 0 5
BITMAP
6C0000
1C0000
1C0000
1DBD00
1E5E00
1C0700
1C0700
1C0700
1C0700
1C0700
6E5F80
ENDCHAR
STARTCHAR uni02B1
ENCODING 689
SWIDTH 488 0
DWIDTH 10 0
BBX 9 12 0 5
BITMAP
01A800
092C00
0C0000
1C0000
1DBD00
1E5E00
1C0700
1C0700
1C0700
1C0700
1C0700
6E5F80
ENDCHAR
STARTCHAR uni02B2
ENCODING 690
SWIDTH 222 0
DWIDTH 4 0
BBX 6 14 -2 2
BITMAP
01D0
01D0
0000
06D0
01D0
01D0
01D0
01D0
01D0
01D0
01D0
01C0
7180
2E40
ENDCHAR
STARTCHAR uni02B3
ENCODING 691
SWIDTH 325 0
DWIDTH 7 0
BBX 6 8 0 5
BITMAP
6CB0
1E70
1D00
1C00
1C00
1C00
1C00
6E40
ENDCHAR
STARTCHAR uni02B4
ENCODING 692
SWIDTH 325 0
DWIDTH 7 0
BBX 6 8 0 5
BITMAP
07E0
01C0
01C0
01C0
01C0
01C0
66C0
79E0
ENDCHAR
STARTCHAR uni02B5
ENCODING 693
SWIDTH 325 0
DWIDTH 7 0
BBX 8 10 0 3
BITMAP
07E4
01C0
01C0
01C0
01C0
01C0
66C0
79C0
00D1
006A
ENDCHAR
STARTCHAR uni02B6
ENCODING 694
SWIDTH 443 0
DWIDTH 9 0
BBX 9 8 0 5
BITMAP
6E4B40
1D1D00
1D3800
1DB000
1EE000
1D1D00
1D1D00
6EB800
ENDCHAR
STARTCHAR uni02B7
ENCODING 695
SWIDTH 653 0
DWIDTH 13 0
BBX 13 8 0 5
BITMAP
BD2E0B80
280D0200
1C0F0500
0E1B4800
0B238800
0762D400
03D1F000
01C0A000
ENDCHAR
STARTCHAR uni02B8
ENCODING 696
SWIDTH 427 0
DWIDTH 9 0
BBX 9 11 0 2
BITMAP
BD1B40
2C0900
1D0800
0E1800
076000
03A000
01D000
00C000
014000
670000
790000
ENDCHAR
STARTCHAR uni02B9
ENCODING 697
SWIDTH 296 0
DWIDTH 6 0
BBX 4 6 1 9
BITMAP
0D
1D
2C
34
70
90
ENDCHAR
STARTCHAR uni02BA
ENCODING 698
SWIDTH 456 0
DWIDTH 9 0
BBX 7 6 1 9
BITMAP
0D28
1D78
2C70
34A0
70C0
9180
ENDCHAR
STARTCHAR uni02BB
ENCODING 699
SWIDTH 245 0
DWIDTH 5 0
BBX 3 5 1 9
BITMAP
14
60
90
B8
78
ENDCHAR
STARTCHAR uni02BC
ENCODING 700
SWIDTH 244 0
DWIDTH 5 0
BBX 3 5 1 9
BITMAP
F4
B8
18
20
80
ENDCHAR
STARTCHAR uni02BD
ENCODING 701
SWIDTH 244 0
DWIDTH 5 0
BBX 3 5 1 9
BITMAP
B8
B8
90
60
14
ENDCHAR
STARTCHAR uni02BE
ENCODING 702
SWIDTH 203 0
DWIDTH 4 0
BBX 4 4 0 10
BITMAP
68
09
09
68
ENDCHAR
STARTCHAR uni02BF
ENCODING 703
SWIDTH 203 0
DWIDTH 4 0
BBX 4 4 0 10
BITMAP
29
60
60
29
ENDCHAR
STARTCHAR uni02C0
ENCODING 704
SWIDTH 364 0
DWIDTH 7 0
BBX 6 8 1 7
BITMAP
6A00
E1C0
80D0
00E0
01D0
0780
2900
2800
ENDCHAR
STARTCHAR uni02C1
ENCODING 705
SWIDTH 364 0
DWIDTH 7 0
BBX 7 8 0 7
BITMAP
0A90
2874
7420
7400
3800
1D00
02C0
01C0
ENDCHAR
STARTCHAR uni02C2
ENCODING 706
SWIDTH 324 0
DWIDTH 6 0
BBX 5 6 1 9
BITMAP
0280
1E00
A400
B400
1E00
0280
ENDCHAR
STARTCHAR uni02C3
ENCODING 707
SWIDTH 324 0
DWIDTH 6 0
BBX 6 6 0 9
BITMAP
7400
1E00
02D0
02D0
1E00
6400
ENDCHAR
STARTCHAR uni02C4
ENCODING 708
SWIDTH 324 0
DWIDTH 6 0
BBX 7 5 0 10
BITMAP
0600
0F40
29C0
30A0
9034
ENDCHAR
STARTCHAR uni02C5
ENCODING 709
SWIDTH 324 0
DWIDTH 6 0
BBX 7 5 0 10
BITMAP
9034
30A0
29C0
0F40
0600
ENDCHAR
STARTCHAR circumflex
ENCODING 710
SWIDTH 342 0
DWIDTH 7 0
BBX 5 3 1 11
BITMAP
2D00
7740
8180
ENDCHAR
STARTCHAR caron
ENCODING 711
SWIDTH 342 0
DWIDTH 7 0
BBX 5 3 1 11
BITMAP
8080
7740
2D00
ENDCHAR
STARTCHAR uni02C8
ENCODING 712
SWIDTH 284 0
DWIDTH 6 0
BBX 2 6 2 9
BITMAP
90
90
90
90
90
90
ENDCHAR
STARTCHAR uni02C9
ENCODING 713
SWIDTH 350 0
DWIDTH 7 0
BBX 7 1 0 12
BITMAP
6AA4
ENDCHAR
STARTCHAR uni02CA
ENCODING 714
SWIDTH 222 0
DWIDTH 4 0
BBX 4 3 0 11
BITMAP
1E
28
60
ENDCHAR
STARTCHAR uni02CB
ENCODING 715
SWIDTH 222 0
DWIDTH 4 0
BBX 4 3 0 11
BITMAP
78
1C
06
ENDCHAR
STARTCHAR uni02CC
ENCODING 716
SWIDTH 284 0
DWIDTH 6 0
BBX 2 6 2 -4
BITMAP
90
90
90
90
90
90
ENDCHAR
STARTCHAR uni02CD
ENCODING 717
SWIDTH 342 0
DWIDTH 7 0
BBX 7 1 0 -3
BITMAP
AAA4
ENDCHAR
STARTCHAR uni02CE
ENCODING 718
SWIDTH 222 0
DWIDTH 4 0
BBX 4 3 0 -3
BITMAP
78
1C
06
ENDCHAR
STARTCHAR uni02CF
ENCODING 719
SWIDTH 223 0
DWIDTH 4 0
BBX 4 3 0 -3
BITMAP
1E
28
60
ENDCHAR
STARTCHAR uni02D0
ENCODING 720
SWIDTH 341 0
DWIDTH 7 0
BBX 3 9 2 0
BITMAP
F8
B4
70
00
00
00
70
B4
F8
ENDCHAR
STARTCHAR uni02D1
ENCODING 721
SWIDTH 341 0
DWIDTH 7 0
BBX 3 3 2 6
BITMAP
F8
B4
70
ENDCHAR
STARTCHAR uni02D2
ENCODING 722
SWIDTH 341 0
DWIDTH 7 0
BBX 5 6 1 2
BITMAP
6900
0700
0340
0340
0700
6900
ENDCHAR
STARTCHAR uni02D3
ENCODING 723
SWIDTH 341 0
DWIDTH 7 0
BBX 5 6 1 2
BITMAP
1A40
7400
A000
A000
7400
1A40
ENDCHAR
STARTCHAR uni02D4
ENCODING 724
SWIDTH 341 0
DWIDTH 7 0
BBX 5 4 1 3
BITMAP
0800
0800
0800
BF80
ENDCHAR
STARTCHAR uni02D5
ENCODING 725
SWIDTH 341 0
DWIDTH 7 0
BBX 5 4 1 3
BITMAP
AE80
0800
0800
0800
ENDCHAR
STARTCHAR uni02D6
ENCODING 726
SWIDTH 341 0
DWIDTH 7 0
BBX 5 4 1 3
BITMAP
0800
6E40
0800
0800
ENDCHAR
STARTCHAR uni02D7
ENCODING 727
SWIDTH 341 0
DWIDTH 7 0
BBX 5 1 1 5
BITMAP
6A40
ENDCHAR
STARTCHAR breve
ENCODING 728
SWIDTH 353 0
DWIDTH 7 0
BBX 7 3 0 11
BITMAP
5014
2020
1A90
ENDCHAR
STARTCHAR dotaccent
ENCODING 729
SWIDTH 194 0
DWIDTH 4 0
BBX 2 2 1 12
BITMAP
F0
E0
ENDCHAR
STARTCHAR ring
ENCODING 730
SWIDTH 265 0
DWIDTH 5 0
BBX 5 4 0 11
BITMAP
2A00
6180
6180
2A00
ENDCHAR
STARTCHAR ogonek
ENCODING 731
SWIDTH 277 0
DWIDTH 6 0
BBX 5 5 0 -4
BITMAP
0400
1800
3000
7040
3F40
ENDCHAR
STARTCHAR tilde
ENCODING 732
SWIDTH 381 0
DWIDTH 8 0
BBX 7 2 0 11
BITMAP
1A58
51A4
ENDCHAR
STARTCHAR hungarumlaut
ENCODING 733
SWIDTH 350 0
DWIDTH 7 0
BBX 7 3 0 11
BITMAP
1EB4
28D0
6240
ENDCHAR
STARTCHAR uni02DE
ENCODING 734
SWIDTH 205 0
DWIDTH 4 0
BBX 5 3 -1 4
BITMAP
1400
6880
0A40
ENDCHAR
STARTCHAR uni02DF
ENCODING 735
SWIDTH 302 0
DWIDTH 6 0
BBX 5 5 1 10
BITMAP
4100
A600
3C00
6A00
8240
ENDCHAR
STARTCHAR uni02E0
ENCODING 736
SWIDTH 413 0
DWIDTH 8 0
BBX 9 11 0 2
BITMAP
BD1F40
2C0800
1D0800
0E2400
0B2000
039000
02C000
02D000
02A000
056000
029000
ENDCHAR
STARTCHAR uni02E1
ENCODING 737
SWIDTH 244 0
DWIDTH 5 0
BBX 5 11 0 5
BITMAP
6C00
1C00
1C00
1C00
1C00
1C00
1C00
1C00
1C00
1D00
6E40
ENDCHAR
STARTCHAR uni02E2
ENCODING 738
SWIDTH 337 0
DWIDTH 7 0
BBX 6 8 0 5
BITMAP
1AA0
7060
7410
2F40
07E0
50B0
6070
6A90
ENDCHAR
STARTCHAR uni02E3
ENCODING 739
SWIDTH 445 0
DWIDTH 9 0
BBX 9 8 0 5
BITMAP
7E1E00
0E0800
076000
02D000
02E000
067400
082D00
782F40
ENDCHAR
STARTCHAR uni02E4
ENCODING 740
SWIDTH 364 0
DWIDTH 7 0
BBX 6 11 1 5
BITMAP
2A90
A0B0
D010
D000
E000
7400
0B80
0280
0280
0380
0BE0
ENDCHAR
STARTCHAR uni02E5
ENCODING 741
SWIDTH 423 0
DWIDTH 8 0
BBX 7 14 1 0
BITMAP
AAA8
0018
0018
0018
0018
0018
0018
0018
0018
0018
0018
0018
0018
0018
ENDCHAR
STARTCHAR uni02E6
ENCODING 742
SWIDTH 414 0
DWIDTH 8 0
BBX 7 14 1 0
BITMAP
0024
0024
0024
0024
AAB4
0024
0024
0024
0024
0024
0024
0024
0024
0014
ENDCHAR
STARTCHAR uni02E7
ENCODING 743
SWIDTH 414 0
DWIDTH 8 0
BBX 7 15 1 -1
BITMAP
0014
0024
0024
0024
0024
0024
0024
AAB4
0024
0024
0024
0024
0024
0024
0014
ENDCHAR
STARTCHAR uni02E8
ENCODING 744
SWIDTH 414 0
DWIDTH 8 0
BBX 7 14 1 0
BITMAP
0024
0024
0024
0024
0024
0024
0024
0024
0024
AAB4
0024
0024
0024
0014
ENDCHAR
STARTCHAR uni02E9
ENCODING 745
SWIDTH 414 0
DWIDTH 8 0
BBX 7 14 1 0
BITMAP
0024
0024
0024
0024
0024
0024
0024
0024
0024
0024
0024
0024
0024
AAB4
ENDCHAR
STARTCHAR uni02EC
ENCODING 748
SWIDTH 341 0
DWIDTH 7 0
BBX 6 5 0 -3
BITMAP
5020
34A0
1DD0
0B80
0700
ENDCHAR
STARTCHAR uni02ED
ENCODING 749
SWIDTH 380 0
DWIDTH 8 0
BBX 7 4 0 11
BITMAP
6AA8
0000
0000
6AA8
ENDCHAR
STARTCHAR uni02F7
ENCODING 759
SWIDTH 381 0
DWIDTH 8 0
BBX 7 2 0 -3
BITMAP
1A58
51A4
ENDCHAR
STARTCHAR uni0300
ENCODING 768
SWIDTH 0 0
DWIDTH 0 0
BBX 4 3 -7 11
BITMAP
B4
28
09
ENDCHAR
STARTCHAR uni0301
ENCODING 769
SWIDTH 0 0
DWIDTH 0 0
BBX 4 3 -6 11
BITMAP
2D
38
60
ENDCHAR
STARTCHAR uni0302
ENCODING 770
SWIDTH 0 0
DWIDTH 0 0
BBX 5 3 -7 11
BITMAP
2D00
7740
8180
ENDCHAR
STARTCHAR uni0303
ENCODING 771
SWIDTH 0 0
DWIDTH 0 0
BBX 7 2 -8 11
BITMAP
2A54
42E0
ENDCHAR
STARTCHAR uni0304
ENCODING 772
SWIDTH 0 0
DWIDTH 0 0
BBX 7 1 -8 12
BITMAP
6AA4
ENDCHAR
STARTCHAR uni0305
ENCODING 773
SWIDTH 0 0
DWIDTH 0 0
BBX 8 1 -8 12
BITMAP
AAAA
ENDCHAR
STARTCHAR uni0306
ENCODING 774
SWIDTH 0 0
DWIDTH 0 0
BBX 7 3 -8 11
BITMAP
5014
2020
1A80
ENDCHAR
STARTCHAR uni0307
ENCODING 775
SWIDTH 0 0
DWIDTH 0 0
BBX 3 2 -6 12
BITMAP
B4
74
ENDCHAR
STARTCHAR uni0308
ENCODING 776
SWIDTH 0 0
DWIDTH 0 0
BBX 7 2 -8 12
BITMAP
B478
B074
ENDCHAR
STARTCHAR uni0309
ENCODING 777
SWIDTH 0 0
DWIDTH 0 0
BBX 4 5 -6 11
BITMAP
A8
C9
09
0C
20
ENDCHAR
STARTCHAR uni030A
ENCODING 778
SWIDTH 0 0
DWIDTH 0 0
BBX 5 4 -7 11
BITMAP
2A00
9240
9240
2A00
ENDCHAR
STARTCHAR uni030B
ENCODING 779
SWIDTH 0 0
DWIDTH 0 0
BBX 6 3 -7 11
BITMAP
1DB0
39D0
6240
ENDCHAR
STARTCHAR uni030C
ENCODING 780
SWIDTH 0 0
DWIDTH 0 0
BBX 5 3 -7 11
BITMAP
8180
7740
2D00
ENDCHAR
STARTCHAR uni030D
ENCODING 781
SWIDTH 0 0
DWIDTH 0 0
BBX 1 4 -5 11
BITMAP
C0
C0
C0
C0
ENDCHAR
STARTCHAR uni030E
ENCODING 782
SWIDTH 0 0
DWIDTH 0 0
BBX 5 4 -7 11
BITMAP
A240
A240
A240
A240
ENDCHAR
STARTCHAR uni030F
ENCODING 783
SWIDTH 0 0
DWIDTH 0 0
BBX 6 3 -9 11
BITMAP
7AD0
2CA0
0920
ENDCHAR
STARTCHAR uni0310
ENCODING 784
SWIDTH 0 0
DWIDTH 0 0
BBX 7 5 -8 11
BITMAP
0740
4B54
5020
2060
1A80
ENDCHAR
STARTCHAR uni0311
ENCODING 785
SWIDTH 0 0
DWIDTH 0 0
BBX 6 3 -8 11
BITMAP
1A80
2060
5010
ENDCHAR
STARTCHAR uni0312
ENCODING 786
SWIDTH 0 0
DWIDTH 0 0
BBX 3 5 -6 11
BITMAP
04
60
D0
F8
B4
ENDCHAR
STARTCHAR uni0313
ENCODING 787
SWIDTH 0 0
DWIDTH 0 0
BBX 3 4 -6 11
BITMAP
B4
B8
18
60
ENDCHAR
STARTCHAR uni0314
ENCODING 788
SWIDTH 0 0
DWIDTH 0 0
BBX 3 4 -6 11
BITMAP
B4
F4
90
64
ENDCHAR
STARTCHAR uni0315
ENCODING 789
SWIDTH 0 0
DWIDTH 0 0
BBX 2 4 -5 10
BITMAP
B0
A0
90
80
ENDCHAR
STARTCHAR uni0316
ENCODING 790
SWIDTH 0 0
DWIDTH 0 0
BBX 4 3 -7 -4
BITMAP
B4
28
09
ENDCHAR
STARTCHAR uni0317
ENCODING 791
SWIDTH 0 0
DWIDTH 0 0
BBX 4 3 -6 -4
BITMAP
1E
28
60
ENDCHAR
STARTCHAR uni0318
ENCODING 792
SWIDTH 0 0
DWIDTH 0 0
BBX 3 4 -6 -5
BITMAP
08
A8
08
08
ENDCHAR
STARTCHAR uni0319
ENCODING 793
SWIDTH 0 0
DWIDTH 0 0
BBX 3 4 -6 -5
BITMAP
80
E8
80
80
ENDCHAR
STARTCHAR uni031A
ENCODING 794
SWIDTH 0 0
DWIDTH 0 0
BBX 5 4 -7 10
BITMAP
AB80
0280
0280
0140
ENDCHAR
STARTCHAR uni031B
ENCODING 795
SWIDTH 0 0
DWIDTH 0 0
BBX 4 4 -4 9
BITMAP
09
0A
06
68
ENDCHAR
STARTCHAR uni031C
ENCODING 796
SWIDTH 0 0
DWIDTH 0 0
BBX 3 4 -6 -5
BITMAP
64
C0
C0
64
ENDCHAR
STARTCHAR uni031D
ENCODING 797
SWIDTH 0 0
DWIDTH 0 0
BBX 5 3 -7 -4
BITMAP
0800
0800
6E40
ENDCHAR
STARTCHAR uni031E
ENCODING 798
SWIDTH 0 0
DWIDTH 0 0
BBX 5 4 -7 -5
BITMAP
6E40
0800
0800
0400
ENDCHAR
STARTCHAR uni031F
ENCODING 799
SWIDTH 0 0
DWIDTH 0 0
BBX 5 4 -7 -5
BITMAP
0800
6E40
0800
0800
ENDCHAR
STARTCHAR uni0320
ENCODING 800
SWIDTH 0 0
DWIDTH 0 0
BBX 5 1 -7 -4
BITMAP
6A40
ENDCHAR
STARTCHAR uni0321
ENCODING 801
SWIDTH 0 0
DWIDTH 0 0
BBX 6 6 -9 -5
BITMAP
0060
00B0
00B0
10A0
B4D0
2E40
ENDCHAR
STARTCHAR uni0322
ENCODING 802
SWIDTH 0 0
DWIDTH 0 0
BBX 6 6 -5 -5
BITMAP
6000
B000
B000
7050
35E0
1BD0
ENDCHAR
STARTCHAR uni0323
ENCODING 803
SWIDTH 0 0
DWIDTH 0 0
BBX 3 2 -6 -4
BITMAP
B4
74
ENDCHAR
STARTCHAR uni0324
ENCODING 804
SWIDTH 0 0
DWIDTH 0 0
BBX 7 2 -8 -4
BITMAP
B478
B074
ENDCHAR
STARTCHAR uni0325
ENCODING 805
SWIDTH 0 0
DWIDTH 0 0
BBX 5 4 -7 -5
BITMAP
2A00
9240
9240
2A00
ENDCHAR
STARTCHAR uni0326
ENCODING 806
SWIDTH 0 0
DWIDTH 0 0
BBX 3 5 -6 -6
BITMAP
B4
B8
18
60
40
ENDCHAR
STARTCHAR uni0327
ENCODING 807
SWIDTH 0 0
DWIDTH 0 0
BBX 4 5 -6 -5
BITMAP
50
68
0D
0D
A8
ENDCHAR
STARTCHAR uni0328
ENCODING 808
SWIDTH 0 0
DWIDTH 0 0
BBX 5 5 -7 -4
BITMAP
0400
2400
7000
B040
7E00
ENDCHAR
STARTCHAR uni0329
ENCODING 809
SWIDTH 0 0
DWIDTH 0 0
BBX 1 4 -5 -5
BITMAP
C0
C0
C0
C0
ENDCHAR
STARTCHAR uni032A
ENCODING 810
SWIDTH 0 0
DWIDTH 0 0
BBX 5 3 -7 -4
BITMAP
EA80
8080
4040
ENDCHAR
STARTCHAR uni032B
ENCODING 811
SWIDTH 0 0
DWIDTH 0 0
BBX 7 3 -8 -4
BITMAP
4114
9314
6AA0
ENDCHAR
STARTCHAR uni032C
ENCODING 812
SWIDTH 0 0
DWIDTH 0 0
BBX 5 3 -7 -4
BITMAP
8180
7740
2D00
ENDCHAR
STARTCHAR uni032D
ENCODING 813
SWIDTH 0 0
DWIDTH 0 0
BBX 5 3 -7 -4
BITMAP
2D00
7740
8180
ENDCHAR
STARTCHAR uni032E
ENCODING 814
SWIDTH 0 0
DWIDTH 0 0
BBX 7 3 -8 -4
BITMAP
5014
2020
1A80
ENDCHAR
STARTCHAR uni032F
ENCODING 815
SWIDTH 0 0
DWIDTH 0 0
BBX 7 3 -8 -4
BITMAP
1A90
6020
5014
ENDCHAR
STARTCHAR uni0330
ENCODING 816
SWIDTH 0 0
DWIDTH 0 0
BBX 7 2 -8 -3
BITMAP
6A54
82E0
ENDCHAR
STARTCHAR uni0331
ENCODING 817
SWIDTH 0 0
DWIDTH 0 0
BBX 7 1 -8 -3
BITMAP
6AA4
ENDCHAR
STARTCHAR uni0332
ENCODING 818
SWIDTH 0 0
DWIDTH 0 0
BBX 11 1 -10 -3
BITMAP
AAAAA4
ENDCHAR
STARTCHAR uni0333
ENCODING 819
SWIDTH 0 0
DWIDTH 0 0
BBX 11 3 -10 -5
BITMAP
AAAAA4
000000
AAAAA4
ENDCHAR
STARTCHAR uni0334
ENCODING 820
SWIDTH 0 0
DWIDTH 0 0
BBX 7 2 -8 4
BITMAP
6A54
82E0
ENDCHAR
STARTCHAR uni0335
ENCODING 821
SWIDTH 0 0
DWIDTH 0 0
BBX 7 1 -8 5
BITMAP
AAA4
ENDCHAR
STARTCHAR uni0336
ENCODING 822
SWIDTH 0 0
DWIDTH 0 0
BBX 11 1 -10 5
BITMAP
AAAAA4
ENDCHAR
STARTCHAR uni0337
ENCODING 823
SWIDTH 0 0
DWIDTH 0 0
BBX 5 5 -7 5
BITMAP
0040
0240
1900
A000
4000
ENDCHAR
STARTCHAR uni0338
ENCODING 824
SWIDTH 0 0
DWIDTH 0 0
BBX 9 18 -9 -3
BITMAP
000140
000240
000300
000A00
000C00
001800
002400
007000
009000
00C000
018000
034000
060000
090000
0C0000
280000
300000
600000
ENDCHAR
STARTCHAR uni0339
ENCODING 825
SWIDTH 0 0
DWIDTH 0 0
BBX 3 4 -6 -5
BITMAP
A4
08
08
A4
ENDCHAR
STARTCHAR uni033A
ENCODING 826
SWIDTH 0 0
DWIDTH 0 0
BBX 5 3 -7 -4
BITMAP
4040
8080
EA80
ENDCHAR
STARTCHAR uni033B
ENCODING 827
SWIDTH 0 0
DWIDTH 0 0
BBX 5 4 -7 -5
BITMAP
6B00
5240
5240
6B00
ENDCHAR
STARTCHAR uni033C
ENCODING 828
SWIDTH 0 0
DWIDTH 0 0
BBX 7 3 -8 -4
BITMAP
69A4
0700
0100
ENDCHAR
STARTCHAR uni033D
ENCODING 829
SWIDTH 0 0
DWIDTH 0 0
BBX 4 4 -7 11
BITMAP
51
2A
1D
62
ENDCHAR
STARTCHAR uni033E
ENCODING 830
SWIDTH 0 0
DWIDTH 0 0
BBX 3 7 -6 10
BITMAP
24
60
A0
74
24
24
50
ENDCHAR
STARTCHAR uni033F
ENCODING 831
SWIDTH 0 0
DWIDTH 0 0
BBX 9 3 -9 11
BITMAP
6AAA40
000000
6AAA40
ENDCHAR
STARTCHAR uni0346
ENCODING 838
SWIDTH 0 0
DWIDTH 0 0
BBX 7 3 -8 11
BITMAP
7AB4
A024
6024
ENDCHAR
STARTCHAR uni0347
ENCODING 839
SWIDTH 0 0
DWIDTH 0 0
BBX 7 3 -8 -4
BITMAP
AAA4
0000
AAA4
ENDCHAR
STARTCHAR uni034C
ENCODING 844
SWIDTH 0 0
DWIDTH 0 0
BBX 7 5 -8 11
BITMAP
2A04
42A0
0000
2A54
42E0
ENDCHAR
STARTCHAR uni034D
ENCODING 845
SWIDTH 0 0
DWIDTH 0 0
BBX 10 5 -10 -6
BITMAP
010100
180080
7EAAF0
180080
010100
ENDCHAR
STARTCHAR uni0359
ENCODING 857
SWIDTH 0 0
DWIDTH 0 0
BBX 7 7 -8 -8
BITMAP
0300
0300
6270
1A90
1A90
6274
0300
ENDCHAR
STARTCHAR uni035C
ENCODING 860
SWIDTH 0 0
DWIDTH 0 0
BBX 14 4 -7 -5
BITMAP
40000010
90000060
29000680
06AAA900
ENDCHAR
STARTCHAR uni0360
ENCODING 864
SWIDTH 0 0
DWIDTH 0 0
BBX 10 3 -5 11
BITMAP
2A4010
81A420
401A80
ENDCHAR
STARTCHAR uni0361
ENCODING 865
SWIDTH 0 0
DWIDTH 0 0
BBX 10 3 -5 11
BITMAP
1AAA40
600190
800020
ENDCHAR
STARTCHAR uni0362
ENCODING 866
SWIDTH 0 0
DWIDTH 0 0
BBX 16 5 -8 -6
BITMAP
00000010
00000018
6AAAAABE
00000018
00000010
ENDCHAR
STARTCHAR uni037E
ENCODING 894
SWIDTH 261 0
DWIDTH 5 0
BBX 3 13 1 -3
BITMAP
78
78
00
00
00
00
00
00
64
7C
0C
18
50
ENDCHAR
STARTCHAR tonos
ENCODING 900
SWIDTH 165 0
DWIDTH 3 0
BBX 3 3 0 11
BITMAP
78
70
60
ENDCHAR
STARTCHAR dieresistonos
ENCODING 901
SWIDTH 426 0
DWIDTH 9 0
BBX 8 3 0 11
BITMAP
25D9
75CE
0240
ENDCHAR
STARTCHAR Alphatonos
ENCODING 902
SWIDTH 718 0
DWIDTH 14 0
BBX 15 14 0 0
BITMAP
2C0A0000
280F0000
341F8000
3027C000
0032D000
00A1E000
00D0F400
01C0B800
02807C00
07AABD00
0A002F00
0D000F40
2C000B80
BF403FF4
ENDCHAR
STARTCHAR anoteleia
ENCODING 903
SWIDTH 261 0
DWIDTH 5 0
BBX 3 2 1 8
BITMAP
78
78
ENDCHAR
STARTCHAR Epsilontonos
ENCODING 904
SWIDTH 745 0
DWIDTH 15 0
BBX 16 14 -1 0
BITMAP
38BFFFF8
340F0028
300F0008
600F0004
000F0080
000F0080
000F00C0
000FABC0
000F0080
000F0000
000F0009
000F000C
000F002C
00BFFFFC
ENDCHAR
STARTCHAR Etatonos
ENCODING 905
SWIDTH 896 0
DWIDTH 18 0
BBX 19 14 -1 0
BITMAP
38BFE07FF4
341F000B40
300F000B40
600F000B40
000F000B40
000F000B40
000F000B40
000FAAAF40
000F000B40
000F000B40
000F000B40
000F000B40
000F000B40
00BFE07FE4
ENDCHAR
STARTCHAR Iotatonos
ENCODING 906
SWIDTH 478 0
DWIDTH 10 0
BBX 10 14 -1 0
BITMAP
38BFE0
340F00
300F00
600F00
000F00
000F00
000F00
000F00
000F00
000F00
000F00
000F00
000F00
00BFE0
ENDCHAR
STARTCHAR Omicrontonos
ENCODING 908
SWIDTH 806 0
DWIDTH 16 0
BBX 16 14 -1 0
BITMAP
3806AA40
341E01E0
30780078
60F0002D
01E0001E
01E0000F
02E0000F
02E0000F
01E0000F
01E0001E
00F0002D
00780038
001D00A0
0006AA40
ENDCHAR
STARTCHAR Upsilontonos
ENCODING 910
SWIDTH 787 0
DWIDTH 16 0
BBX 17 14 -1 0
BITMAP
75FF807F80
702E001D00
A00F402400
9007806000
0002D09000
0001F18000
0000BB0000
00003E0000
00002D0000
00002D0000
00002D0000
00002D0000
00002D0000
0001FFD000
ENDCHAR
STARTCHAR Omegatonos
ENCODING 911
SWIDTH 830 0
DWIDTH 17 0
BBX 17 14 -1 0
BITMAP
3802FE8000
341E41F400
3078003C00
60F4002E00
01F0001F00
01E0000F00
01E0000F00
01F0001F00
00F4001E00
0078003C00
012C007440
020A00D180
02EB83EB40
02FF83FF40
ENDCHAR
STARTCHAR iotadieresistonos
ENCODING 912
SWIDTH 259 0
DWIDTH 5 0
BBX 7 15 -1 0
BITMAP
0380
E76C
A728
0600
0000
0B40
0B00
0B00
0A00
0A00
0A00
0A00
0A00
0BA0
03D0
ENDCHAR
STARTCHAR Alpha
ENCODING 913
SWIDTH 718 0
DWIDTH 14 0
BBX 15 14 0 0
BITMAP
000A0000
000F0000
001F8000
0027C000
0032D000
00A1E000
00D0F400
01C0B800
02807C00
07AABD00
0A002F00
0D000F40
2C000B80
BF403FF4
ENDCHAR
STARTCHAR Beta
ENCODING 914
SWIDTH 618 0
DWIDTH 12 0
BBX 12 14 0 0
BITMAP
6FFF90
0780B4
07803C
07803C
078038
0780B4
07EF80
0780B4
07802D
07802E
07801E
07802D
07807C
6FEB90
ENDCHAR
STARTCHAR Gamma
ENCODING 915
SWIDTH 569 0
DWIDTH 11 0
BBX 10 14 1 0
BITMAP
BFFFF0
1D00B0
1D0030
1D0020
1D0000
1D0000
1D0000
1D0000
1D0000
1D0000
1D0000
1E0000
2E0000
FFE000
ENDCHAR
STARTCHAR Delta
ENCODING 916
SWIDTH 667 0
DWIDTH 13 0
BBX 13 14 0 0
BITMAP
000D0000
001E0000
002F0000
00778000
0093C000
00C2D000
0181E000
0340F000
0600B800
09003C00
1C002D00
28001E00
3AAAAF40
7FFFFF80
ENDCHAR
STARTCHAR Epsilon
ENCODING 917
SWIDTH 626 0
DWIDTH 13 0
BBX 12 14 0 0
BITMAP
2FFFFD
07801D
078005
078000
078020
078020
078060
07EBE0
078020
078000
078002
078006
07801E
6FFFFD
ENDCHAR
STARTCHAR Zeta
ENCODING 918
SWIDTH 594 0
DWIDTH 12 0
BBX 12 14 0 0
BITMAP
2FAAFC
2800B8
2001F0
1003D0
000B80
001F00
003D00
00B800
01F000
03D000
0B8005
1F4008
2E001C
7EAAFC
ENDCHAR
STARTCHAR Eta
ENCODING 919
SWIDTH 777 0
DWIDTH 16 0
BBX 15 14 0 0
BITMAP
7FF42FF8
0B8007C0
078003C0
078003C0
078003C0
078003C0
078003C0
07EAABC0
078003C0
078003C0
078003C0
078003C0
0B8003C0
6FF42FF8
ENDCHAR
STARTCHAR Theta
ENCODING 920
SWIDTH 738 0
DWIDTH 15 0
BBX 13 14 1 0
BITMAP
01BF9000
0B81B400
2D002D00
78000F00
B4000B40
F4808B80
F4FF8780
F4EA8780
F4408B80
B4000B40
78000F00
2D002D00
0B40B800
01BF9000
ENDCHAR
STARTCHAR Iota
ENCODING 921
SWIDTH 357 0
DWIDTH 7 0
BBX 7 14 0 0
BITMAP
7FF4
0B80
0740
0740
0740
0740
0740
0740
0740
0740
0740
0740
0B80
7FF4
ENDCHAR
STARTCHAR Kappa
ENCODING 922
SWIDTH 702 0
DWIDTH 14 0
BBX 14 14 0 0
BITMAP
7FF4BFC0
0B802D00
07407400
0741D000
07474000
075D0000
07B40000
07BD0000
075F0000
0747C000
0741F000
07407C00
0B802F40
7FF4BFE0
ENDCHAR
STARTCHAR Lambda
ENCODING 923
SWIDTH 710 0
DWIDTH 14 0
BBX 14 14 0 0
BITMAP
000A0000
000F0000
001F4000
00378000
0062D000
0091E000
00C0F000
0180B400
02407C00
07003D00
0A001E00
0C000F00
2C000F80
FF407FF0
ENDCHAR
STARTCHAR Mu
ENCODING 924
SWIDTH 895 0
DWIDTH 18 0
BBX 17 14 0 0
BITMAP
7FC0003F80
0BD0007D00
0BE000BD00
0AF001ED00
09B402AD00
097C032D00
093D062D00
091E092D00
090F0C2D00
090B682D00
0907F02D00
0902E02D00
0A01D02D00
7FD0C1FF80
ENDCHAR
STARTCHAR Nu
ENCODING 925
SWIDTH 742 0
DWIDTH 15 0
BBX 15 14 0 0
BITMAP
7F401FF4
0FC00380
0BE00280
0AF80240
097D0240
092F0240
090B8240
0903D240
0901F240
0900BA40
09002F40
09000F40
0A000740
7FD00240
ENDCHAR
STARTCHAR Xi
ENCODING 926
SWIDTH 648 0
DWIDTH 13 0
BBX 11 14 1 0
BITMAP
BFFFF8
BAAAB8
900018
400004
080080
080180
0BFF80
0BAB80
080080
000000
800008
C0000C
FAAABC
FFFFF8
ENDCHAR
STARTCHAR Omicron
ENCODING 927
SWIDTH 738 0
DWIDTH 15 0
BBX 13 14 1 0
BITMAP
01AA9000
0B40B800
2D002D00
78000F00
B4000B40
F4000780
F0000780
F0000780
F4000780
B4000B40
78000F00
2D001D00
0B407400
01AA9000
ENDCHAR
STARTCHAR Pi
ENCODING 928
SWIDTH 759 0
DWIDTH 15 0
BBX 15 14 0 0
BITMAP
6FFFFFE4
07800780
07800780
07800780
07800780
07800780
07800780
07800780
07800780
07800780
07800780
07800780
0B800B80
7FF43FF4
ENDCHAR
STARTCHAR Rho
ENCODING 929
SWIDTH 569 0
DWIDTH 11 0
BBX 10 14 1 0
BITMAP
BFFE40
1E07D0
1E01E0
1E00F0
1E00E0
1E01D0
1E0780
1FE900
1E0000
1E0000
1E0000
1E0000
2E0000
BFD000
ENDCHAR
STARTCHAR Sigma
ENCODING 931
SWIDTH 604 0
DWIDTH 12 0
BBX 12 14 0 0
BITMAP
7FFFF8
2E0028
0B8008
03D004
01F000
007800
002C00
002400
00A000
01C000
070005
0D000D
2EAABC
7FFFFC
ENDCHAR
STARTCHAR Tau
ENCODING 932
SWIDTH 603 0
DWIDTH 12 0
BBX 12 14 0 0
BITMAP
BEBEBE
A03C0A
903C02
403C01
003C00
003C00
003C00
003C00
003C00
003C00
003C00
003C00
003C00
02FF80
ENDCHAR
STARTCHAR Upsilon
ENCODING 933
SWIDTH 647 0
DWIDTH 13 0
BBX 13 14 0 0
BITMAP
FFD07FC0
2F000D00
0B401800
03C03000
02E09000
00F4C000
007A4000
002E0000
001D0000
001D0000
001D0000
001D0000
002E0000
01FFD000
ENDCHAR
STARTCHAR Phi
ENCODING 934
SWIDTH 718 0
DWIDTH 14 0
BBX 14 14 0 0
BITMAP
00BFF000
000F4000
000B4000
06EFBE00
1E0B0B80
3C0B02D0
780B01E0
780B01E0
7C0B01E0
3D0B02D0
1F4B0B40
01AFA900
000F4000
00BFF000
ENDCHAR
STARTCHAR Chi
ENCODING 935
SWIDTH 664 0
DWIDTH 13 0
BBX 13 14 0 0
BITMAP
BFE07FC0
0B801D00
07C03400
02E0A000
00F5C000
007A4000
002E0000
002F4000
00678000
00C2D000
0240F400
0A00B800
1D007E00
BF41FFC0
ENDCHAR
STARTCHAR Psi
ENCODING 936
SWIDTH 720 0
DWIDTH 14 0
BBX 15 14 0 0
BITMAP
A4BFF0B4
3C0F41D0
2C0B02C0
2D0B02C0
2D0B02C0
2D0B02C0
2D0B03C0
1E0B0780
078B5E00
01BFE400
000B0000
000B0000
000F4000
00BFF000
ENDCHAR
STARTCHAR Omega
ENCODING 937
SWIDTH 777 0
DWIDTH 16 0
BBX 14 14 1 0
BITMAP
01BF9000
07907D00
1E001F00
3D000B80
7C0007C0
780007C0
780007C0
7C000780
3C000B40
1D000F00
4B001D10
82803450
BAD0FAD0
BFE0FFD0
ENDCHAR
STARTCHAR Iotadieresis
ENCODING 938
SWIDTH 357 0
DWIDTH 7 0
BBX 7 17 0 0
BITMAP
B478
7438
0000
7FF4
0B80
0740
0740
0740
0740
0740
0740
0740
0740
0740
0740
0B80
7FF4
ENDCHAR
STARTCHAR Upsilondieresis
ENCODING 939
SWIDTH 647 0
DWIDTH 13 0
BBX 13 17 0 0
BITMAP
01E0F000
01D0B000
00000000
FFD07FC0
2F000D00
0B401800
03C03000
02E09000
00F4C000
007A4000
002E0000
001D0000
001D0000
001D0000
001D0000
002E0000
01FFD000
ENDCHAR
STARTCHAR alphatonos
ENCODING 940
SWIDTH 561 0
DWIDTH 11 0
BBX 11 15 0 0
BITMAP
003800
003400
003000
006000
000000
06F4B4
1FBCF0
2806D0
300380
600340
600300
600B40
341A80
2EF2E8
0B91E4
ENDCHAR
STARTCHAR epsilontonos
ENCODING 941
SWIDTH 381 0
DWIDTH 8 0
BBX 6 15 1 0
BITMAP
01D0
02C0
0280
0240
0000
1BE0
BEF0
D000
9000
2B40
6600
C000
D010
FAF0
2F90
ENDCHAR
STARTCHAR etatonos
ENCODING 942
SWIDTH 510 0
DWIDTH 10 0
BBX 9 20 0 -5
BITMAP
001D00
002C00
002800
002400
000000
7C2E00
AD7B40
4A8280
0A4180
0B00C0
0A00C0
0A01C0
0E01C0
0E01C0
1D0180
000280
000280
000380
000380
000100
ENDCHAR
STARTCHAR iotatonos
ENCODING 943
SWIDTH 259 0
DWIDTH 5 0
BBX 4 15 1 0
BITMAP
2C
38
34
30
00
B4
B0
B0
A0
A0
A0
A0
A0
BA
3D
ENDCHAR
STARTCHAR upsilondieresistonos
ENCODING 944
SWIDTH 491 0
DWIDTH 10 0
BBX 9 15 0 0
BITMAP
00E000
39DB00
29CA00
018000
000000
7D0900
BD0300
4D0280
0D0280
0C01C0
180280
180380
1C0B40
0FBE00
07F800
ENDCHAR
STARTCHAR alpha
ENCODING 945
SWIDTH 561 0
DWIDTH 11 0
BBX 11 10 0 0
BITMAP
06F4B4
1FBCF0
2806D0
300380
600340
600300
600B40
341A80
2EF2E8
0B91E4
ENDCHAR
STARTCHAR beta
ENCODING 946
SWIDTH 530 0
DWIDTH 11 0
BBX 9 20 1 -5
BITMAP
01BD00
07EF00
0D0340
280240
340200
301900
72F400
614900
600300
A00280
B00180
B00280
B80380
ABAF40
E2F900
E00000
E00000
E00000
E00000
400000
ENDCHAR
STARTCHAR gamma
ENCODING 947
SWIDTH 466 0
DWIDTH 9 0
BBX 9 14 0 -4
BITMAP
7D07C0
AE0B40
470F00
035D00
026C00
027400
01B000
01D000
01C000
028000
038000
038000
078000
074000
ENDCHAR
STARTCHAR delta
ENCODING 948
SWIDTH 479 0
DWIDTH 10 0
BBX 9 15 0 0
BITMAP
06F900
091B40
0A0200
038000
00B400
01BD00
0BAF00
290740
300380
600280
600280
600280
340740
2FBE00
0BE400
ENDCHAR
STARTCHAR epsilon
ENCODING 949
SWIDTH 381 0
DWIDTH 8 0
BBX 6 10 1 0
BITMAP
1BE0
BEF0
D000
9000
2B40
6600
C000
D010
FAF0
2F90
ENDCHAR
STARTCHAR zeta
ENCODING 950
SWIDTH 386 0
DWIDTH 8 0
BBX 9 20 0 -5
BITMAP
024000
070700
035F40
01F900
02D000
074000
0D0000
280000
300000
200000
600000
600000
380000
2FE400
07FD00
001A00
000600
001900
03F400
028000
ENDCHAR
STARTCHAR eta
ENCODING 951
SWIDTH 510 0
DWIDTH 10 0
BBX 9 15 0 -5
BITMAP
7C2E00
AD7B40
4A8280
0A4180
0B00C0
0A00C0
0A01C0
0E01C0
0E01C0
1D0180
000280
000280
000380
000380
000100
ENDCHAR
STARTCHAR theta
ENCODING 952
SWIDTH 514 0
DWIDTH 10 0
BBX 9 15 1 0
BITMAP
07E000
1FBC00
380D00
600600
900300
C00340
C00240
FFFF40
C00240
C00240
900300
A00600
340D00
2FB800
0BE000
ENDCHAR
STARTCHAR iota
ENCODING 953
SWIDTH 259 0
DWIDTH 5 0
BBX 4 10 1 0
BITMAP
B4
B0
B0
A0
A0
A0
A0
A0
BA
3D
ENDCHAR
STARTCHAR kappa
ENCODING 954
SWIDTH 495 0
DWIDTH 10 0
BBX 10 10 0 0
BITMAP
7D01D0
EE0BC0
4A2E00
0A7400
0AD000
0B9000
0B3000
0A2800
0E1FA0
0E0780
ENDCHAR
STARTCHAR lambda
ENCODING 955
SWIDTH 506 0
DWIDTH 10 0
BBX 10 15 0 0
BITMAP
078000
0ED000
10A000
003000
003000
003400
00B400
00E800
029800
035800
0B0C00
0E0D00
2D0E00
3C0BB0
B402D0
ENDCHAR
STARTCHAR mu
ENCODING 956
SWIDTH 552 0
DWIDTH 11 0
BBX 10 15 1 -5
BITMAP
B40B00
B40B00
B00A00
B00A00
A00D00
A00D00
A02D00
B06A00
BED7A0
DB83D0
D00000
D00000
E00000
E00000
400000
ENDCHAR
STARTCHAR nu
ENCODING 957
SWIDTH 453 0
DWIDTH 9 0
BBX 9 11 0 -1
BITMAP
780A00
FE0740
0A0380
070780
070740
030B00
031D00
023800
02A000
03C000
010000
ENDCHAR
STARTCHAR xi
ENCODING 958
SWIDTH 390 0
DWIDTH 8 0
BBX 8 20 0 -4
BITMAP
0100
0C00
1D1A
07F9
0B40
1C00
1800
0968
0AF8
2400
2000
6000
7400
3F90
0BFD
006F
0003
0002
02AC
02E0
ENDCHAR
STARTCHAR omicron
ENCODING 959
SWIDTH 475 0
DWIDTH 10 0
BBX 9 10 0 0
BITMAP
02F800
0FBF00
280740
300180
600180
600180
700180
380740
1FBE00
07F800
ENDCHAR
STARTCHAR pi
ENCODING 960
SWIDTH 591 0
DWIDTH 12 0
BBX 12 10 0 0
BITMAP
1BFFFD
3AEAE8
408180
008180
018240
024240
034340
0B0380
0E02E8
2D01F4
ENDCHAR
STARTCHAR rho
ENCODING 961
SWIDTH 515 0
DWIDTH 10 0
BBX 9 15 1 -5
BITMAP
06F800
1FBE00
280740
700240
600180
A00140
B00240
B80B00
ABBD00
A2E400
A00000
A00000
B00000
B00000
400000
ENDCHAR
STARTCHAR uni03C2
ENCODING 962
SWIDTH 377 0
DWIDTH 8 0
BBX 8 14 0 -4
BITMAP
06F8
1FAC
3400
6000
6000
6000
3800
1F90
07F8
006D
0006
0009
02B8
0290
ENDCHAR
STARTCHAR sigma
ENCODING 963
SWIDTH 545 0
DWIDTH 11 0
BBX 11 10 0 0
BITMAP
02FFFC
0FEBA8
290200
300180
6001C0
6001C0
7001C0
380780
2FBF00
07F800
ENDCHAR
STARTCHAR tau
ENCODING 964
SWIDTH 392 0
DWIDTH 8 0
BBX 8 10 0 0
BITMAP
1FFF
BAEA
4180
0240
0240
0340
0340
0380
03E8
01E0
ENDCHAR
STARTCHAR upsilon
ENCODING 965
SWIDTH 491 0
DWIDTH 10 0
BBX 9 10 0 0
BITMAP
7D0900
BD0300
4D0280
0D0280
0C01C0
180280
180380
1C0B40
0FBE00
07F800
ENDCHAR
STARTCHAR phi
ENCODING 966
SWIDTH 603 0
DWIDTH 12 0
BBX 12 16 0 -5
BITMAP
004000
07C2E0
1F8BB8
281D1C
302809
602409
602409
30340C
283478
0FFFE0
02BE40
003400
003400
007800
007800
001000
ENDCHAR
STARTCHAR chi
ENCODING 967
SWIDTH 462 0
DWIDTH 9 0
BBX 11 14 -1 -4
BITMAP
1E00B8
3B80F0
41C2D0
009780
006A00
003D00
003400
00B400
01E800
038C00
0B0D00
1D0A00
7C07A4
B402E0
ENDCHAR
STARTCHAR psi
ENCODING 968
SWIDTH 620 0
DWIDTH 12 0
BBX 12 20 0 -5
BITMAP
000900
001D00
001D00
001D00
000C00
7D0C20
AE1C18
4D1C0D
0D1C0D
0C1C0D
181C0D
181C1D
0D1C78
0BFFF0
02FE40
001C00
002C00
002C00
002C00
001000
ENDCHAR
STARTCHAR omega
ENCODING 969
SWIDTH 660 0
DWIDTH 13 0
BBX 13 10 0 0
BITMAP
02802400
0F800D00
2D050600
341E0300
601E0340
601D0340
200C0340
341C0B40
1FB7BE00
0BD1F800
ENDCHAR
STARTCHAR iotadieresis
ENCODING 970
SWIDTH 259 0
DWIDTH 5 0
BBX 7 14 -1 0
BITMAP
B478
6024
0000
0000
0B40
0B00
0B00
0A00
0A00
0A00
0A00
0A00
0BA0
03D0
ENDCHAR
STARTCHAR upsilondieresis
ENCODING 971
SWIDTH 491 0
DWIDTH 10 0
BBX 9 14 0 0
BITMAP
2D1E00
180900
000000
000000
7D0900
BD0300
4D0280
0D0280
0C01C0
180280
180380
1C0B40
0FBE00
07F800
ENDCHAR
STARTCHAR omicrontonos
ENCODING 972
SWIDTH 475 0
DWIDTH 10 0
BBX 9 15 0 0
BITMAP
003C00
003800
003000
002000
000000
02F800
0FBF00
280740
300180
600180
600180
700180
380740
1FBE00
07F800
ENDCHAR
STARTCHAR upsilontonos
ENCODING 973
SWIDTH 491 0
DWIDTH 10 0
BBX 9 15 0 0
BITMAP
007400
007000
00A000
009000
000000
7D0900
BD0300
4D0280
0D0280
0C01C0
180280
180380
1C0B40
0FBE00
07F800
ENDCHAR
STARTCHAR omegatonos
ENCODING 974
SWIDTH 660 0
DWIDTH 13 0
BBX 13 15 0 0
BITMAP
000B0000
000A0000
00090000
000C0000
00000000
02802400
0F800D00
2D050600
341E0300
601E0340
601D0340
200C0340
341C0B40
1FB7BE00
0BD1F800
ENDCHAR
STARTCHAR uni03D0
ENCODING 976
SWIDTH 438 0
DWIDTH 9 0
BBX 8 15 1 0
BITMAP
01F4
0BAC
1D09
2405
7908
67F8
91A0
D690
FFF4
F418
A008
B008
780C
2FB8
0BE0
ENDCHAR
STARTCHAR uni03D1
ENCODING 977
SWIDTH 541 0
DWIDTH 11 0
BBX 10 15 0 0
BITMAP
01F800
03EE00
0A0740
080180
0800C0
0500C0
0240A0
00BFF0
191AE0
7F0090
4B0090
0700C0
030280
03EF40
01BD00
ENDCHAR
STARTCHAR uni03D2
ENCODING 978
SWIDTH 616 0
DWIDTH 12 0
BBX 13 14 0 0
BITMAP
2F806E00
42D0DB40
00F24B00
00730000
003A0000
003D0000
003D0000
002C0000
002C0000
002C0000
002C0000
002C0000
003D0000
02FFC000
ENDCHAR
STARTCHAR uni03D5
ENCODING 981
SWIDTH 575 0
DWIDTH 12 0
BBX 11 19 0 -4
BITMAP
002D00
002C00
002C00
002C00
006D00
07FFD0
1E6AF0
382838
302418
603408
603418
303424
2D35B0
0BFFD0
01B900
007000
007000
00B000
00B000
ENDCHAR
STARTCHAR uni03D6
ENCODING 982
SWIDTH 821 0
DWIDTH 16 0
BBX 17 10 0 0
BITMAP
1FFFFFFF40
BAFAAAFA40
4280007000
0300E03400
0601E03400
0601D03400
0300C03400
0341C0B400
01FB7BE000
00BD1F8000
ENDCHAR
STARTCHAR uni03D8
ENCODING 984
SWIDTH 627 0
DWIDTH 13 0
BBX 12 14 0 0
BITMAP
01BF90
0B41B4
2D003D
3C001E
78001E
7C001E
3C001E
2D002D
1E0078
06EAE0
002D00
002C00
002D00
01BF80
ENDCHAR
STARTCHAR uni03D9
ENCODING 985
SWIDTH 475 0
DWIDTH 10 0
BBX 9 15 0 -5
BITMAP
02F800
0FBF00
280740
300180
600180
600180
600180
380740
1FBE00
06F400
00C000
01D000
01D000
01D000
014000
ENDCHAR
STARTCHAR uni03DA
ENCODING 986
SWIDTH 578 0
DWIDTH 12 0
BBX 11 14 0 0
BITMAP
01BFF8
0B41B8
1D0038
3C0018
7C0018
780000
7C0000
3C0000
2E0000
0B9000
01BF40
000B00
000B40
006FE0
ENDCHAR
STARTCHAR uni03DB
ENCODING 987
SWIDTH 490 0
DWIDTH 10 0
BBX 10 14 0 -4
BITMAP
01BFE0
0BEAA0
280000
200000
600000
600000
380000
2F8000
0BF400
006C00
000900
000800
06B400
039000
ENDCHAR
STARTCHAR uni03DC
ENCODING 988
SWIDTH 588 0
DWIDTH 12 0
BBX 12 14 0 0
BITMAP
6FFFFD
0B800D
078005
078000
078020
078060
07EBE0
078060
078020
078000
078000
078000
0B8000
7FF400
ENDCHAR
STARTCHAR uni03DD
ENCODING 989
SWIDTH 386 0
DWIDTH 8 0
BBX 10 15 -2 -5
BITMAP
01FFE0
01EA90
01C000
01C000
01C000
01DA00
01EF40
018000
018000
018000
024000
020000
070000
ED0000
780000
ENDCHAR
STARTCHAR uni03DE
ENCODING 990
SWIDTH 525 0
DWIDTH 11 0
BBX 10 14 0 0
BITMAP
07F800
01D000
024000
070000
090000
180000
3AAAA0
7FFFE0
0000C0
000240
000600
000D00
002C00
01FF00
ENDCHAR
STARTCHAR uni03DF
ENCODING 991
SWIDTH 434 0
DWIDTH 9 0
BBX 10 14 -1 0
BITMAP
2E0000
7F0000
470000
030000
020000
060100
05BF00
0BFA00
0E4500
000900
000C00
000D10
000FD0
000B80
ENDCHAR
STARTCHAR uni03E0
ENCODING 992
SWIDTH 697 0
DWIDTH 14 0
BBX 14 14 0 0
BITMAP
00780000
002D0000
001E0000
000F4000
002F8000
0033D000
00A1E000
01C2F000
0247B800
07093C00
091C2E00
1C241F00
24700F80
70D07FF0
ENDCHAR
STARTCHAR uni03E1
ENCODING 993
SWIDTH 458 0
DWIDTH 9 0
BBX 10 19 -1 -5
BITMAP
780000
3F4000
0BD000
01F000
007800
001D00
01AB00
1FD340
0A0280
0001C0
006EC0
01F4D0
004090
000090
000090
0000C0
0000C0
000180
000100
ENDCHAR
STARTCHAR uni03F0
ENCODING 1008
SWIDTH 504 0
DWIDTH 10 0
BBX 11 10 0 0
BITMAP
2C01F0
AE03D0
060B40
061E00
023C00
02B800
07D800
0B8C00
1F0BB4
3D06E0
ENDCHAR
STARTCHAR uni03F1
ENCODING 1009
SWIDTH 467 0
DWIDTH 9 0
BBX 8 14 1 -4
BITMAP
0BE4
2EBC
6009
9006
9006
E41D
EFF8
A690
7400
2F40
0BD0
0060
1AD0
0E00
ENDCHAR
STARTCHAR uni03F4
ENCODING 1012
SWIDTH 737 0
DWIDTH 15 0
BBX 13 14 1 0
BITMAP
01BF9000
0B41B800
2D002D00
78000F00
B4000B40
F0000780
FFFFFF80
F0000780
F4000B80
B4000B40
78000F00
2D002D00
0B40B400
01BF9000
ENDCHAR
STARTCHAR uni03F5
ENCODING 1013
SWIDTH 380 0
DWIDTH 8 0
BBX 7 10 0 0
BITMAP
06F8
1FBC
2400
2000
7FE0
6000
3000
3808
1FBC
07E4
ENDCHAR
STARTCHAR uni03F6
ENCODING 1014
SWIDTH 382 0
DWIDTH 8 0
BBX 7 10 0 0
BITMAP
6F80
7AF0
0024
0008
1FFC
000C
0018
5038
7EF0
2F80
ENDCHAR
STARTCHAR uni0400
ENCODING 1024
SWIDTH 626 0
DWIDTH 13 0
BBX 12 17 0 0
BITMAP
006400
002C00
000600
2FFFFD
07801D
078005
078000
078020
078020
078060
07EBE0
078020
078000
078002
078006
07801E
6FFFFD
ENDCHAR
STARTCHAR uni0401
ENCODING 1025
SWIDTH 626 0
DWIDTH 13 0
BBX 12 17 0 0
BITMAP
02D1E0
02C1D0
000000
2FFFFD
07801D
078005
078000
078020
078020
078060
07EBE0
078020
078000
078002
078006
07801E
6FFFFD
ENDCHAR
STARTCHAR uni0402
ENCODING 1026
SWIDTH 731 0
DWIDTH 15 0
BBX 14 14 0 0
BITMAP
7EBEBF00
603C0700
903C0300
403C0200
003C0000
003C0000
003EAA40
003D02D0
003C01E0
003C00F0
003C00F0
003C40E0
003CE1D0
02FC7A40
ENDCHAR
STARTCHAR uni0403
ENCODING 1027
SWIDTH 548 0
DWIDTH 11 0
BBX 10 17 1 0
BITMAP
001900
007400
018000
BFFFD0
1E01D0
1E0050
1E0060
1E0000
1E0000
1E0000
1E0000
1E0000
1E0000
1E0000
1E0000
2E0000
FFD000
ENDCHAR
STARTCHAR uni0404
ENCODING 1028
SWIDTH 668 0
DWIDTH 13 0
BBX 12 14 1 0
BITMAP
01AB98
0B407C
2C001C
78000C
B40008
F00000
FAAA40
F00000
F00000
B40000
780000
2C0005
0F4024
01BA90
ENDCHAR
STARTCHAR uni0405
ENCODING 1029
SWIDTH 504 0
DWIDTH 10 0
BBX 10 14 0 0
BITMAP
06BF80
1D0780
380180
3C0080
2E0000
1F9000
07F800
00BF40
001FC0
0003D0
5002D0
7002D0
780380
3FAE00
ENDCHAR
STARTCHAR uni0406
ENCODING 1030
SWIDTH 357 0
DWIDTH 7 0
BBX 7 14 0 0
BITMAP
7FF4
0B80
0740
0740
0740
0740
0740
0740
0740
0740
0740
0740
0B80
7FF4
ENDCHAR
STARTCHAR uni0407
ENCODING 1031
SWIDTH 357 0
DWIDTH 7 0
BBX 7 17 0 0
BITMAP
B478
7438
0000
7FF4
0B80
0740
0740
0740
0740
0740
0740
0740
0740
0740
0740
0B80
7FF4
ENDCHAR
STARTCHAR uni0408
ENCODING 1032
SWIDTH 396 0
DWIDTH 8 0
BBX 8 14 0 0
BITMAP
0BFD
01F0
01E0
01E0
01E0
01E0
01E0
01E0
01E0
01E0
01E0
91E0
F1D0
7E40
ENDCHAR
STARTCHAR uni0409
ENCODING 1033
SWIDTH 924 0
DWIDTH 18 0
BBX 19 14 -1 0
BITMAP
00BFFFE000
00180F0000
00180F0000
00180F0000
00180F0000
00240F0000
00240FAE40
00300F02F0
00300F00B8
00600F007C
00900F0078
10C00F0078
7F800F01F0
2E006FAE40
ENDCHAR
STARTCHAR uni040A
ENCODING 1034
SWIDTH 1013 0
DWIDTH 20 0
BBX 20 14 0 0
BITMAP
7FF42FF800
0B80078000
0780078000
0780078000
0780078000
0780078000
07EAABEF90
07800780B8
078007802D
078007801E
078007801E
078007802D
0B80078078
6FF42FEB90
ENDCHAR
STARTCHAR uni040B
ENCODING 1035
SWIDTH 761 0
DWIDTH 15 0
BBX 15 14 0 0
BITMAP
7EBEBF00
603C0700
903C0300
403C0200
003C0000
003C0000
003DAE40
003D07C0
003C02D0
003C01D0
003C01D0
003C01D0
003C02E0
02FF8BF8
ENDCHAR
STARTCHAR uni040C
ENCODING 1036
SWIDTH 658 0
DWIDTH 13 0
BBX 13 17 1 0
BITMAP
00064000
001E0000
00640000
FFD02E00
2E00BF00
1E00C500
1E014000
1E024000
1E030000
1E090000
1FBC0000
1E1E0000
1E0B8000
1E03D000
1E01E000
2E00B400
BFD07F40
ENDCHAR
STARTCHAR uni040D
ENCODING 1037
SWIDTH 780 0
DWIDTH 16 0
BBX 15 17 0 0
BITMAP
00640000
002D0000
00060000
7FF42FF8
0B8003C0
078003C0
07800BC0
078027C0
078063C0
078183C0
078203C0
078903C0
07A403C0
07E003C0
078003C0
0B8003C0
7FF42FF8
ENDCHAR
STARTCHAR uni040E
ENCODING 1038
SWIDTH 625 0
DWIDTH 13 0
BBX 13 19 0 0
BITMAP
00405000
02D0F000
01C0A000
006A8000
00000000
FFC07F80
2E001D00
0F001800
07802400
03C02000
01E09000
00F0C000
00794000
002F0000
001E0000
000C0000
04180000
1FF00000
0B800000
ENDCHAR
STARTCHAR uni040F
ENCODING 1039
SWIDTH 759 0
DWIDTH 15 0
BBX 15 19 0 -5
BITMAP
7FF43FF4
0B800B80
07800780
07800780
07800780
07800780
07800780
07800780
07800780
07800780
07800780
07800780
07800780
2FEAAFE4
00020000
00034000
00074000
00078000
00074000
ENDCHAR
STARTCHAR uni0410
ENCODING 1040
SWIDTH 718 0
DWIDTH 14 0
BBX 15 14 0 0
BITMAP
000A0000
000F0000
001F8000
0027C000
0032D000
00A1E000
00D0F400
01C0B800
02807C00
07AABD00
0A002F00
0D000F40
2C000B80
BF403FF4
ENDCHAR
STARTCHAR uni0411
ENCODING 1041
SWIDTH 617 0
DWIDTH 12 0
BBX 11 14 1 0
BITMAP
BFFFE0
1E00A0
1E0060
1E0020
1E0000
1E0000
1FBE40
1E06E0
1E00F4
1E00B4
1E00B4
1E00B4
1E02E0
BFAE40
ENDCHAR
STARTCHAR uni0412
ENCODING 1042
SWIDTH 618 0
DWIDTH 12 0
BBX 12 14 0 0
BITMAP
6FFF90
0780B4
07803C
07803C
078038
0780B4
07EF80
0780B4
07802D
07802E
07801E
07802D
07807C
6FEB90
ENDCHAR
STARTCHAR uni0413
ENCODING 1043
SWIDTH 548 0
DWIDTH 11 0
BBX 10 14 1 0
BITMAP
BFFFD0
1E01D0
1E0050
1E0060
1E0000
1E0000
1E0000
1E0000
1E0000
1E0000
1E0000
1E0000
2E0000
FFD000
ENDCHAR
STARTCHAR uni0414
ENCODING 1044
SWIDTH 663 0
DWIDTH 13 0
BBX 13 18 0 -4
BITMAP
06FFFE40
00C07800
00C07800
00C07800
00C07800
01807800
01807800
02407800
03007800
07007800
0A007800
0D007800
28007800
FEAAFE40
E0000740
D0000340
C0000240
80000140
ENDCHAR
STARTCHAR uni0415
ENCODING 1045
SWIDTH 626 0
DWIDTH 13 0
BBX 12 14 0 0
BITMAP
2FFFFD
07801D
078005
078000
078020
078020
078060
07EBE0
078020
078000
078002
078006
07801E
6FFFFD
ENDCHAR
STARTCHAR uni0416
ENCODING 1046
SWIDTH 937 0
DWIDTH 19 0
BBX 19 14 0 0
BITMAP
7D07FF01F0
BF00B407F4
1240B40910
0180B40C00
00C0B40800
0090B41400
0060B42000
002EFEE000
00B4B4B400
01E0B43C00
03C0B41E00
0780B40F40
1F00B407C0
BD07FE02F8
ENDCHAR
STARTCHAR uni0417
ENCODING 1047
SWIDTH 545 0
DWIDTH 11 0
BBX 10 14 1 0
BITMAP
9AB900
B40F40
A00780
800780
800B40
001D00
07F400
001E00
000780
0003C0
0003D0
4003C0
600B40
1AB900
ENDCHAR
STARTCHAR uni0418
ENCODING 1048
SWIDTH 780 0
DWIDTH 16 0
BBX 15 14 0 0
BITMAP
7FF42FF8
0B8003C0
078003C0
07800BC0
078027C0
078063C0
078183C0
078203C0
078903C0
07A403C0
07E003C0
078003C0
0B8003C0
7FF42FF8
ENDCHAR
STARTCHAR uni0419
ENCODING 1049
SWIDTH 780 0
DWIDTH 16 0
BBX 15 18 0 0
BITMAP
00742800
00742C00
00742C00
001AA000
7FF42FF8
0B8003C0
078003C0
07800BC0
078027C0
078063C0
078183C0
078203C0
078903C0
07A403C0
07E003C0
078003C0
0B8003C0
7FF42FF8
ENDCHAR
STARTCHAR uni041A
ENCODING 1050
SWIDTH 658 0
DWIDTH 13 0
BBX 13 14 1 0
BITMAP
FFD02E00
2E00BF00
1E00C500
1E014000
1E024000
1E030000
1E090000
1FBC0000
1E1E0000
1E0B8000
1E03D000
1E01E000
2E00B400
BFD07F40
ENDCHAR
STARTCHAR uni041B
ENCODING 1051
SWIDTH 684 0
DWIDTH 14 0
BBX 14 14 -1 0
BITMAP
00BFFFE0
00180F00
00180F00
00180F00
00180F00
00240F00
00240F00
00300F00
00300F00
00600F00
00900F00
10C00F00
7F800F40
2E00BFE0
ENDCHAR
STARTCHAR uni041C
ENCODING 1052
SWIDTH 895 0
DWIDTH 18 0
BBX 17 14 0 0
BITMAP
7FC0003F80
0BD0007D00
0BE000BD00
0AF001ED00
09B402AD00
097C032D00
093D062D00
091E092D00
090F0C2D00
090B682D00
0907F02D00
0902E02D00
0A01D02D00
7FD0C1FF80
ENDCHAR
STARTCHAR uni041D
ENCODING 1053
SWIDTH 777 0
DWIDTH 16 0
BBX 15 14 0 0
BITMAP
7FF42FF8
0B8007C0
078003C0
078003C0
078003C0
078003C0
078003C0
07EAABC0
078003C0
078003C0
078003C0
078003C0
0B8003C0
6FF42FF8
ENDCHAR
STARTCHAR uni041E
ENCODING 1054
SWIDTH 738 0
DWIDTH 15 0
BBX 13 14 1 0
BITMAP
01AA9000
0B40B800
2D002D00
78000F00
B4000B40
F4000780
F0000780
F0000780
F4000780
B4000B40
78000F00
2D001D00
0B407400
01AA9000
ENDCHAR
STARTCHAR uni041F
ENCODING 1055
SWIDTH 759 0
DWIDTH 15 0
BBX 15 14 0 0
BITMAP
6FFFFFE4
07800780
07800780
07800780
07800780
07800780
07800780
07800780
07800780
07800780
07800780
07800780
0B800B80
7FF43FF4
ENDCHAR
STARTCHAR uni0420
ENCODING 1056
SWIDTH 569 0
DWIDTH 11 0
BBX 10 14 1 0
BITMAP
BFFE40
1E07D0
1E01E0
1E00F0
1E00E0
1E01D0
1E0780
1FE900
1E0000
1E0000
1E0000
1E0000
2E0000
BFD000
ENDCHAR
STARTCHAR uni0421
ENCODING 1057
SWIDTH 670 0
DWIDTH 13 0
BBX 12 14 1 0
BITMAP
01AB99
0B407D
2D001D
78000D
B40009
F40000
F00000
F00000
F40000
B40000
780000
2D0005
0B4018
01BA90
ENDCHAR
STARTCHAR uni0422
ENCODING 1058
SWIDTH 603 0
DWIDTH 12 0
BBX 12 14 0 0
BITMAP
BEBEBE
A03C0A
903C02
403C01
003C00
003C00
003C00
003C00
003C00
003C00
003C00
003C00
003C00
02FF80
ENDCHAR
STARTCHAR uni0423
ENCODING 1059
SWIDTH 625 0
DWIDTH 13 0
BBX 13 14 0 0
BITMAP
FFC07F80
2E001D00
0F001800
07802400
03C02000
01E09000
00F0C000
00794000
002F0000
001E0000
000C0000
04180000
1FF00000
0B800000
ENDCHAR
STARTCHAR uni0424
ENCODING 1060
SWIDTH 725 0
DWIDTH 15 0
BBX 14 14 0 0
BITMAP
007FE000
000B4000
01AFA800
0B4B1F40
2D0B02D0
380B01E0
780B00E0
780B01E0
3C0B01D0
2E0B03C0
0B9B5F40
006FA400
000B4000
007FE000
ENDCHAR
STARTCHAR uni0425
ENCODING 1061
SWIDTH 664 0
DWIDTH 13 0
BBX 13 14 0 0
BITMAP
BFE07FC0
0B801D00
07C03400
02E0A000
00F5C000
007A4000
002E0000
002F4000
00678000
00C2D000
0240F400
0A00B800
1D007E00
BF41FFC0
ENDCHAR
STARTCHAR uni0426
ENCODING 1062
SWIDTH 756 0
DWIDTH 15 0
BBX 15 18 0 -4
BITMAP
7FF47FF4
0B800B80
07800740
07800740
07800740
07800740
07800740
07800740
07800740
07800740
07800740
07800740
07800780
2FEAAFE4
000000B4
00000034
00000024
00000024
ENDCHAR
STARTCHAR uni0427
ENCODING 1063
SWIDTH 650 0
DWIDTH 13 0
BBX 13 14 0 0
BITMAP
BFC7FF40
1E00B800
1E00B400
1E00B400
1E00B400
1E00B400
0F40B400
02EAB400
0000B400
0000B400
0000B400
0000B400
0000B800
0007FF40
ENDCHAR
STARTCHAR uni0428
ENCODING 1064
SWIDTH 1053 0
DWIDTH 21 0
BBX 21 14 0 0
BITMAP
7FF0FFC3FF40
0B802E00B800
07401D007400
07401D007400
07401D007400
07401D007400
07401D007400
07401D007400
07401D007400
07401D007400
07401D007400
07401D007400
07401D007400
2FEABFAAFE00
ENDCHAR
STARTCHAR uni0429
ENCODING 1065
SWIDTH 1044 0
DWIDTH 21 0
BBX 20 18 0 -4
BITMAP
7FF1FFC7FE
0B802D00B4
07402D00B4
07401D00B4
07401D00B4
07401D00B4
07401D00B4
07401D00B4
07401D00B4
07401D00B4
07401D00B4
07401D00B4
07401D00B4
2FEABFAAFE
000000000B
0000000007
0000000003
0000000002
ENDCHAR
STARTCHAR uni042A
ENCODING 1066
SWIDTH 723 0
DWIDTH 14 0
BBX 14 14 0 0
BITMAP
BFFF8000
A02D0000
902C0000
802C0000
002C0000
002C0000
002EB900
002C07C0
002C02E0
002C01E0
002C01E0
002C01E0
003C07C0
01BEBA00
ENDCHAR
STARTCHAR uni042B
ENCODING 1067
SWIDTH 887 0
DWIDTH 18 0
BBX 17 14 0 0
BITMAP
7FF402FF80
0B80003D00
0780002C00
0780002C00
0780002C00
0780002C00
07EE902C00
0781F42C00
07807C2C00
07803C2C00
07803C2C00
0780382C00
0B80B43D00
3FEB82FF80
ENDCHAR
STARTCHAR uni042C
ENCODING 1068
SWIDTH 606 0
DWIDTH 12 0
BBX 12 14 0 0
BITMAP
7FF400
0B8000
078000
078000
078000
078000
07EE90
0781B8
07803D
07802D
07802D
07802D
0780B8
2FEB90
ENDCHAR
STARTCHAR uni042D
ENCODING 1069
SWIDTH 667 0
DWIDTH 13 0
BBX 12 14 1 0
BITMAP
9AAE40
B802D0
A000B4
900078
80003C
00002D
06AABD
00002D
00003C
00003C
000078
8000B0
6402C0
0AA900
ENDCHAR
STARTCHAR uni042E
ENCODING 1070
SWIDTH 1042 0
DWIDTH 21 0
BBX 20 14 0 0
BITMAP
7FF406AA40
0B801E01E0
0740780078
0740F0002D
0741E0001E
0741E0001E
07EBE0001E
0741E0001E
0741E0001E
0740E0001D
0740B0002C
0780780078
0B801D01E0
6FF406AA40
ENDCHAR
STARTCHAR uni042F
ENCODING 1071
SWIDTH 654 0
DWIDTH 13 0
BBX 12 14 0 0
BITMAP
01BEFE
07D078
0B4074
0F0074
0F0074
0B4074
03D074
007FF4
00B474
02E074
03C074
0B8074
1F00B8
FE07FF
ENDCHAR
STARTCHAR uni0430
ENCODING 1072
SWIDTH 480 0
DWIDTH 10 0
BBX 9 10 0 0
BITMAP
06B800
2C1D00
2C0E00
140E00
006E00
0A4E00
2C0E00
780E00
381E00
1F8B80
ENDCHAR
STARTCHAR uni0431
ENCODING 1073
SWIDTH 520 0
DWIDTH 10 0
BBX 10 15 0 0
BITMAP
000090
006BC0
02FE00
0F5000
280000
35AE00
360780
6C02D0
7801E0
7800E0
3800E0
3C01E0
2D01C0
0E0340
02E900
ENDCHAR
STARTCHAR uni0432
ENCODING 1074
SWIDTH 505 0
DWIDTH 10 0
BBX 10 10 0 0
BITMAP
6FBE00
0E0780
0E02C0
0E02C0
0E0740
0FBE00
0E07C0
0E02D0
0E02C0
6FAE40
ENDCHAR
STARTCHAR uni0433
ENCODING 1075
SWIDTH 429 0
DWIDTH 9 0
BBX 8 10 0 0
BITMAP
6FAF
0E03
0E02
0E01
0E00
0E00
0E00
0E00
0F00
7FD0
ENDCHAR
STARTCHAR uni0434
ENCODING 1076
SWIDTH 530 0
DWIDTH 11 0
BBX 10 13 0 -3
BITMAP
0BABE0
020740
020740
020740
020740
060740
090740
0C0740
280780
FEABE0
E000B0
C00030
800020
ENDCHAR
STARTCHAR uni0435
ENCODING 1077
SWIDTH 464 0
DWIDTH 9 0
BBX 9 10 0 0
BITMAP
06B800
1C0E00
340740
3EAB40
740000
740000
3C0040
2E0240
1FFE00
06F800
ENDCHAR
STARTCHAR uni0436
ENCODING 1078
SWIDTH 754 0
DWIDTH 15 0
BBX 15 10 0 0
BITMAP
781FE0B4
BD0741F8
12074210
02074200
01874900
00FFFD00
02C74F00
0B474780
1E0742D0
BC1FE0F8
ENDCHAR
STARTCHAR uni0437
ENCODING 1079
SWIDTH 435 0
DWIDTH 9 0
BBX 8 10 0 0
BITMAP
2AE4
342D
201E
002D
02E0
0028
000E
000F
601D
1AE4
ENDCHAR
STARTCHAR uni0438
ENCODING 1080
SWIDTH 609 0
DWIDTH 12 0
BBX 12 10 0 0
BITMAP
7FC2FD
0E00B4
0E00F0
0E02B0
0E09B0
0E24B0
0E90B0
0F40B0
0E00B4
7FC2FD
ENDCHAR
STARTCHAR uni0439
ENCODING 1081
SWIDTH 609 0
DWIDTH 12 0
BBX 12 15 0 0
BITMAP
014140
0782D0
0341D0
01AA40
000000
7FC2FD
0E00B4
0E00F0
0E02B0
0E09B0
0E24B0
0E90B0
0F40B0
0E00B4
7FC2FD
ENDCHAR
STARTCHAR uni043A
ENCODING 1082
SWIDTH 521 0
DWIDTH 10 0
BBX 11 10 0 0
BITMAP
7FC1E0
0F03F0
0E0510
0E0800
0E1800
0FB800
0E2D00
0E0F00
0E0780
7FC2F4
ENDCHAR
STARTCHAR uni043B
ENCODING 1083
SWIDTH 553 0
DWIDTH 11 0
BBX 11 10 0 0
BITMAP
06EBE4
0082C0
0082C0
0182C0
0142C0
0242C0
0302C0
0602C0
ED02C0
B80FF4
ENDCHAR
STARTCHAR uni043C
ENCODING 1084
SWIDTH 697 0
DWIDTH 14 0
BBX 14 10 0 0
BITMAP
7F001FD0
1F402F00
0BC03B00
0AD06B00
08E0CB00
08B58B00
087A4B00
082E0B00
1C1D0F00
BF083FD0
ENDCHAR
STARTCHAR uni043D
ENCODING 1085
SWIDTH 605 0
DWIDTH 12 0
BBX 12 10 0 0
BITMAP
7FC2FD
0E00B0
0E00B0
0E00B0
0FAAF0
0E00B0
0E00B0
0E00B0
0E00B0
7FC2FD
ENDCHAR
STARTCHAR uni043E
ENCODING 1086
SWIDTH 514 0
DWIDTH 10 0
BBX 10 10 0 0
BITMAP
06E900
1E0780
2C02C0
3801D0
7801E0
7801E0
3801D0
3C02C0
1E0340
06E900
ENDCHAR
STARTCHAR uni043F
ENCODING 1087
SWIDTH 591 0
DWIDTH 12 0
BBX 12 10 0 0
BITMAP
6FAAF8
0E00E0
0E00E0
0E00E0
0E00E0
0E00E0
0E00E0
0E00E0
0E00F0
7FC7FD
ENDCHAR
STARTCHAR uni0440
ENCODING 1088
SWIDTH 537 0
DWIDTH 11 0
BBX 10 15 0 -5
BITMAP
6E6F40
1E97D0
0E01E0
0E00F0
0E00B0
0E00B0
0E00E0
0E01D0
0F4280
0EAA00
0E0000
0E0000
0E0000
1E0000
7FD000
ENDCHAR
STARTCHAR uni0441
ENCODING 1089
SWIDTH 446 0
DWIDTH 9 0
BBX 9 10 0 0
BITMAP
06B900
1D0F00
280700
340000
740000
740000
780000
3D0240
1FFE00
06F800
ENDCHAR
STARTCHAR uni0442
ENCODING 1090
SWIDTH 456 0
DWIDTH 9 0
BBX 9 10 0 0
BITMAP
BFFBC0
91D1C0
81D080
41D040
01D000
01D000
01D000
01D000
01E000
0BF800
ENDCHAR
STARTCHAR uni0443
ENCODING 1091
SWIDTH 483 0
DWIDTH 10 0
BBX 11 15 -1 -5
BITMAP
7FC1F8
0F0060
0B4090
0780C0
02C180
01E240
00F200
007900
003C00
002800
002400
003000
00A000
2EC000
2E4000
ENDCHAR
STARTCHAR uni0444
ENCODING 1092
SWIDTH 710 0
DWIDTH 14 0
BBX 14 19 0 -5
BITMAP
002B0000
000B0000
000B0000
000B0000
07AB6E00
1D1F4380
2C0B02C0
380B01D0
780B01D0
780B01D0
380B01D0
3C0B02C0
1D1F4380
07ABAE00
000B0000
000B0000
000B0000
000F0000
007FD000
ENDCHAR
STARTCHAR uni0445
ENCODING 1093
SWIDTH 479 0
DWIDTH 10 0
BBX 10 10 0 0
BITMAP
BF4FD0
1E0700
0B4800
039400
01E000
01F400
023C00
091E00
280B40
FD1FE0
ENDCHAR
STARTCHAR uni0446
ENCODING 1094
SWIDTH 590 0
DWIDTH 12 0
BBX 12 13 0 -3
BITMAP
7FC7FC
0E00E0
0E00E0
0E00E0
0E00E0
0E00E0
0E00E0
0E00E0
0E00E0
6FABF9
00001D
00000D
000009
ENDCHAR
STARTCHAR uni0447
ENCODING 1095
SWIDTH 535 0
DWIDTH 11 0
BBX 10 10 0 0
BITMAP
BF1FF0
2C0380
2C0380
2C0380
1D0780
0AAB80
000380
000380
000380
001FF0
ENDCHAR
STARTCHAR uni0448
ENCODING 1096
SWIDTH 812 0
DWIDTH 16 0
BBX 16 10 0 0
BITMAP
7F8BF2FD
0E02C074
0E02C074
0E02C074
0E02C074
0E02C074
0E02C074
0E02C074
0E02C074
7FAFFAFD
ENDCHAR
STARTCHAR uni0449
ENCODING 1097
SWIDTH 814 0
DWIDTH 16 0
BBX 16 13 0 -3
BITMAP
7F8BF2FD
0E02C0B4
0E02C070
0E02C070
0E02C070
0E02C070
0E02C070
0E02C070
0E02C0B4
6FAFFAFE
0000000A
00000006
00000002
ENDCHAR
STARTCHAR uni044A
ENCODING 1098
SWIDTH 568 0
DWIDTH 11 0
BBX 11 10 0 0
BITMAP
BAF400
91D000
81D000
41D000
01FA90
01D0B4
01D038
01D038
01D074
07FB90
ENDCHAR
STARTCHAR uni044B
ENCODING 1099
SWIDTH 728 0
DWIDTH 15 0
BBX 14 10 0 0
BITMAP
7FC01FE0
0E000780
0E000380
0E000380
0FB90380
0E078380
0E03C380
0E03C380
0E078780
7FBD1FE0
ENDCHAR
STARTCHAR uni044C
ENCODING 1100
SWIDTH 489 0
DWIDTH 10 0
BBX 10 10 0 0
BITMAP
7FC000
0E0000
0E0000
0E0000
0FBA00
0E0780
0E02D0
0E02D0
0E0780
6FBE00
ENDCHAR
STARTCHAR uni044D
ENCODING 1101
SWIDTH 467 0
DWIDTH 9 0
BBX 8 10 1 0
BITMAP
AA90
D038
801D
001D
0AAE
001E
001D
002C
8078
2AD0
ENDCHAR
STARTCHAR uni044E
ENCODING 1102
SWIDTH 774 0
DWIDTH 15 0
BBX 15 10 0 0
BITMAP
7FC0BB80
0E0280E0
0E074074
0E0B0078
0FAF0038
0E0B0038
0E0B0038
0E074074
0E0280A0
7FC0BA40
ENDCHAR
STARTCHAR uni044F
ENCODING 1103
SWIDTH 518 0
DWIDTH 10 0
BBX 10 10 0 0
BITMAP
06EFE0
1E0740
2C0740
2C0740
1E0740
02FF40
03C740
0B4740
1E0740
BD2FE0
ENDCHAR
STARTCHAR uni0450
ENCODING 1104
SWIDTH 464 0
DWIDTH 9 0
BBX 9 14 0 0
BITMAP
078000
01D000
006000
000000
06B800
1C0E00
340740
3EAB40
740000
740000
3C0040
2E0240
1FFE00
06F800
ENDCHAR
STARTCHAR uni0451
ENCODING 1105
SWIDTH 464 0
DWIDTH 9 0
BBX 9 14 0 0
BITMAP
1E0F00
1E0B00
000000
000000
06B800
1C0E00
340740
3EAB40
740000
740000
3C0040
2E0240
1FFE00
06F800
ENDCHAR
STARTCHAR uni0452
ENCODING 1106
SWIDTH 563 0
DWIDTH 11 0
BBX 10 19 0 -5
BITMAP
6E0000
0E0000
6FA800
0E0000
0E6B40
0F42D0
0E00E0
0E00E0
0E00E0
0E00E0
0E00E0
0E00E0
0E00E0
7FC0E0
0000D0
0000D0
0041C0
01E240
00BD00
ENDCHAR
STARTCHAR uni0453
ENCODING 1107
SWIDTH 429 0
DWIDTH 9 0
BBX 8 14 0 0
BITMAP
00B4
00D0
0240
0000
6FAF
0E03
0E02
0E01
0E00
0E00
0E00
0E00
0F00
7FD0
ENDCHAR
STARTCHAR uni0454
ENCODING 1108
SWIDTH 460 0
DWIDTH 9 0
BBX 9 10 0 0
BITMAP
06BD00
1D0B40
280240
380000
7EA400
780000
780000
3C0000
1E0240
06E900
ENDCHAR
STARTCHAR uni0455
ENCODING 1109
SWIDTH 394 0
DWIDTH 8 0
BBX 8 10 0 0
BITMAP
1AA8
3428
3408
3D00
1F90
02F4
007C
501D
742C
6AA4
ENDCHAR
STARTCHAR uni0456
ENCODING 1110
SWIDTH 285 0
DWIDTH 6 0
BBX 5 14 0 0
BITMAP
0E00
0F00
0000
0000
2E00
1E00
0E00
0E00
0E00
0E00
0E00
0E00
0E00
7FC0
ENDCHAR
STARTCHAR uni0457
ENCODING 1111
SWIDTH 285 0
DWIDTH 6 0
BBX 7 14 -1 0
BITMAP
7474
78B4
0000
0000
0B80
0780
0380
0380
0380
0380
0380
0380
0380
1FF0
ENDCHAR
STARTCHAR uni0458
ENCODING 1112
SWIDTH 263 0
DWIDTH 5 0
BBX 6 19 -2 -5
BITMAP
01E0
01E0
0000
0000
06E0
01E0
00E0
00E0
00E0
00E0
00E0
00E0
00E0
00E0
00E0
00E0
40D0
B1C0
7E40
ENDCHAR
STARTCHAR uni0459
ENCODING 1113
SWIDTH 742 0
DWIDTH 15 0
BBX 15 10 0 0
BITMAP
06EBE000
0082C000
0082C000
0182C000
0142EA80
0242C1E0
0302C0B4
0602C0B4
ED03C0E0
B80BEB80
ENDCHAR
STARTCHAR uni045A
ENCODING 1114
SWIDTH 790 0
DWIDTH 16 0
BBX 16 10 0 0
BITMAP
7FC3FD00
0E00B000
0E00B000
0E00B000
0FAAFBA0
0E00B07C
0E00B02D
0E00B01D
0E00B03C
7FC3FAE0
ENDCHAR
STARTCHAR uni045B
ENCODING 1115
SWIDTH 579 0
DWIDTH 12 0
BBX 11 14 0 0
BITMAP
6E0000
0E0000
6FA800
0E0000
0E6B80
0F41D0
0E00E0
0E00E0
0E00E0
0E00E0
0E00E0
0E00E0
0E00E0
7FC7FC
ENDCHAR
STARTCHAR uni045C
ENCODING 1116
SWIDTH 521 0
DWIDTH 10 0
BBX 11 14 0 0
BITMAP
002C00
007400
009000
000000
7FC1E0
0F03F0
0E0510
0E0800
0E1800
0FB800
0E2D00
0E0F00
0E0780
7FC2F4
ENDCHAR
STARTCHAR uni045D
ENCODING 1117
SWIDTH 609 0
DWIDTH 12 0
BBX 12 14 0 0
BITMAP
01E000
007000
001800
000000
7FC2FD
0E00B4
0E00F0
0E02B0
0E09B0
0E24B0
0E90B0
0F40B0
0E00B4
7FC2FD
ENDCHAR
STARTCHAR uni045E
ENCODING 1118
SWIDTH 483 0
DWIDTH 10 0
BBX 11 19 -1 -5
BITMAP
0281D0
0381E0
0381D0
00AA40
7FC1F8
0F0060
0B4090
0780C0
02C180
01D240
00F200
007600
003C00
002800
002400
003000
006000
2EC000
2E4000
ENDCHAR
STARTCHAR uni045F
ENCODING 1119
SWIDTH 587 0
DWIDTH 12 0
BBX 11 14 0 -4
BITMAP
7FC7FC
0E00E0
0E00E0
0E00E0
0E00E0
0E00E0
0E00E0
0E00E0
0E00E0
6FABF8
002400
003800
003800
003800
ENDCHAR
STARTCHAR uni0462
ENCODING 1122
SWIDTH 727 0
DWIDTH 15 0
BBX 14 15 0 0
BITMAP
02FF8000
007C0000
BEBEAF80
A0380280
90380180
40380040
00380000
003EB900
00380B80
003802D0
003801E0
003801E0
003802D0
00780780
02FEB900
ENDCHAR
STARTCHAR uni0463
ENCODING 1123
SWIDTH 561 0
DWIDTH 11 0
BBX 11 15 0 0
BITMAP
014000
06D000
01D000
01D000
01D000
BBEBC0
91D0C0
81D080
01D000
01FB90
01D0B4
01D038
01D038
01D0B4
07EB90
ENDCHAR
STARTCHAR uni046A
ENCODING 1130
SWIDTH 881 0
DWIDTH 18 0
BBX 19 14 -1 0
BITMAP
00BEAABC00
007C002800
002E007000
000B40D000
0007C28000
0002E30000
0000B90000
000AFE9000
003D38B800
00B4383D00
01F0381E00
02D0380B40
07C07807C0
7F42FF42F8
ENDCHAR
STARTCHAR uni046B
ENCODING 1131
SWIDTH 667 0
DWIDTH 13 0
BBX 15 10 -1 0
BITMAP
02FAAE00
00F00800
00782400
002D6000
000FD000
00BBA800
01D34E00
03C34B40
0B4783C0
6F1BD2E4
ENDCHAR
STARTCHAR uni0472
ENCODING 1138
SWIDTH 737 0
DWIDTH 15 0
BBX 13 14 1 0
BITMAP
01AA9000
0B407800
2D002D00
78000F00
B4000B40
F4000780
F6F90B80
F56FEB80
F0000780
B4000B40
78000B00
2C001D00
0B407400
01AA9000
ENDCHAR
STARTCHAR uni0473
ENCODING 1139
SWIDTH 514 0
DWIDTH 10 0
BBX 10 10 0 0
BITMAP
02E900
1E0780
2C02C0
3801D0
7A91E0
7869E0
3801D0
3C02C0
1E0340
06E900
ENDCHAR
STARTCHAR uni0474
ENCODING 1140
SWIDTH 705 0
DWIDTH 14 0
BBX 15 14 0 0
BITMAP
FFC001F4
2F0007F8
1F000A10
0B400C00
07C01800
03D02400
02E03000
00F0A000
00B4D000
007DC000
003E8000
002F4000
000E0000
00090000
ENDCHAR
STARTCHAR uni0475
ENCODING 1141
SWIDTH 520 0
DWIDTH 10 0
BBX 12 10 -1 0
BITMAP
7F802E
0F007F
0B40C0
078180
02C240
01D300
00E600
00B900
007C00
003400
ENDCHAR
STARTCHAR uni0490
ENCODING 1168
SWIDTH 525 0
DWIDTH 11 0
BBX 10 17 1 0
BITMAP
000050
000090
0001D0
BFFFD0
1E0000
1E0000
1E0000
1E0000
1E0000
1E0000
1E0000
1E0000
1E0000
1E0000
1E0000
2E0000
FFD000
ENDCHAR
STARTCHAR uni0491
ENCODING 1169
SWIDTH 404 0
DWIDTH 8 0
BBX 8 13 0 0
BITMAP
0001
0003
0007
6FAA
0E00
0E00
0E00
0E00
0E00
0E00
0E00
0F00
7FD0
ENDCHAR
STARTCHAR uni1D00
ENCODING 7424
SWIDTH 511 0
DWIDTH 10 0
BBX 12 10 -1 0
BITMAP
002800
003D00
009E00
008B00
018740
0203C0
07ABD0
0901E0
0C00F4
7E02FD
ENDCHAR
STARTCHAR uni1D07
ENCODING 7431
SWIDTH 495 0
DWIDTH 10 0
BBX 9 10 0 0
BITMAP
6FAF80
0E0180
0E0040
0E0200
0E0600
0FAE00
0E0600
0E0040
0E00C0
6FABC0
ENDCHAR
STARTCHAR uni1D1C
ENCODING 7452
SWIDTH 584 0
DWIDTH 12 0
BBX 12 10 0 0
BITMAP
BF81FD
1E0030
1D0030
1D0030
1D0030
1D0030
0D0020
0E0020
0B4090
02EA40
ENDCHAR
STARTCHAR uni1D81
ENCODING 7553
SWIDTH 539 0
DWIDTH 11 0
BBX 11 19 0 -5
BITMAP
000AC0
0003C0
0002C0
0002C0
02ABC0
0D07C0
2803C0
3802C0
7402C0
7402C0
7802C0
3802C0
2D07C0
0BE6E0
000024
000024
000024
000E30
000790
ENDCHAR
STARTCHAR uni1D84
ENCODING 7556
SWIDTH 542 0
DWIDTH 11 0
BBX 11 19 0 -5
BITMAP
6E0000
0E0000
0E0000
0E0000
0E1FF0
0E0740
0E1800
0E6000
0FE000
0EB400
0E2D00
0E0F40
0E03D0
7FCBF8
000008
000008
000008
000714
0002E0
ENDCHAR
STARTCHAR uni1D85
ENCODING 7557
SWIDTH 283 0
DWIDTH 6 0
BBX 6 19 0 -5
BITMAP
6A00
1E00
0E00
0E00
0E00
0E00
0E00
0E00
0E00
0E00
0E00
0E00
0E00
7FC0
0090
0080
0080
3480
2E40
ENDCHAR
STARTCHAR uni1D8A
ENCODING 7562
SWIDTH 395 0
DWIDTH 8 0
BBX 8 15 0 -5
BITMAP
1AA8
3418
3408
3D00
1F90
02F4
007C
501D
702C
6AA8
0008
0008
0008
0714
02E0
ENDCHAR
STARTCHAR uni1D8D
ENCODING 7565
SWIDTH 479 0
DWIDTH 10 0
BBX 10 15 0 -5
BITMAP
BF4FD0
1E0700
0B4800
039400
01E000
01F400
023C00
091E00
280B40
FD1FE0
000060
000060
000050
002C90
001E80
ENDCHAR
STARTCHAR uni1D8E
ENCODING 7566
SWIDTH 458 0
DWIDTH 9 0
BBX 9 15 0 -5
BITMAP
3EAF40
301E00
203C00
00B400
01E000
02D000
078000
0F0140
2D0240
7EAF40
000240
000240
000200
00E200
007900
ENDCHAR
STARTCHAR uni1D98
ENCODING 7576
SWIDTH 368 0
DWIDTH 7 0
BBX 10 20 0 -5
BITMAP
001B80
0071D0
00A040
00E000
00E000
00E000
00E000
00E000
00E000
00E000
00E000
00E000
00E000
B0D000
BE8000
800000
800000
910000
534000
2E0000
ENDCHAR
STARTCHAR uni1D9B
ENCODING 7579
SWIDTH 462 0
DWIDTH 9 0
BBX 9 8 0 5
BITMAP
7DB900
2D5F00
2C0740
2C0380
2C0340
2C0740
2D0A00
2AA400
ENDCHAR
STARTCHAR uni1DA3
ENCODING 7587
SWIDTH 488 0
DWIDTH 10 0
BBX 9 11 0 2
BITMAP
7E1F80
1C0700
1C0700
1C0700
1C0700
1D0700
0E1F00
07E700
000700
000700
000780
ENDCHAR
STARTCHAR uni1E00
ENCODING 7680
SWIDTH 718 0
DWIDTH 14 0
BBX 15 19 0 -5
BITMAP
000A0000
000F0000
001F8000
0027C000
0032D000
00A1E000
00D0F400
01C0B800
02807C00
07AABD00
0A002F00
0D000F40
2C000B80
BF403FF4
00000000
002A0000
00618000
00618000
002A0000
ENDCHAR
STARTCHAR uni1E01
ENCODING 7681
SWIDTH 480 0
DWIDTH 10 0
BBX 9 15 0 -5
BITMAP
06B800
2C1D00
2C0E00
140E00
006E00
0A4E00
2C0E00
780E00
381E00
1F8B80
000000
02A000
061800
061800
02A000
ENDCHAR
STARTCHAR uni1E02
ENCODING 7682
SWIDTH 618 0
DWIDTH 12 0
BBX 12 17 0 0
BITMAP
003C00
003800
000000
6FFF90
0780B4
07803C
07803C
078038
0780B4
07EF80
0780B4
07802D
07802E
07801E
07802D
07807C
6FEB90
ENDCHAR
STARTCHAR uni1E03
ENCODING 7683
SWIDTH 522 0
DWIDTH 10 0
BBX 10 18 0 0
BITMAP
00F000
00B000
000000
000000
6D0000
2D0000
1D0000
1D0000
1D7E00
1E57C0
1D02D0
1D01E0
1D00E0
1D00E0
1D01D0
1D01C0
1E0740
0BE900
ENDCHAR
STARTCHAR uni1E04
ENCODING 7684
SWIDTH 618 0
DWIDTH 12 0
BBX 12 18 0 -4
BITMAP
6FFF90
0780B4
07803C
07803C
078038
0780B4
07EF80
0780B4
07802D
07802E
07801E
07802D
07807C
6FEB90
000000
000000
003C00
003800
ENDCHAR
STARTCHAR uni1E05
ENCODING 7685
SWIDTH 522 0
DWIDTH 10 0
BBX 10 18 0 -4
BITMAP
6D0000
2D0000
1D0000
1D0000
1D7E00
1E57C0
1D02D0
1D01E0
1D00E0
1D00E0
1D01D0
1D01C0
1E0740
0BE900
000000
000000
00F000
00B000
ENDCHAR
STARTCHAR uni1E06
ENCODING 7686
SWIDTH 618 0
DWIDTH 12 0
BBX 12 17 0 -3
BITMAP
6FFF90
0780B4
07803C
07803C
078038
0780B4
07EF80
0780B4
07802D
07802E
07801E
07802D
07807C
6FEB90
000000
000000
02AA80
ENDCHAR
STARTCHAR uni1E07
ENCODING 7687
SWIDTH 522 0
DWIDTH 10 0
BBX 10 17 0 -3
BITMAP
6D0000
2D0000
1D0000
1D0000
1D7E00
1E57C0
1D02D0
1D01E0
1D00E0
1D00E0
1D01D0
1D01C0
1E0740
0BE900
000000
000000
0AAA00
ENDCHAR
STARTCHAR uni1E08
ENCODING 7688
SWIDTH 670 0
DWIDTH 13 0
BBX 12 22 1 -5
BITMAP
000640
001E00
002400
01AB99
0B407D
2D001D
78000D
B40009
F40000
F00000
F00000
F40000
B40000
780000
2D0005
0B4018
01BA90
002000
002900
000700
000700
006900
ENDCHAR
STARTCHAR uni1E09
ENCODING 7689
SWIDTH 446 0
DWIDTH 9 0
BBX 9 19 0 -5
BITMAP
003800
00B000
008000
000000
06B900
1D0F00
280B00
340000
740000
740000
780000
3C0140
1E5600
07F800
008000
008000
00A400
001800
01B400
ENDCHAR
STARTCHAR uni1E0A
ENCODING 7690
SWIDTH 730 0
DWIDTH 15 0
BBX 14 17 0 0
BITMAP
000F0000
000E0000
00000000
6FFF9000
07807D00
07800F40
078007C0
078003D0
078002D0
078002E0
078002E0
078002D0
078002D0
078003C0
07800B40
07806D00
6FEB9000
ENDCHAR
STARTCHAR uni1E0B
ENCODING 7691
SWIDTH 539 0
DWIDTH 11 0
BBX 10 18 0 0
BITMAP
00B400
007400
000000
000000
000AC0
0003C0
0002C0
0002C0
02ABC0
0D07C0
2803C0
3802C0
7402C0
7402C0
7802C0
3802C0
2D07C0
0BE6D0
ENDCHAR
STARTCHAR uni1E0C
ENCODING 7692
SWIDTH 730 0
DWIDTH 15 0
BBX 14 18 0 -4
BITMAP
6FFF9000
07807D00
07800F40
078007C0
078003D0
078002D0
078002E0
078002E0
078002D0
078002D0
078003C0
07800B40
07806D00
6FEB9000
00000000
00000000
002D0000
001D0000
ENDCHAR
STARTCHAR uni1E0D
ENCODING 7693
SWIDTH 539 0
DWIDTH 11 0
BBX 10 18 0 -4
BITMAP
000AC0
0003C0
0002C0
0002C0
02ABC0
0D07C0
2803C0
3802C0
7402C0
7402C0
7802C0
3802C0
2D07C0
0BE6D0
000000
000000
00B400
007400
ENDCHAR
STARTCHAR uni1E0E
ENCODING 7694
SWIDTH 730 0
DWIDTH 15 0
BBX 14 17 0 -3
BITMAP
6FFF9000
07807D00
07800F40
078007C0
078003D0
078002D0
078002E0
078002E0
078002D0
078002D0
078003C0
07800B40
07806D00
6FEB9000
00000000
00000000
01AA9000
ENDCHAR
STARTCHAR uni1E0F
ENCODING 7695
SWIDTH 539 0
DWIDTH 11 0
BBX 10 17 0 -3
BITMAP
000AC0
0003C0
0002C0
0002C0
02ABC0
0D07C0
2803C0
3802C0
7402C0
7402C0
7802C0
3802C0
2D07C0
0BE6D0
000000
000000
06AA40
ENDCHAR
STARTCHAR uni1E10
ENCODING 7696
SWIDTH 730 0
DWIDTH 15 0
BBX 14 20 0 -6
BITMAP
6FFF9000
07807D00
07800F40
078007C0
078003D0
078002D0
078002E0
078002E0
078002D0
078002D0
078003C0
07800B40
07806D00
6FEB9000
00000000
002E0000
002E0000
00060000
00180000
00100000
ENDCHAR
STARTCHAR uni1E11
ENCODING 7697
SWIDTH 539 0
DWIDTH 11 0
BBX 10 20 0 -6
BITMAP
000AC0
0003C0
0002C0
0002C0
02ABC0
0D07C0
2803C0
3802C0
7402C0
7402C0
7802C0
3802C0
2D07C0
0BE6D0
000000
00B400
00B800
001800
006000
004000
ENDCHAR
STARTCHAR uni1E12
ENCODING 7698
SWIDTH 730 0
DWIDTH 15 0
BBX 14 18 0 -4
BITMAP
6FFF9000
07807D00
07800F40
078007C0
078003D0
078002D0
078002E0
078002E0
078002D0
078002D0
078003C0
07800B40
07806D00
6FEB9000
00000000
002D0000
00774000
00808000
ENDCHAR
STARTCHAR uni1E13
ENCODING 7699
SWIDTH 539 0
DWIDTH 11 0
BBX 10 18 0 -4
BITMAP
000AC0
0003C0
0002C0
0002C0
02ABC0
0D07C0
2803C0
3802C0
7402C0
7402C0
7802C0
3802C0
2D07C0
0BE6D0
000000
00B400
01DC00
020600
ENDCHAR
STARTCHAR uni1E14
ENCODING 7700
SWIDTH 626 0
DWIDTH 13 0
BBX 12 19 0 0
BITMAP
006400
002C00
000600
01AA90
000000
2FFFFD
07801D
078005
078000
078020
078020
078060
07EBE0
078020
078000
078002
078006
07801E
6FFFFD
ENDCHAR
STARTCHAR uni1E15
ENCODING 7701
SWIDTH 464 0
DWIDTH 9 0
BBX 9 17 0 0
BITMAP
078000
01D000
006000
000000
0AAA00
000000
000000
06B800
1C0E00
340740
3EAB40
740000
740000
3C0040
2E0240
1FFE00
06F800
ENDCHAR
STARTCHAR uni1E16
ENCODING 7702
SWIDTH 626 0
DWIDTH 13 0
BBX 12 19 0 0
BITMAP
000640
001E00
002400
01AA90
000000
2FFFFD
07801D
078005
078000
078020
078020
078060
07EBE0
078020
078000
078002
078006
07801E
6FFFFD
ENDCHAR
STARTCHAR uni1E17
ENCODING 7703
SWIDTH 464 0
DWIDTH 9 0
BBX 9 17 0 0
BITMAP
003800
00B000
00C000
000000
0AAA00
000000
000000
06B800
1C0E00
340740
3EAB40
740000
740000
3C0040
2E0240
1FFE00
06F800
ENDCHAR
STARTCHAR uni1E18
ENCODING 7704
SWIDTH 626 0
DWIDTH 13 0
BBX 12 18 0 -4
BITMAP
2FFFFD
07801D
078005
078000
078020
078020
078060
07EBE0
078020
078000
078002
078006
07801E
6FFFFD
000000
002D00
007740
008180
ENDCHAR
STARTCHAR uni1E19
ENCODING 7705
SWIDTH 464 0
DWIDTH 9 0
BBX 9 14 0 -4
BITMAP
06B800
1C0E00
340740
3EAB40
740000
740000
3C0040
2E0240
1FFE00
06F800
000000
01E000
036800
090900
ENDCHAR
STARTCHAR uni1E1A
ENCODING 7706
SWIDTH 626 0
DWIDTH 13 0
BBX 12 17 0 -3
BITMAP
2FFFFD
07801D
078005
078000
078020
078020
078060
07EBE0
078020
078000
078002
078006
07801E
6FFFFD
000000
01A950
020B80
ENDCHAR
STARTCHAR uni1E1B
ENCODING 7707
SWIDTH 464 0
DWIDTH 9 0
BBX 9 13 0 -3
BITMAP
06B800
1C0E00
340740
3EAB40
740000
740000
3C0040
2E0240
1FFE00
06F800
000000
0A9600
146900
ENDCHAR
STARTCHAR uni1E1C
ENCODING 7708
SWIDTH 626 0
DWIDTH 13 0
BBX 12 23 0 -5
BITMAP
014050
008080
006A00
000000
2FFFFD
07801D
078005
078000
078020
078020
078060
07EBE0
078020
078000
078002
078006
07801E
6FFFFD
001400
001A00
000340
000340
002A00
ENDCHAR
STARTCHAR uni1E1D
ENCODING 7709
SWIDTH 464 0
DWIDTH 9 0
BBX 9 19 0 -5
BITMAP
080200
090900
02A400
000000
06B800
1C0E00
340740
3EAB40
740000
740000
3C0040
2E0240
1FFE00
06F800
008000
00A400
002800
002800
02A000
ENDCHAR
STARTCHAR uni1E1E
ENCODING 7710
SWIDTH 588 0
DWIDTH 12 0
BBX 12 17 0 0
BITMAP
001D00
001D00
000000
6FFFFD
0B800D
078005
078000
078020
078060
07EBE0
078060
078020
078000
078000
078000
0B8000
7FF400
ENDCHAR
STARTCHAR uni1E1F
ENCODING 7711
SWIDTH 307 0
DWIDTH 6 0
BBX 8 18 0 0
BITMAP
0F00
0A00
0000
01B8
071D
0A04
0E00
0E00
6FA0
0E00
0E00
0E00
0E00
0E00
0E00
0E00
0F00
BFE0
ENDCHAR
STARTCHAR uni1E20
ENCODING 7712
SWIDTH 720 0
DWIDTH 14 0
BBX 13 16 1 0
BITMAP
01AA9000
00000000
01AB9900
0B407D00
2D001D00
78000D00
B4000900
F0000000
F0000000
F001FF80
F4002E00
B4001D00
78001D00
3D001D00
0F407D00
01BAA000
ENDCHAR
STARTCHAR uni1E21
ENCODING 7713
SWIDTH 484 0
DWIDTH 10 0
BBX 10 18 0 -5
BITMAP
0AAA00
000000
000000
06BF90
1D1F00
3C0B40
380B40
2C0B00
0D0E00
0AA400
280000
3FEA00
1FFFC0
2401D0
700090
B00080
780240
1FA400
ENDCHAR
STARTCHAR uni1E22
ENCODING 7714
SWIDTH 777 0
DWIDTH 16 0
BBX 15 17 0 0
BITMAP
00078000
00038000
00000000
7FF42FF8
0B8007C0
078003C0
078003C0
078003C0
078003C0
078003C0
07EAABC0
078003C0
078003C0
078003C0
078003C0
0B8003C0
6FF42FF8
ENDCHAR
STARTCHAR uni1E23
ENCODING 7715
SWIDTH 577 0
DWIDTH 12 0
BBX 11 18 0 0
BITMAP
003C00
003800
000000
000000
6E0000
1E0000
0E0000
0E0000
0E6B40
0F42D0
0E00E0
0E00E0
0E00E0
0E00E0
0E00E0
0E00E0
0E00E0
7FC7FC
ENDCHAR
STARTCHAR uni1E24
ENCODING 7716
SWIDTH 777 0
DWIDTH 16 0
BBX 15 18 0 -4
BITMAP
7FF42FF8
0B8007C0
078003C0
078003C0
078003C0
078003C0
078003C0
07EAABC0
078003C0
078003C0
078003C0
078003C0
0B8003C0
6FF42FF8
00000000
00000000
00078000
00038000
ENDCHAR
STARTCHAR uni1E25
ENCODING 7717
SWIDTH 577 0
DWIDTH 12 0
BBX 11 18 0 -4
BITMAP
6E0000
1E0000
0E0000
0E0000
0E6B40
0F42D0
0E00E0
0E00E0
0E00E0
0E00E0
0E00E0
0E00E0
0E00E0
7FC7FC
000000
000000
003C00
003800
ENDCHAR
STARTCHAR uni1E26
ENCODING 7718
SWIDTH 777 0
DWIDTH 16 0
BBX 15 17 0 0
BITMAP
00783C00
00742C00
00000000
7FF42FF8
0B8007C0
078003C0
078003C0
078003C0
078003C0
078003C0
07EAABC0
078003C0
078003C0
078003C0
078003C0
0B8003C0
6FF42FF8
ENDCHAR
STARTCHAR uni1E27
ENCODING 7719
SWIDTH 577 0
DWIDTH 12 0
BBX 11 18 0 0
BITMAP
0783C0
0782C0
000000
000000
6E0000
1E0000
0E0000
0E0000
0E6B40
0F42D0
0E00E0
0E00E0
0E00E0
0E00E0
0E00E0
0E00E0
0E00E0
7FC7FC
ENDCHAR
STARTCHAR uni1E28
ENCODING 7720
SWIDTH 777 0
DWIDTH 16 0
BBX 15 19 0 -5
BITMAP
7FF42FF8
0B8007C0
078003C0
078003C0
078003C0
078003C0
078003C0
07EAABC0
078003C0
078003C0
078003C0
078003C0
0B8003C0
6FF42FF8
01000000
06800000
00900000
00900000
0A800000
ENDCHAR
STARTCHAR uni1E29
ENCODING 7721
SWIDTH 577 0
DWIDTH 12 0
BBX 11 19 0 -5
BITMAP
6E0000
1E0000
0E0000
0E0000
0E6B40
0F42D0
0E00E0
0E00E0
0E00E0
0E00E0
0E00E0
0E00E0
0E00E0
7FC7FC
080000
0A4000
028000
028000
2A0000
ENDCHAR
STARTCHAR uni1E2A
ENCODING 7722
SWIDTH 777 0
DWIDTH 16 0
BBX 15 18 0 -4
BITMAP
7FF42FF8
0B8007C0
078003C0
078003C0
078003C0
078003C0
078003C0
07EAABC0
078003C0
078003C0
078003C0
078003C0
0B8003C0
6FF42FF8
00000000
00200800
00242400
000A9000
ENDCHAR
STARTCHAR uni1E2B
ENCODING 7723
SWIDTH 577 0
DWIDTH 12 0
BBX 11 18 0 -4
BITMAP
6E0000
1E0000
0E0000
0E0000
0E6B40
0F42D0
0E00E0
0E00E0
0E00E0
0E00E0
0E00E0
0E00E0
0E00E0
7FC7FC
000000
020080
024240
00A900
ENDCHAR
STARTCHAR uni1E2C
ENCODING 7724
SWIDTH 357 0
DWIDTH 7 0
BBX 7 17 0 -3
BITMAP
7FF4
0B80
0740
0740
0740
0740
0740
0740
0740
0740
0740
0740
0B80
7FF4
0000
2A54
42E0
ENDCHAR
STARTCHAR uni1E2D
ENCODING 7725
SWIDTH 285 0
DWIDTH 6 0
BBX 7 17 -1 -3
BITMAP
0380
03C0
0000
0000
0B80
0780
0380
0380
0380
0380
0380
0380
0380
1FF0
0000
2A58
51A4
ENDCHAR
STARTCHAR uni1E2E
ENCODING 7726
SWIDTH 357 0
DWIDTH 7 0
BBX 7 20 0 0
BITMAP
0190
0380
0900
B478
7438
0000
7FF4
0B80
0740
0740
0740
0740
0740
0740
0740
0740
0740
0740
0B80
7FF4
ENDCHAR
STARTCHAR uni1E2F
ENCODING 7727
SWIDTH 285 0
DWIDTH 6 0
BBX 7 17 -1 0
BITMAP
01D0
0380
0600
7474
78B4
0000
0000
0B80
0780
0380
0380
0380
0380
0380
0380
0380
1FF0
ENDCHAR
STARTCHAR uni1E30
ENCODING 7728
SWIDTH 702 0
DWIDTH 14 0
BBX 14 17 0 0
BITMAP
00018000
000B4000
00180000
7FF4BFC0
0B802D00
07407400
0741D000
07474000
075D0000
07B40000
07BD0000
075F0000
0747C000
0741F000
07407C00
0B802F40
7FF4BFE0
ENDCHAR
STARTCHAR uni1E31
ENCODING 7729
SWIDTH 542 0
DWIDTH 11 0
BBX 11 18 0 0
BITMAP
001900
007800
009000
000000
6E0000
0E0000
0E0000
0E0000
0E1FF0
0E0740
0E1800
0E6000
0FE000
0EB400
0E2D00
0E0F40
0E03D0
7FCBF8
ENDCHAR
STARTCHAR uni1E32
ENCODING 7730
SWIDTH 702 0
DWIDTH 14 0
BBX 14 18 0 -4
BITMAP
7FF4BFC0
0B802D00
07407400
0741D000
07474000
075D0000
07B40000
07BD0000
075F0000
0747C000
0741F000
07407C00
0B802F40
7FF4BFE0
00000000
00000000
000F0000
000B0000
ENDCHAR
STARTCHAR uni1E33
ENCODING 7731
SWIDTH 542 0
DWIDTH 11 0
BBX 11 18 0 -4
BITMAP
6E0000
0E0000
0E0000
0E0000
0E1FF0
0E0740
0E1800
0E6000
0FE000
0EB400
0E2D00
0E0F40
0E03D0
7FCBF8
000000
000000
00B400
007400
ENDCHAR
STARTCHAR uni1E34
ENCODING 7732
SWIDTH 702 0
DWIDTH 14 0
BBX 14 17 0 -3
BITMAP
7FF4BFC0
0B802D00
07407400
0741D000
07474000
075D0000
07B40000
07BD0000
075F0000
0747C000
0741F000
07407C00
0B802F40
7FF4BFE0
00000000
00000000
00AAA000
ENDCHAR
STARTCHAR uni1E35
ENCODING 7733
SWIDTH 542 0
DWIDTH 11 0
BBX 11 17 0 -3
BITMAP
6E0000
0E0000
0E0000
0E0000
0E1FF0
0E0740
0E1800
0E6000
0FE000
0EB400
0E2D00
0E0F40
0E03D0
7FCBF8
000000
000000
06AA40
ENDCHAR
STARTCHAR uni1E36
ENCODING 7734
SWIDTH 585 0
DWIDTH 12 0
BBX 11 18 1 -4
BITMAP
FFD000
2E0000
1E0000
1E0000
1E0000
1E0000
1E0000
1E0000
1E0000
1E0000
1E0014
1E0030
1E00B0
BFABF0
000000
000000
01E000
00E000
ENDCHAR
STARTCHAR uni1E37
ENCODING 7735
SWIDTH 283 0
DWIDTH 6 0
BBX 5 18 0 -4
BITMAP
6A00
1E00
0E00
0E00
0E00
0E00
0E00
0E00
0E00
0E00
0E00
0E00
0E00
7FC0
0000
0000
1E00
0E00
ENDCHAR
STARTCHAR uni1E38
ENCODING 7736
SWIDTH 585 0
DWIDTH 12 0
BBX 12 20 0 -4
BITMAP
6AA400
000000
3FF400
0B8000
078000
078000
078000
078000
078000
078000
078000
078000
078005
07800C
07802C
2FEAFC
000000
000000
007800
003800
ENDCHAR
STARTCHAR uni1E39
ENCODING 7737
SWIDTH 283 0
DWIDTH 6 0
BBX 6 21 0 -4
BITMAP
AAA0
0000
0000
6A00
1E00
0E00
0E00
0E00
0E00
0E00
0E00
0E00
0E00
0E00
0E00
0E00
7FC0
0000
0000
1E00
0E00
ENDCHAR
STARTCHAR uni1E3A
ENCODING 7738
SWIDTH 585 0
DWIDTH 12 0
BBX 11 17 1 -3
BITMAP
FFD000
2E0000
1E0000
1E0000
1E0000
1E0000
1E0000
1E0000
1E0000
1E0000
1E0014
1E0030
1E00B0
BFABF0
000000
000000
0AAA00
ENDCHAR
STARTCHAR uni1E3B
ENCODING 7739
SWIDTH 283 0
DWIDTH 6 0
BBX 6 17 0 -3
BITMAP
6A00
1E00
0E00
0E00
0E00
0E00
0E00
0E00
0E00
0E00
0E00
0E00
0E00
7FC0
0000
0000
AAA0
ENDCHAR
STARTCHAR uni1E3C
ENCODING 7740
SWIDTH 585 0
DWIDTH 12 0
BBX 11 18 1 -4
BITMAP
FFD000
2E0000
1E0000
1E0000
1E0000
1E0000
1E0000
1E0000
1E0000
1E0000
1E0014
1E0030
1E00B0
BFABF0
000000
01E000
036800
090900
ENDCHAR
STARTCHAR uni1E3D
ENCODING 7741
SWIDTH 283 0
DWIDTH 6 0
BBX 6 18 0 -4
BITMAP
6A00
1E00
0E00
0E00
0E00
0E00
0E00
0E00
0E00
0E00
0E00
0E00
0E00
7FC0
0000
1E00
3680
9090
ENDCHAR
STARTCHAR uni1E3E
ENCODING 7742
SWIDTH 895 0
DWIDTH 18 0
BBX 17 17 0 0
BITMAP
0000240000
0000E40000
0002400000
7FC0003F80
0BD0007D00
0BE000BD00
0AF001ED00
09B402AD00
097C032D00
093D062D00
091E092D00
090F0C2D00
090B682D00
0907F02D00
0902E02D00
0A01D02D00
7FD0C1FF80
ENDCHAR
STARTCHAR uni1E3F
ENCODING 7743
SWIDTH 852 0
DWIDTH 17 0
BBX 17 14 0 0
BITMAP
0000780000
0000A00000
0001800000
0000000000
2E2B46E400
0F82E43C00
0E01E02C00
0E01D02C00
0E01D02C00
0E01D02C00
0E01D02C00
0E01D02C00
0E01E02D00
7FCBF8BF40
ENDCHAR
STARTCHAR uni1E40
ENCODING 7744
SWIDTH 895 0
DWIDTH 18 0
BBX 17 17 0 0
BITMAP
0001E00000
0001E00000
0000000000
7FC0003F80
0BD0007D00
0BE000BD00
0AF001ED00
09B402AD00
097C032D00
093D062D00
091E092D00
090F0C2D00
090B682D00
0907F02D00
0902E02D00
0A01D02D00
7FD0C1FF80
ENDCHAR
STARTCHAR uni1E41
ENCODING 7745
SWIDTH 852 0
DWIDTH 17 0
BBX 17 14 0 0
BITMAP
0001E00000
0001D00000
0000000000
0000000000
2E2B46E400
0F82E43C00
0E01E02C00
0E01D02C00
0E01D02C00
0E01D02C00
0E01D02C00
0E01D02C00
0E01E02D00
7FCBF8BF40
ENDCHAR
STARTCHAR uni1E42
ENCODING 7746
SWIDTH 895 0
DWIDTH 18 0
BBX 17 18 0 -4
BITMAP
7FC0003F80
0BD0007D00
0BE000BD00
0AF001ED00
09B402AD00
097C032D00
093D062D00
091E092D00
090F0C2D00
090B682D00
0907F02D00
0902E02D00
0A01D02D00
7FD0C1FF80
0000000000
0000000000
0002D00000
0001D00000
ENDCHAR
STARTCHAR uni1E43
ENCODING 7747
SWIDTH 852 0
DWIDTH 17 0
BBX 17 14 0 -4
BITMAP
2E2B46E400
0F82E43C00
0E01E02C00
0E01D02C00
0E01D02C00
0E01D02C00
0E01D02C00
0E01D02C00
0E01E02D00
7FCBF8BF40
0000000000
0000000000
0001E00000
0001D00000
ENDCHAR
STARTCHAR uni1E44
ENCODING 7748
SWIDTH 742 0
DWIDTH 15 0
BBX 15 17 0 0
BITMAP
00078000
00074000
00000000
7F401FF4
0FC00380
0BE00280
0AF80240
097D0240
092F0240
090B8240
0903D240
0901F240
0900BA40
09002F40
09000F40
0A000740
7FD00240
ENDCHAR
STARTCHAR uni1E45
ENCODING 7749
SWIDTH 576 0
DWIDTH 12 0
BBX 11 14 0 0
BITMAP
003C00
002C00
000000
000000
2E6B40
0F42D0
0E00E0
0E00E0
0E00E0
0E00E0
0E00E0
0E00E0
0E01E0
7FD7FC
ENDCHAR
STARTCHAR uni1E46
ENCODING 7750
SWIDTH 742 0
DWIDTH 15 0
BBX 15 18 0 -4
BITMAP
7F401FF4
0FC00380
0BE00280
0AF80240
097D0240
092F0240
090B8240
0903D240
0901F240
0900BA40
09002F40
09000F40
0A000740
7FD00240
00000000
00000000
000F0000
000B0000
ENDCHAR
STARTCHAR uni1E47
ENCODING 7751
SWIDTH 576 0
DWIDTH 12 0
BBX 11 14 0 -4
BITMAP
2E6B40
0F42D0
0E00E0
0E00E0
0E00E0
0E00E0
0E00E0
0E00E0
0E01E0
7FD7FC
000000
000000
007800
003800
ENDCHAR
STARTCHAR uni1E48
ENCODING 7752
SWIDTH 742 0
DWIDTH 15 0
BBX 15 17 0 -3
BITMAP
7F401FF4
0FC00380
0BE00280
0AF80240
097D0240
092F0240
090B8240
0903D240
0901F240
0900BA40
09002F40
09000F40
0A000740
7FD00240
00000000
00000000
00AAA000
ENDCHAR
STARTCHAR uni1E49
ENCODING 7753
SWIDTH 576 0
DWIDTH 12 0
BBX 11 13 0 -3
BITMAP
2E6B40
0F42D0
0E00E0
0E00E0
0E00E0
0E00E0
0E00E0
0E00E0
0E01E0
7FD7FC
000000
000000
02AA80
ENDCHAR
STARTCHAR uni1E4A
ENCODING 7754
SWIDTH 742 0
DWIDTH 15 0
BBX 15 18 0 -4
BITMAP
7F401FF4
0FC00380
0BE00280
0AF80240
097D0240
092F0240
090B8240
0903D240
0901F240
0900BA40
09002F40
09000F40
0A000740
7FD00240
00000000
000F4000
00298000
00606000
ENDCHAR
STARTCHAR uni1E4B
ENCODING 7755
SWIDTH 576 0
DWIDTH 12 0
BBX 11 14 0 -4
BITMAP
2E6B40
0F42D0
0E00E0
0E00E0
0E00E0
0E00E0
0E00E0
0E00E0
0E01E0
7FD7FC
000000
007800
00DA00
024240
ENDCHAR
STARTCHAR uni1E4C
ENCODING 7756
SWIDTH 738 0
DWIDTH 15 0
BBX 13 20 1 0
BITMAP
00064000
001E0000
00640000
00A95000
010B8000
00000000
01AA9000
0B40B800
2D002D00
78000F00
B4000B40
F4000780
F0000780
F0000780
F4000780
B4000B40
78000F00
2D001D00
0B407400
01AA9000
ENDCHAR
STARTCHAR uni1E4D
ENCODING 7757
SWIDTH 514 0
DWIDTH 10 0
BBX 10 17 0 0
BITMAP
002D00
007400
009000
000000
02A540
082E00
000000
06E900
1E0780
2C02C0
3801D0
7801E0
7801E0
3801D0
3C02C0
1E0340
06E900
ENDCHAR
STARTCHAR uni1E4E
ENCODING 7758
SWIDTH 738 0
DWIDTH 15 0
BBX 13 19 1 0
BITMAP
02C1E000
02C1D000
00A95000
010B8000
00000000
01AA9000
0B40B800
2D002D00
78000F00
B4000B40
F4000780
F0000780
F0000780
F4000780
B4000B40
78000F00
2D001D00
0B407400
01AA9000
ENDCHAR
STARTCHAR uni1E4F
ENCODING 7759
SWIDTH 514 0
DWIDTH 10 0
BBX 10 17 0 0
BITMAP
0F0B40
0B0740
000000
000000
02A540
082E00
000000
06E900
1E0780
2C02C0
3801D0
7801E0
7801E0
3801D0
3C02C0
1E0340
06E900
ENDCHAR
STARTCHAR uni1E50
ENCODING 7760
SWIDTH 738 0
DWIDTH 15 0
BBX 13 19 1 0
BITMAP
00640000
002C0000
00060000
01AA9000
00000000
01AA9000
0B40B800
2D002D00
78000F00
B4000B40
F4000780
F0000780
F0000780
F4000780
B4000B40
78000F00
2D001D00
0B407400
01AA9000
ENDCHAR
STARTCHAR uni1E51
ENCODING 7761
SWIDTH 514 0
DWIDTH 10 0
BBX 10 17 0 0
BITMAP
02C000
00A000
002000
000000
0AAA00
000000
000000
06E900
1E0780
2C02C0
3801D0
7801E0
7801E0
3801D0
3C02C0
1E0340
06E900
ENDCHAR
STARTCHAR uni1E52
ENCODING 7762
SWIDTH 738 0
DWIDTH 15 0
BBX 13 19 1 0
BITMAP
00064000
001E0000
00640000
01AA9000
00000000
01AA9000
0B40B800
2D002D00
78000F00
B4000B40
F4000780
F0000780
F0000780
F4000780
B4000B40
78000F00
2D001D00
0B407400
01AA9000
ENDCHAR
STARTCHAR uni1E53
ENCODING 7763
SWIDTH 514 0
DWIDTH 10 0
BBX 10 17 0 0
BITMAP
002D00
007400
009000
000000
0AAA00
000000
000000
06E900
1E0780
2C02C0
3801D0
7801E0
7801E0
3801D0
3C02C0
1E0340
06E900
ENDCHAR
STARTCHAR uni1E54
ENCODING 7764
SWIDTH 569 0
DWIDTH 11 0
BBX 10 17 1 0
BITMAP
001400
00B400
028000
BFFE40
1E07D0
1E01E0
1E00F0
1E00E0
1E01D0
1E0780
1FE900
1E0000
1E0000
1E0000
1E0000
2E0000
BFD000
ENDCHAR
STARTCHAR uni1E55
ENCODING 7765
SWIDTH 537 0
DWIDTH 11 0
BBX 10 19 0 -5
BITMAP
002D00
003800
006000
000000
6E6F40
1E97D0
0E01E0
0E00F0
0E00B0
0E00B0
0E00E0
0E01D0
0F4280
0EAA00
0E0000
0E0000
0E0000
1E0000
7FD000
ENDCHAR
STARTCHAR uni1E56
ENCODING 7766
SWIDTH 569 0
DWIDTH 11 0
BBX 10 17 1 0
BITMAP
00E000
00E000
000000
BFFE40
1E07D0
1E01E0
1E00F0
1E00E0
1E01D0
1E0780
1FE900
1E0000
1E0000
1E0000
1E0000
2E0000
BFD000
ENDCHAR
STARTCHAR uni1E57
ENCODING 7767
SWIDTH 537 0
DWIDTH 11 0
BBX 10 19 0 -5
BITMAP
00B400
007400
000000
000000
6E6F40
1E97D0
0E01E0
0E00F0
0E00B0
0E00B0
0E00E0
0E01D0
0F4280
0EAA00
0E0000
0E0000
0E0000
1E0000
7FD000
ENDCHAR
STARTCHAR uni1E58
ENCODING 7768
SWIDTH 659 0
DWIDTH 13 0
BBX 13 17 1 0
BITMAP
00B40000
00B40000
00000000
BFFE4000
1E07D000
1E01E000
1E00F000
1E00F000
1E01D000
1E078000
1FFD0000
1E2D0000
1E0F4000
1E07C000
1E02E000
2E00F400
BFD07F40
ENDCHAR
STARTCHAR uni1E59
ENCODING 7769
SWIDTH 380 0
DWIDTH 8 0
BBX 8 14 0 0
BITMAP
03C0
0380
0000
0000
2A2D
1EAD
0F40
0E00
0E00
0E00
0E00
0E00
0E00
7FD0
ENDCHAR
STARTCHAR uni1E5A
ENCODING 7770
SWIDTH 659 0
DWIDTH 13 0
BBX 13 18 1 -4
BITMAP
BFFE4000
1E07D000
1E01E000
1E00F000
1E00F000
1E01D000
1E078000
1FFD0000
1E2D0000
1E0F4000
1E07C000
1E02E000
2E00F400
BFD07F40
00000000
00000000
00780000
00780000
ENDCHAR
STARTCHAR uni1E5B
ENCODING 7771
SWIDTH 380 0
DWIDTH 8 0
BBX 8 14 0 -4
BITMAP
2A2D
1EAD
0F40
0E00
0E00
0E00
0E00
0E00
0E00
7FD0
0000
0000
0F00
0B00
ENDCHAR
STARTCHAR uni1E5C
ENCODING 7772
SWIDTH 659 0
DWIDTH 13 0
BBX 13 20 1 -4
BITMAP
0AAA0000
00000000
BFFE4000
1E07D000
1E01E000
1E00F000
1E00F000
1E01D000
1E078000
1FFD0000
1E2D0000
1E0F4000
1E07C000
1E02E000
2E00F400
BFD07F40
00000000
00000000
00780000
00780000
ENDCHAR
STARTCHAR uni1E5D
ENCODING 7773
SWIDTH 380 0
DWIDTH 8 0
BBX 8 17 0 -4
BITMAP
2AA8
0000
0000
2A2D
1EAD
0F40
0E00
0E00
0E00
0E00
0E00
0E00
7FD0
0000
0000
0F00
0B00
ENDCHAR
STARTCHAR uni1E5E
ENCODING 7774
SWIDTH 659 0
DWIDTH 13 0
BBX 13 17 1 -3
BITMAP
BFFE4000
1E07D000
1E01E000
1E00F000
1E00F000
1E01D000
1E078000
1FFD0000
1E2D0000
1E0F4000
1E07C000
1E02E000
2E00F400
BFD07F40
00000000
00000000
06AA4000
ENDCHAR
STARTCHAR uni1E5F
ENCODING 7775
SWIDTH 380 0
DWIDTH 8 0
BBX 8 13 0 -3
BITMAP
2A2D
1EAD
0F40
0E00
0E00
0E00
0E00
0E00
0E00
7FD0
0000
0000
AAA0
ENDCHAR
STARTCHAR uni1E60
ENCODING 7776
SWIDTH 504 0
DWIDTH 10 0
BBX 10 17 0 0
BITMAP
00F000
00B000
000000
06BF80
1D0780
380180
3C0080
2E0000
1F9000
07F800
00BF40
001FC0
0003D0
5002D0
7002D0
780380
3FAE00
ENDCHAR
STARTCHAR uni1E61
ENCODING 7777
SWIDTH 394 0
DWIDTH 8 0
BBX 8 14 0 0
BITMAP
03C0
0380
0000
0000
1AA8
3428
3408
3D00
1F90
02F4
007C
501D
742C
6AA4
ENDCHAR
STARTCHAR uni1E62
ENCODING 7778
SWIDTH 504 0
DWIDTH 10 0
BBX 10 18 0 -4
BITMAP
06BF80
1D0780
380180
3C0080
2E0000
1F9000
07F800
00BF40
001FC0
0003D0
5002D0
7002D0
780380
3FAE00
000000
000000
00F000
00E000
ENDCHAR
STARTCHAR uni1E63
ENCODING 7779
SWIDTH 394 0
DWIDTH 8 0
BBX 8 14 0 -4
BITMAP
1AA8
3428
3408
3D00
1F90
02F4
007C
501D
742C
6AA4
0000
0000
03C0
0380
ENDCHAR
STARTCHAR uni1E64
ENCODING 7780
SWIDTH 504 0
DWIDTH 10 0
BBX 10 19 0 0
BITMAP
010000
078000
010600
002D00
006000
06BF80
1D0780
380180
3C0080
2E0000
1F9000
07F800
00BF40
001FC0
0003D0
5002D0
7002D0
780380
3FAE00
ENDCHAR
STARTCHAR uni1E65
ENCODING 7781
SWIDTH 394 0
DWIDTH 8 0
BBX 8 16 0 0
BITMAP
0500
1E00
05B4
00D0
0240
0000
1AA8
3428
3408
3D00
1F90
02F4
007C
501D
742C
6AA4
ENDCHAR
STARTCHAR uni1E66
ENCODING 7782
SWIDTH 504 0
DWIDTH 10 0
BBX 10 19 0 0
BITMAP
00B000
00B000
060600
02AC00
00F400
06BF80
1D0780
380180
3C0080
2E0000
1F9000
07F800
00BF40
001FC0
0003D0
5002D0
7002D0
780380
3FAE00
ENDCHAR
STARTCHAR uni1E67
ENCODING 7783
SWIDTH 394 0
DWIDTH 8 0
BBX 8 17 0 0
BITMAP
0140
03C0
0140
1414
0AA0
03C0
0000
1AA8
3428
3408
3D00
1F90
02F4
007C
501D
742C
6AA4
ENDCHAR
STARTCHAR uni1E68
ENCODING 7784
SWIDTH 504 0
DWIDTH 10 0
BBX 10 21 0 -4
BITMAP
00F000
00B000
000000
06BF80
1D0780
380180
3C0080
2E0000
1F9000
07F800
00BF40
001FC0
0003D0
5002D0
7002D0
780380
3FAE00
000000
000000
00F000
00E000
ENDCHAR
STARTCHAR uni1E69
ENCODING 7785
SWIDTH 394 0
DWIDTH 8 0
BBX 8 18 0 -4
BITMAP
03C0
0380
0000
0000
1AA8
3428
3408
3D00
1F90
02F4
007C
501D
742C
6AA4
0000
0000
03C0
0380
ENDCHAR
STARTCHAR uni1E6A
ENCODING 7786
SWIDTH 603 0
DWIDTH 12 0
BBX 12 17 0 0
BITMAP
003C00
002C00
000000
BEBEBE
A03C0A
903C02
403C01
003C00
003C00
003C00
003C00
003C00
003C00
003C00
003C00
003C00
02FF80
ENDCHAR
STARTCHAR uni1E6B
ENCODING 7787
SWIDTH 315 0
DWIDTH 6 0
BBX 5 16 1 0
BITMAP
2D00
2C00
0000
1800
2800
7800
BE80
3800
3800
3800
3800
3800
3800
3800
3840
1E40
ENDCHAR
STARTCHAR uni1E6C
ENCODING 7788
SWIDTH 603 0
DWIDTH 12 0
BBX 12 18 0 -4
BITMAP
BEBEBE
A03C0A
903C02
403C01
003C00
003C00
003C00
003C00
003C00
003C00
003C00
003C00
003C00
02FF80
000000
000000
003C00
002C00
ENDCHAR
STARTCHAR uni1E6D
ENCODING 7789
SWIDTH 315 0
DWIDTH 6 0
BBX 5 17 1 -4
BITMAP
1800
2800
7800
BE80
3800
3800
3800
3800
3800
3800
3800
3840
1E40
0000
0000
1E00
1E00
ENDCHAR
STARTCHAR uni1E6E
ENCODING 7790
SWIDTH 603 0
DWIDTH 12 0
BBX 12 17 0 -3
BITMAP
BEBEBE
A03C0A
903C02
403C01
003C00
003C00
003C00
003C00
003C00
003C00
003C00
003C00
003C00
02FF80
000000
000000
02AA80
ENDCHAR
STARTCHAR uni1E6F
ENCODING 7791
SWIDTH 315 0
DWIDTH 6 0
BBX 6 16 1 -3
BITMAP
1800
2800
7800
BE80
3800
3800
3800
3800
3800
3800
3800
3840
1E40
0000
0000
AA90
ENDCHAR
STARTCHAR uni1E70
ENCODING 7792
SWIDTH 603 0
DWIDTH 12 0
BBX 12 18 0 -4
BITMAP
BEBEBE
A03C0A
903C02
403C01
003C00
003C00
003C00
003C00
003C00
003C00
003C00
003C00
003C00
02FF80
000000
003C00
00AA00
018140
ENDCHAR
STARTCHAR uni1E71
ENCODING 7793
SWIDTH 315 0
DWIDTH 6 0
BBX 6 17 1 -4
BITMAP
1800
2800
7800
BE80
3800
3800
3800
3800
3800
3800
3800
3840
1E40
0000
1E00
3640
9090
ENDCHAR
STARTCHAR uni1E72
ENCODING 7794
SWIDTH 752 0
DWIDTH 15 0
BBX 15 18 0 -4
BITMAP
7FF01FF8
0F4002C0
0B400180
0B400180
0B400180
0B400180
0B400180
0B400180
0B400180
0B400180
07400180
03800240
02D00A00
006EA400
00000000
00000000
00B47800
00743800
ENDCHAR
STARTCHAR uni1E73
ENCODING 7795
SWIDTH 570 0
DWIDTH 11 0
BBX 11 14 0 -4
BITMAP
6D0BD0
1D01D0
1D01D0
1D01D0
1D01D0
1D01D0
1D01D0
0E01D0
0F02D0
06E5E4
000000
000000
0B4780
0B4780
ENDCHAR
STARTCHAR uni1E74
ENCODING 7796
SWIDTH 752 0
DWIDTH 15 0
BBX 15 17 0 -3
BITMAP
7FF01FF8
0F4002C0
0B400180
0B400180
0B400180
0B400180
0B400180
0B400180
0B400180
0B400180
07400180
03800240
02D00A00
006EA400
00000000
002A5400
0042E000
ENDCHAR
STARTCHAR uni1E75
ENCODING 7797
SWIDTH 570 0
DWIDTH 11 0
BBX 11 13 0 -3
BITMAP
6D0BD0
1D01D0
1D01D0
1D01D0
1D01D0
1D01D0
1D01D0
0E01D0
0F02D0
06E5E4
000000
02A540
042E00
ENDCHAR
STARTCHAR uni1E76
ENCODING 7798
SWIDTH 752 0
DWIDTH 15 0
BBX 15 18 0 -4
BITMAP
7FF01FF8
0F4002C0
0B400180
0B400180
0B400180
0B400180
0B400180
0B400180
0B400180
0B400180
07400180
03800240
02D00A00
006EA400
00000000
00078000
001DD000
00242000
ENDCHAR
STARTCHAR uni1E77
ENCODING 7799
SWIDTH 570 0
DWIDTH 11 0
BBX 11 14 0 -4
BITMAP
6D0BD0
1D01D0
1D01D0
1D01D0
1D01D0
1D01D0
1D01D0
0E01D0
0F02D0
06E5E4
000000
00B800
01DD00
020200
ENDCHAR
STARTCHAR uni1E78
ENCODING 7800
SWIDTH 752 0
DWIDTH 15 0
BBX 15 20 0 0
BITMAP
00006000
0002D000
000A0000
001A4400
0011B400
00000000
7FF01FF8
0F4002C0
0B400180
0B400180
0B400180
0B400180
0B400180
0B400180
0B400180
0B400180
07400180
03800240
02D00A00
006EA400
ENDCHAR
STARTCHAR uni1E79
ENCODING 7801
SWIDTH 570 0
DWIDTH 11 0
BBX 11 17 0 0
BITMAP
001D00
003800
006000
000000
02A540
041A00
000000
6D0BD0
1D01D0
1D01D0
1D01D0
1D01D0
1D01D0
1D01D0
0E01D0
0F02D0
06E5E4
ENDCHAR
STARTCHAR uni1E7A
ENCODING 7802
SWIDTH 752 0
DWIDTH 15 0
BBX 15 19 0 0
BITMAP
00782D00
00382C00
00000000
002AA800
00000000
7FF01FF8
0F4002C0
0B400180
0B400180
0B400180
0B400180
0B400180
0B400180
0B400180
0B400180
07400180
03800240
02D00A00
006EA400
ENDCHAR
STARTCHAR uni1E7B
ENCODING 7803
SWIDTH 570 0
DWIDTH 11 0
BBX 11 16 0 0
BITMAP
0B4780
0B4780
000000
06AA40
000000
000000
6D0BD0
1D01D0
1D01D0
1D01D0
1D01D0
1D01D0
1D01D0
0E01D0
0F02D0
06E5E4
ENDCHAR
STARTCHAR uni1E7C
ENCODING 7804
SWIDTH 680 0
DWIDTH 14 0
BBX 14 17 0 0
BITMAP
00692000
00469000
00000000
FFC01FE0
2F000740
1F000600
0B400900
07800C00
03C01800
02E03400
00F07000
00B49000
0078C000
003D8000
002F4000
000F0000
00090000
ENDCHAR
STARTCHAR uni1E7D
ENCODING 7805
SWIDTH 481 0
DWIDTH 10 0
BBX 11 13 -1 0
BITMAP
01A580
021B40
000000
7F81FC
0F0060
0B4090
0780C0
02C180
01D200
00E600
00B900
007C00
003400
ENDCHAR
STARTCHAR uni1E7E
ENCODING 7806
SWIDTH 680 0
DWIDTH 14 0
BBX 14 18 0 -4
BITMAP
FFC01FE0
2F000740
1F000600
0B400900
07800C00
03C01800
02E03400
00F07000
00B49000
0078C000
003D8000
002F4000
000F0000
00090000
00000000
00000000
000F0000
000E0000
ENDCHAR
STARTCHAR uni1E7F
ENCODING 7807
SWIDTH 481 0
DWIDTH 10 0
BBX 11 14 -1 -4
BITMAP
7F81FC
0F0060
0B4090
0780C0
02C180
01D200
00E600
00B900
007C00
003400
000000
000000
007800
003800
ENDCHAR
STARTCHAR Wgrave
ENCODING 7808
SWIDTH 944 0
DWIDTH 19 0
BBX 19 17 0 0
BITMAP
0001800000
0001E00000
0000280000
FF87FE07F8
2E00F400E0
1F007800C0
0B403C0180
07803D0240
03C03E0300
02D09F0600
01E0CB4900
00F1878C00
00B643D800
007F02F400
002E00F000
001D00A000
0008005000
ENDCHAR
STARTCHAR wgrave
ENCODING 7809
SWIDTH 749 0
DWIDTH 15 0
BBX 17 14 -1 0
BITMAP
000B400000
0002C00000
0000900000
0000000000
7F8BF47F40
0F01E00C00
0B40E01800
0780F42400
02C1B83000
01D22C5000
00E21D8000
00B90E8000
007C0B4000
0034070000
ENDCHAR
STARTCHAR Wacute
ENCODING 7810
SWIDTH 944 0
DWIDTH 19 0
BBX 19 17 0 0
BITMAP
0000190000
0000740000
0001900000
FF87FE07F8
2E00F400E0
1F007800C0
0B403C0180
07803D0240
03C03E0300
02D09F0600
01E0CB4900
00F1878C00
00B643D800
007F02F400
002E00F000
001D00A000
0008005000
ENDCHAR
STARTCHAR wacute
ENCODING 7811
SWIDTH 749 0
DWIDTH 15 0
BBX 17 14 -1 0
BITMAP
0000740000
0000E00000
0001800000
0000000000
7F8BF47F40
0F01E00C00
0B40E01800
0780F42400
02C1B83000
01D22C5000
00E21D8000
00B90E8000
007C0B4000
0034070000
ENDCHAR
STARTCHAR Wdieresis
ENCODING 7812
SWIDTH 944 0
DWIDTH 19 0
BBX 19 17 0 0
BITMAP
000F0B4000
000E074000
0000000000
FF87FE07F8
2E00F400E0
1F007800C0
0B403C0180
07803D0240
03C03E0300
02D09F0600
01E0CB4900
00F1878C00
00B643D800
007F02F400
002E00F000
001D00A000
0008005000
ENDCHAR
STARTCHAR wdieresis
ENCODING 7813
SWIDTH 749 0
DWIDTH 15 0
BBX 17 14 -1 0
BITMAP
002D1E0000
002D1E0000
0000000000
0000000000
7F8BF47F40
0F01E00C00
0B40E01800
0780F42400
02C1B83000
01D22C5000
00E21D8000
00B90E8000
007C0B4000
0034070000
ENDCHAR
STARTCHAR uni1E86
ENCODING 7814
SWIDTH 944 0
DWIDTH 19 0
BBX 19 17 0 0
BITMAP
0000B40000
0000B00000
0000000000
FF87FE07F8
2E00F400E0
1F007800C0
0B403C0180
07803D0240
03C03E0300
02D09F0600
01E0CB4900
00F1878C00
00B643D800
007F02F400
002E00F000
001D00A000
0008005000
ENDCHAR
STARTCHAR uni1E87
ENCODING 7815
SWIDTH 749 0
DWIDTH 15 0
BBX 17 14 -1 0
BITMAP
0002D00000
0001D00000
0000000000
0000000000
7F8BF47F40
0F01E00C00
0B40E01800
0780F42400
02C1B83000
01D22C5000
00E21D8000
00B90E8000
007C0B4000
0034070000
ENDCHAR
STARTCHAR uni1E88
ENCODING 7816
SWIDTH 944 0
DWIDTH 19 0
BBX 19 18 0 -4
BITMAP
FF87FE07F8
2E00F400E0
1F007800C0
0B403C0180
07803D0240
03C03E0300
02D09F0600
01E0CB4900
00F1878C00
00B643D800
007F02F400
002E00F000
001D00A000
0008005000
0000000000
0000000000
0000780000
0000740000
ENDCHAR
STARTCHAR uni1E89
ENCODING 7817
SWIDTH 749 0
DWIDTH 15 0
BBX 17 14 -1 -4
BITMAP
7F8BF47F40
0F01E00C00
0B40E01800
0780F42400
02C1B83000
01D22C5000
00E21D8000
00B90E8000
007C0B4000
0034070000
0000000000
0000000000
0002D00000
0001D00000
ENDCHAR
STARTCHAR uni1E8A
ENCODING 7818
SWIDTH 664 0
DWIDTH 13 0
BBX 13 17 0 0
BITMAP
000E0000
000E0000
00000000
BFE07FC0
0B801D00
07C03400
02E0A000
00F5C000
007A4000
002E0000
002F4000
00678000
00C2D000
0240F400
0A00B800
1D007E00
BF41FFC0
ENDCHAR
STARTCHAR uni1E8B
ENCODING 7819
SWIDTH 479 0
DWIDTH 10 0
BBX 10 14 0 0
BITMAP
00F000
00E000
000000
000000
BF4FD0
1E0700
0B4800
039400
01E000
01F400
023C00
091E00
280B40
FD1FE0
ENDCHAR
STARTCHAR uni1E8C
ENCODING 7820
SWIDTH 664 0
DWIDTH 13 0
BBX 13 17 0 0
BITMAP
01E0F000
01D0B000
00000000
BFE07FC0
0B801D00
07C03400
02E0A000
00F5C000
007A4000
002E0000
002F4000
00678000
00C2D000
0240F400
0A00B800
1D007E00
BF41FFC0
ENDCHAR
STARTCHAR uni1E8D
ENCODING 7821
SWIDTH 479 0
DWIDTH 10 0
BBX 10 14 0 0
BITMAP
1E0F00
1E0B00
000000
000000
BF4FD0
1E0700
0B4800
039400
01E000
01F400
023C00
091E00
280B40
FD1FE0
ENDCHAR
STARTCHAR uni1E8E
ENCODING 7822
SWIDTH 647 0
DWIDTH 13 0
BBX 13 17 0 0
BITMAP
001E0000
000E0000
00000000
FFD07FC0
2F000D00
0B401800
03C03000
02E09000
00F4C000
007A4000
002E0000
001D0000
001D0000
001D0000
001D0000
002E0000
01FFD000
ENDCHAR
STARTCHAR uni1E8F
ENCODING 7823
SWIDTH 483 0
DWIDTH 10 0
BBX 11 19 -1 -5
BITMAP
003C00
002C00
000000
000000
7FC1F8
0F0060
0B4090
0780C0
02C180
01E240
00F200
007900
003C00
002800
002400
003000
00A000
2EC000
2E4000
ENDCHAR
STARTCHAR uni1E90
ENCODING 7824
SWIDTH 594 0
DWIDTH 12 0
BBX 12 17 0 0
BITMAP
002D00
00B700
018180
2FAAFC
2800B8
2001F0
1003D0
000B80
001F00
003D00
00B800
01F000
03D000
0B8005
1F4008
2E001C
7EAAFC
ENDCHAR
STARTCHAR uni1E91
ENCODING 7825
SWIDTH 458 0
DWIDTH 9 0
BBX 9 14 0 0
BITMAP
01E000
036800
090900
000000
3FFF40
301E00
202D00
00B800
01E000
02D000
078040
0F0140
2D0340
7FFF40
ENDCHAR
STARTCHAR uni1E92
ENCODING 7826
SWIDTH 594 0
DWIDTH 12 0
BBX 12 18 0 -4
BITMAP
2FAAFC
2800B8
2001F0
1003D0
000B80
001F00
003D00
00B800
01F000
03D000
0B8005
1F4008
2E001C
7EAAFC
000000
000000
007800
003800
ENDCHAR
STARTCHAR uni1E93
ENCODING 7827
SWIDTH 458 0
DWIDTH 9 0
BBX 9 14 0 -4
BITMAP
3FFF40
301E00
202D00
00B800
01E000
02D000
078040
0F0140
2D0340
7FFF40
000000
000000
01E000
01D000
ENDCHAR
STARTCHAR uni1E94
ENCODING 7828
SWIDTH 594 0
DWIDTH 12 0
BBX 12 17 0 -3
BITMAP
2FAAFC
2800B8
2001F0
1003D0
000B80
001F00
003D00
00B800
01F000
03D000
0B8005
1F4008
2E001C
7EAAFC
000000
000000
02AA80
ENDCHAR
STARTCHAR uni1E95
ENCODING 7829
SWIDTH 458 0
DWIDTH 9 0
BBX 9 13 0 -3
BITMAP
3FFF40
301E00
202D00
00B800
01E000
02D000
078040
0F0140
2D0340
7FFF40
000000
000000
1AA900
ENDCHAR
STARTCHAR uni1E96
ENCODING 7830
SWIDTH 577 0
DWIDTH 12 0
BBX 11 17 0 -3
BITMAP
6E0000
1E0000
0E0000
0E0000
0E6B40
0F42D0
0E00E0
0E00E0
0E00E0
0E00E0
0E00E0
0E00E0
0E00E0
7FC7FC
000000
000000
02AA80
ENDCHAR
STARTCHAR uni1E97
ENCODING 7831
SWIDTH 315 0
DWIDTH 6 0
BBX 7 16 0 0
BITMAP
F0B4
B074
0000
0600
0A00
1E00
2FA0
0E00
0E00
0E00
0E00
0E00
0E00
0E00
0E10
0790
ENDCHAR
STARTCHAR uni1E98
ENCODING 7832
SWIDTH 749 0
DWIDTH 15 0
BBX 17 15 -1 0
BITMAP
0002A00000
0005240000
0005240000
0002A00000
0000000000
7F8BF47F40
0F01E00C00
0B40E01800
0780F42400
02C1B83000
01D22C5000
00E21D8000
00B90E8000
007C0B4000
0034070000
ENDCHAR
STARTCHAR uni1E99
ENCODING 7833
SWIDTH 483 0
DWIDTH 10 0
BBX 11 20 -1 -5
BITMAP
006900
008300
008300
006900
000000
7FC1F8
0F0060
0B4090
0780C0
02C180
01E240
00F200
007900
003C00
002800
002400
003000
00A000
2EC000
2E4000
ENDCHAR
STARTCHAR uni1E9A
ENCODING 7834
SWIDTH 480 0
DWIDTH 10 0
BBX 9 15 0 0
BITMAP
019000
003000
003000
019000
000000
06B800
2C1D00
2C0E00
140E00
006E00
0A4E00
2C0E00
780E00
381E00
1F8B80
ENDCHAR
STARTCHAR uni1E9B
ENCODING 7835
SWIDTH 285 0
DWIDTH 6 0
BBX 8 18 0 0
BITMAP
0F00
0A00
0000
01B8
071D
0A04
0E00
0E00
6E00
0E00
0E00
0E00
0E00
0E00
0E00
0E00
0F00
BFE0
ENDCHAR
STARTCHAR uni1E9C
ENCODING 7836
SWIDTH 300 0
DWIDTH 6 0
BBX 8 15 0 0
BITMAP
01B9
031E
0704
0B00
0B00
6F00
0BA0
0B40
1F00
6B00
0B00
0B00
0B00
0F00
7FE0
ENDCHAR
STARTCHAR uni1E9D
ENCODING 7837
SWIDTH 285 0
DWIDTH 6 0
BBX 8 15 0 0
BITMAP
01B8
071E
0A04
6F90
0E00
6E00
0E00
0E00
0E00
0E00
0E00
0E00
0E00
0F00
BFE0
ENDCHAR
STARTCHAR uni1E9E
ENCODING 7838
SWIDTH 684 0
DWIDTH 14 0
BBX 13 14 0 0
BITMAP
006EAA00
01E01E00
03802D00
07407800
0B40F000
0B42D000
0B42E800
0B401F00
0B400B80
0B400780
0B400380
0B580780
0B6D0B00
7F4BA800
ENDCHAR
STARTCHAR uni1E9F
ENCODING 7839
SWIDTH 517 0
DWIDTH 10 0
BBX 10 15 0 0
BITMAP
01AA00
0B0780
0A0140
0B4000
02E000
00B800
06AF00
1E0780
3C02D0
7801E0
7801E0
7801D0
3C02D0
1E0780
06E900
ENDCHAR
STARTCHAR uni1EA0
ENCODING 7840
SWIDTH 718 0
DWIDTH 14 0
BBX 15 18 0 -4
BITMAP
000A0000
000F0000
001F8000
0027C000
0032D000
00A1E000
00D0F400
01C0B800
02807C00
07AABD00
0A002F00
0D000F40
2C000B80
BF403FF4
00000000
00000000
001E0000
001E0000
ENDCHAR
STARTCHAR uni1EA1
ENCODING 7841
SWIDTH 480 0
DWIDTH 10 0
BBX 9 14 0 -4
BITMAP
06B800
2C1D00
2C0E00
140E00
006E00
0A4E00
2C0E00
780E00
381E00
1F8B80
000000
000000
01E000
01D000
ENDCHAR
STARTCHAR uni1EA2
ENCODING 7842
SWIDTH 718 0
DWIDTH 14 0
BBX 15 18 0 0
BITMAP
001A4000
0014C000
00018000
00060000
000A0000
000F0000
001F8000
0027C000
0032D000
00A1E000
00D0F400
01C0B800
02807C00
07AABD00
0A002F00
0D000F40
2C000B80
BF403FF4
ENDCHAR
STARTCHAR uni1EA3
ENCODING 7843
SWIDTH 480 0
DWIDTH 10 0
BBX 9 16 0 0
BITMAP
01A000
036800
002800
002400
008000
000000
06B800
2C1D00
2C0E00
140E00
006E00
0A4E00
2C0E00
780E00
381E00
1F8B80
ENDCHAR
STARTCHAR uni1EA4
ENCODING 7844
SWIDTH 718 0
DWIDTH 14 0
BBX 15 18 0 0
BITMAP
00000780
000F5D00
002AD000
00606000
000A0000
000F0000
001F8000
0027C000
0032D000
00A1E000
00D0F400
01C0B800
02807C00
07AABD00
0A002F00
0D000F40
2C000B80
BF403FF4
ENDCHAR
STARTCHAR uni1EA5
ENCODING 7845
SWIDTH 480 0
DWIDTH 10 0
BBX 10 16 0 0
BITMAP
0001D0
000380
01E600
037400
090800
000000
06B800
2C1D00
2C0E00
140E00
006E00
0A4E00
2C0E00
780E00
381E00
1F8B80
ENDCHAR
STARTCHAR uni1EA6
ENCODING 7846
SWIDTH 718 0
DWIDTH 14 0
BBX 15 18 0 0
BITMAP
0000B400
000A2C00
002A8500
00606000
000A0000
000F0000
001F8000
0027C000
0032D000
00A1E000
00D0F400
01C0B800
02807C00
07AABD00
0A002F00
0D000F40
2C000B80
BF403FF4
ENDCHAR
STARTCHAR uni1EA7
ENCODING 7847
SWIDTH 480 0
DWIDTH 10 0
BBX 9 16 0 0
BITMAP
002C00
000D00
01E200
037400
090800
000000
06B800
2C1D00
2C0E00
140E00
006E00
0A4E00
2C0E00
780E00
381E00
1F8B80
ENDCHAR
STARTCHAR uni1EA8
ENCODING 7848
SWIDTH 718 0
DWIDTH 14 0
BBX 15 20 0 0
BITMAP
00006900
00008A00
00000900
001F6400
00249000
00401000
000A0000
000F0000
001F8000
0027C000
0032D000
00A1E000
00D0F400
01C0B800
02807C00
07AABD00
0A002F00
0D000F40
2C000B80
BF403FF4
ENDCHAR
STARTCHAR uni1EA9
ENCODING 7849
SWIDTH 480 0
DWIDTH 10 0
BBX 9 18 0 0
BITMAP
000A40
0019C0
0000C0
000180
01E500
062400
080800
000000
06B800
2C1D00
2C0E00
140E00
006E00
0A4E00
2C0E00
780E00
381E00
1F8B80
ENDCHAR
STARTCHAR uni1EAA
ENCODING 7850
SWIDTH 718 0
DWIDTH 14 0
BBX 15 19 0 0
BITMAP
00691000
00469000
000A0000
002E8000
00606000
000A0000
000F0000
001F8000
0027C000
0032D000
00A1E000
00D0F400
01C0B800
02807C00
07AABD00
0A002F00
0D000F40
2C000B80
BF403FF4
ENDCHAR
STARTCHAR uni1EAB
ENCODING 7851
SWIDTH 480 0
DWIDTH 10 0
BBX 9 17 0 0
BITMAP
0A8200
146800
000000
01E000
037400
090800
000000
06B800
2C1D00
2C0E00
140E00
006E00
0A4E00
2C0E00
780E00
381E00
1F8B80
ENDCHAR
STARTCHAR uni1EAC
ENCODING 7852
SWIDTH 718 0
DWIDTH 14 0
BBX 15 21 0 -4
BITMAP
000F4000
002AC000
00606000
000A0000
000F0000
001F8000
0027C000
0032D000
00A1E000
00D0F400
01C0B800
02807C00
07AABD00
0A002F00
0D000F40
2C000B80
BF403FF4
00000000
00000000
001E0000
001E0000
ENDCHAR
STARTCHAR uni1EAD
ENCODING 7853
SWIDTH 480 0
DWIDTH 10 0
BBX 9 18 0 -4
BITMAP
01E000
037400
090800
000000
06B800
2C1D00
2C0E00
140E00
006E00
0A4E00
2C0E00
780E00
381E00
1F8B80
000000
000000
01E000
01D000
ENDCHAR
STARTCHAR uni1EAE
ENCODING 7854
SWIDTH 718 0
DWIDTH 14 0
BBX 15 20 0 0
BITMAP
00004000
0003C000
008A2000
00A46000
003FD000
00010000
000A0000
000F0000
001F8000
0027C000
0032D000
00A1E000
00D0F400
01C0B800
02807C00
07AABD00
0A002F00
0D000F40
2C000B80
BF403FF4
ENDCHAR
STARTCHAR uni1EAF
ENCODING 7855
SWIDTH 480 0
DWIDTH 10 0
BBX 9 16 0 0
BITMAP
007800
00A000
148500
0D1900
07F800
004000
06B800
2C1D00
2C0E00
140E00
006E00
0A4E00
2C0E00
780E00
381E00
1F8B80
ENDCHAR
STARTCHAR uni1EB0
ENCODING 7856
SWIDTH 718 0
DWIDTH 14 0
BBX 15 20 0 0
BITMAP
00100000
002C0000
008A2000
00A16000
003FD000
00010000
000A0000
000F0000
001F8000
0027C000
0032D000
00A1E000
00D0F400
01C0B800
02807C00
07AABD00
0A002F00
0D000F40
2C000B80
BF403FF4
ENDCHAR
STARTCHAR uni1EB1
ENCODING 7857
SWIDTH 480 0
DWIDTH 10 0
BBX 9 16 0 0
BITMAP
074000
028000
149500
0D1900
07F800
004000
06B800
2C1D00
2C0E00
140E00
006E00
0A4E00
2C0E00
780E00
381E00
1F8B80
ENDCHAR
STARTCHAR uni1EB2
ENCODING 7858
SWIDTH 718 0
DWIDTH 14 0
BBX 15 21 0 0
BITMAP
001A4000
0015C000
00018000
00852000
00506000
001A8000
00000000
000A0000
000F0000
001F8000
0027C000
0032D000
00A1E000
00D0F400
01C0B800
02807C00
07AABD00
0A002F00
0D000F40
2C000B80
BF403FF4
ENDCHAR
STARTCHAR uni1EB3
ENCODING 7859
SWIDTH 480 0
DWIDTH 10 0
BBX 9 17 0 0
BITMAP
02A000
022400
002400
148500
080800
06A400
000000
06B800
2C1D00
2C0E00
140E00
006E00
0A4E00
2C0E00
780E00
381E00
1F8B80
ENDCHAR
STARTCHAR uni1EB4
ENCODING 7860
SWIDTH 718 0
DWIDTH 14 0
BBX 15 20 0 0
BITMAP
006AA000
00401000
00802000
00605000
001A8000
00000000
000A0000
000F0000
001F8000
0027C000
0032D000
00A1E000
00D0F400
01C0B800
02807C00
07AABD00
0A002F00
0D000F40
2C000B80
BF403FF4
ENDCHAR
STARTCHAR uni1EB5
ENCODING 7861
SWIDTH 480 0
DWIDTH 10 0
BBX 9 17 0 0
BITMAP
0A8100
146800
000000
140500
080800
06A400
000000
06B800
2C1D00
2C0E00
140E00
006E00
0A4E00
2C0E00
780E00
381E00
1F8B80
ENDCHAR
STARTCHAR uni1EB6
ENCODING 7862
SWIDTH 718 0
DWIDTH 14 0
BBX 15 22 0 -4
BITMAP
00802000
00506000
001A8000
00000000
000A0000
000F0000
001F8000
0027C000
0032D000
00A1E000
00D0F400
01C0B800
02807C00
07AABD00
0A002F00
0D000F40
2C000B80
BF403FF4
00000000
00000000
001E0000
001E0000
ENDCHAR
STARTCHAR uni1EB7
ENCODING 7863
SWIDTH 480 0
DWIDTH 10 0
BBX 9 18 0 -4
BITMAP
140500
080800
06A400
000000
06B800
2C1D00
2C0E00
140E00
006E00
0A4E00
2C0E00
780E00
381E00
1F8B80
000000
000000
01E000
01D000
ENDCHAR
STARTCHAR uni1EB8
ENCODING 7864
SWIDTH 626 0
DWIDTH 13 0
BBX 12 18 0 -4
BITMAP
2FFFFD
07801D
078005
078000
078020
078020
078060
07EBE0
078020
078000
078002
078006
07801E
6FFFFD
000000
000000
002D00
001D00
ENDCHAR
STARTCHAR uni1EB9
ENCODING 7865
SWIDTH 464 0
DWIDTH 9 0
BBX 9 14 0 -4
BITMAP
06B800
1C0E00
340740
3EAB40
740000
740000
3C0040
2E0240
1FFE00
06F800
000000
000000
01F000
00E000
ENDCHAR
STARTCHAR uni1EBA
ENCODING 7866
SWIDTH 626 0
DWIDTH 13 0
BBX 12 18 0 0
BITMAP
002A00
002340
000340
000800
2FFFFD
07801D
078005
078000
078020
078020
078060
07EBE0
078020
078000
078002
078006
07801E
6FFFFD
ENDCHAR
STARTCHAR uni1EBB
ENCODING 7867
SWIDTH 464 0
DWIDTH 9 0
BBX 9 16 0 0
BITMAP
01A400
025800
001C00
002400
009000
000000
06B800
1C0E00
340740
3EAB40
740000
740000
3C0040
2E0240
1FFE00
06F800
ENDCHAR
STARTCHAR uni1EBC
ENCODING 7868
SWIDTH 626 0
DWIDTH 13 0
BBX 12 17 0 0
BITMAP
00A950
010B80
000000
2FFFFD
07801D
078005
078000
078020
078020
078060
07EBE0
078020
078000
078002
078006
07801E
6FFFFD
ENDCHAR
STARTCHAR uni1EBD
ENCODING 7869
SWIDTH 464 0
DWIDTH 9 0
BBX 9 13 0 0
BITMAP
069200
046900
000000
06B800
1C0E00
340740
3EAB40
740000
740000
3C0040
2E0240
1FFE00
06F800
ENDCHAR
STARTCHAR uni1EBE
ENCODING 7870
SWIDTH 626 0
DWIDTH 13 0
BBX 12 18 0 0
BITMAP
00000E
002E28
007750
018180
2FFFFD
07801D
078005
078000
078020
078020
078060
07EBE0
078020
078000
078002
078006
07801E
6FFFFD
ENDCHAR
STARTCHAR uni1EBF
ENCODING 7871
SWIDTH 464 0
DWIDTH 9 0
BBX 10 16 0 0
BITMAP
0001E0
000280
01E200
036800
090900
000000
06B800
1C0E00
340740
3EAB40
740000
740000
3C0040
2E0240
1FFE00
06F800
ENDCHAR
STARTCHAR uni1EC0
ENCODING 7872
SWIDTH 626 0
DWIDTH 13 0
BBX 12 18 0 0
BITMAP
0001D0
002974
007B44
018180
2FFFFD
07801D
078005
078000
078020
078020
078060
07EBE0
078020
078000
078002
078006
07801E
6FFFFD
ENDCHAR
STARTCHAR uni1EC1
ENCODING 7873
SWIDTH 464 0
DWIDTH 9 0
BBX 9 16 0 0
BITMAP
001D00
000A00
01E200
03A800
090900
000000
06B800
1C0E00
340740
3EAB40
740000
740000
3C0040
2E0240
1FFE00
06F800
ENDCHAR
STARTCHAR uni1EC2
ENCODING 7874
SWIDTH 626 0
DWIDTH 13 0
BBX 12 20 0 0
BITMAP
0001A4
00015C
000018
002E50
009280
004040
2FFFFD
07801D
078005
078000
078020
078020
078060
07EBE0
078020
078000
078002
078006
07801E
6FFFFD
ENDCHAR
STARTCHAR uni1EC3
ENCODING 7875
SWIDTH 464 0
DWIDTH 9 0
BBX 10 18 0 0
BITMAP
000A80
0018D0
0000D0
000180
01F600
025800
090500
000000
06B800
1C0E00
340740
3EAB40
740000
740000
3C0040
2E0240
1FFE00
06F800
ENDCHAR
STARTCHAR uni1EC4
ENCODING 7876
SWIDTH 626 0
DWIDTH 13 0
BBX 12 19 0 0
BITMAP
00A810
010A80
001900
007B00
019180
2FFFFD
07801D
078005
078000
078020
078020
078060
07EBE0
078020
078000
078002
078006
07801E
6FFFFD
ENDCHAR
STARTCHAR uni1EC5
ENCODING 7877
SWIDTH 464 0
DWIDTH 9 0
BBX 9 17 0 0
BITMAP
069200
046900
000000
01E000
036800
090900
000000
06B800
1C0E00
340740
3EAB40
740000
740000
3C0040
2E0240
1FFE00
06F800
ENDCHAR
STARTCHAR uni1EC6
ENCODING 7878
SWIDTH 626 0
DWIDTH 13 0
BBX 12 21 0 -4
BITMAP
002E00
007740
018180
2FFFFD
07801D
078005
078000
078020
078020
078060
07EBE0
078020
078000
078002
078006
07801E
6FFFFD
000000
000000
002D00
001D00
ENDCHAR
STARTCHAR uni1EC7
ENCODING 7879
SWIDTH 464 0
DWIDTH 9 0
BBX 9 18 0 -4
BITMAP
01E000
036800
090900
000000
06B800
1C0E00
340740
3EAB40
740000
740000
3C0040
2E0240
1FFE00
06F800
000000
000000
01F000
00E000
ENDCHAR
STARTCHAR uni1EC8
ENCODING 7880
SWIDTH 357 0
DWIDTH 7 0
BBX 7 18 0 0
BITMAP
0A80
08A0
0090
0240
7FF4
0B80
0740
0740
0740
0740
0740
0740
0740
0740
0740
0740
0B80
7FF4
ENDCHAR
STARTCHAR uni1EC9
ENCODING 7881
SWIDTH 285 0
DWIDTH 6 0
BBX 5 16 0 0
BITMAP
1A00
3240
0280
0240
0800
0000
2E00
1E00
0E00
0E00
0E00
0E00
0E00
0E00
0E00
7FC0
ENDCHAR
STARTCHAR uni1ECA
ENCODING 7882
SWIDTH 357 0
DWIDTH 7 0
BBX 7 18 0 -4
BITMAP
7FF4
0B80
0740
0740
0740
0740
0740
0740
0740
0740
0740
0740
0B80
7FF4
0000
0000
0780
0740
ENDCHAR
STARTCHAR uni1ECB
ENCODING 7883
SWIDTH 285 0
DWIDTH 6 0
BBX 5 18 0 -4
BITMAP
0E00
0F00
0000
0000
2E00
1E00
0E00
0E00
0E00
0E00
0E00
0E00
0E00
7FC0
0000
0000
0F00
0E00
ENDCHAR
STARTCHAR uni1ECC
ENCODING 7884
SWIDTH 738 0
DWIDTH 15 0
BBX 13 18 1 -4
BITMAP
01AA9000
0B40B800
2D002D00
78000F00
B4000B40
F4000780
F0000780
F0000780
F4000780
B4000B40
78000F00
2D001D00
0B407400
01AA9000
00000000
00000000
002D0000
001D0000
ENDCHAR
STARTCHAR uni1ECD
ENCODING 7885
SWIDTH 514 0
DWIDTH 10 0
BBX 10 14 0 -4
BITMAP
06E900
1E0780
2C02C0
3801D0
7801E0
7801E0
3801D0
3C02C0
1E0340
06E900
000000
000000
00B400
00B000
ENDCHAR
STARTCHAR uni1ECE
ENCODING 7886
SWIDTH 738 0
DWIDTH 15 0
BBX 13 18 1 0
BITMAP
002A0000
00234000
00034000
00080000
01AA9000
0B40B800
2D002D00
78000F00
B4000B40
F4000780
F0000780
F0000780
F4000780
B4000B40
78000F00
2D001D00
0B407400
01AA9000
ENDCHAR
STARTCHAR uni1ECF
ENCODING 7887
SWIDTH 514 0
DWIDTH 10 0
BBX 10 16 0 0
BITMAP
00A800
018D00
000D00
001800
006000
000000
06E900
1E0780
2C02C0
3801D0
7801E0
7801E0
3801D0
3C02C0
1E0340
06E900
ENDCHAR
STARTCHAR uni1ED0
ENCODING 7888
SWIDTH 738 0
DWIDTH 15 0
BBX 13 18 1 0
BITMAP
00000E00
002D2800
00775000
01818000
01AA9000
0B40B800
2D002D00
78000F00
B4000B40
F4000780
F0000780
F0000780
F4000780
B4000B40
78000F00
2D001D00
0B407400
01AA9000
ENDCHAR
STARTCHAR uni1ED1
ENCODING 7889
SWIDTH 514 0
DWIDTH 10 0
BBX 10 16 0 0
BITMAP
0000B0
0001D0
00B640
029C00
060600
000000
06E900
1E0780
2C02C0
3801D0
7801E0
7801E0
3801D0
3C02C0
1E0340
06E900
ENDCHAR
STARTCHAR uni1ED2
ENCODING 7890
SWIDTH 738 0
DWIDTH 15 0
BBX 13 18 1 0
BITMAP
0001D000
00297400
007B4400
01818000
01AA9000
0B40B800
2D002D00
78000F00
B4000B40
F4000780
F0000780
F0000780
F4000780
B4000B40
78000F00
2D001D00
0B407400
01AA9000
ENDCHAR
STARTCHAR uni1ED3
ENCODING 7891
SWIDTH 514 0
DWIDTH 10 0
BBX 10 16 0 0
BITMAP
000E00
000700
00B540
029C00
060600
000000
06E900
1E0780
2C02C0
3801D0
7801E0
7801E0
3801D0
3C02C0
1E0340
06E900
ENDCHAR
STARTCHAR uni1ED4
ENCODING 7892
SWIDTH 738 0
DWIDTH 15 0
BBX 13 20 1 0
BITMAP
0001A400
00015C00
00001800
002E5000
00928000
00404000
01AA9000
0B40B800
2D002D00
78000F00
B4000B40
F4000780
F0000780
F0000780
F4000780
B4000B40
78000F00
2D001D00
0B407400
01AA9000
ENDCHAR
STARTCHAR uni1ED5
ENCODING 7893
SWIDTH 514 0
DWIDTH 10 0
BBX 10 18 0 0
BITMAP
000680
000DA0
0000A0
000090
00B600
029800
050200
000000
06E900
1E0780
2C02C0
3801D0
7801E0
7801E0
3801D0
3C02C0
1E0340
06E900
ENDCHAR
STARTCHAR uni1ED6
ENCODING 7894
SWIDTH 738 0
DWIDTH 15 0
BBX 13 19 1 0
BITMAP
00A81000
010A8000
00190000
007B0000
01918000
01AA9000
0B40B800
2D002D00
78000F00
B4000B40
F4000780
F0000780
F0000780
F4000780
B4000B40
78000F00
2D001D00
0B407400
01AA9000
ENDCHAR
STARTCHAR uni1ED7
ENCODING 7895
SWIDTH 514 0
DWIDTH 10 0
BBX 10 17 0 0
BITMAP
06D140
042A00
000000
00B400
029C00
060600
000000
06E900
1E0780
2C02C0
3801D0
7801E0
7801E0
3801D0
3C02C0
1E0340
06E900
ENDCHAR
STARTCHAR uni1ED8
ENCODING 7896
SWIDTH 738 0
DWIDTH 15 0
BBX 13 21 1 -4
BITMAP
002D0000
00774000
01818000
01AA9000
0B40B800
2D002D00
78000F00
B4000B40
F4000780
F0000780
F0000780
F4000780
B4000B40
78000F00
2D001D00
0B407400
01AA9000
00000000
00000000
002D0000
001D0000
ENDCHAR
STARTCHAR uni1ED9
ENCODING 7897
SWIDTH 514 0
DWIDTH 10 0
BBX 10 18 0 -4
BITMAP
00B400
029C00
060600
000000
06E900
1E0780
2C02C0
3801D0
7801E0
7801E0
3801D0
3C02C0
1E0340
06E900
000000
000000
00B400
00B000
ENDCHAR
STARTCHAR uni1EDA
ENCODING 7898
SWIDTH 737 0
DWIDTH 15 0
BBX 14 17 1 0
BITMAP
00064140
001E02D0
006401C0
01ABFA40
0B40B800
2D002E00
78000F00
B4000B40
F4000780
F0000780
F0000780
F4000780
B4000B40
78000F00
2D001D00
0B407400
01AA9000
ENDCHAR
STARTCHAR uni1EDB
ENCODING 7899
SWIDTH 516 0
DWIDTH 10 0
BBX 10 14 0 0
BITMAP
002D00
0074A0
009070
000070
06FF90
1E0740
2C02C0
3801D0
7801E0
7801E0
3801D0
3C02C0
1E0340
06E900
ENDCHAR
STARTCHAR uni1EDC
ENCODING 7900
SWIDTH 737 0
DWIDTH 15 0
BBX 14 17 1 0
BITMAP
00640140
002C02D0
000601C0
01ABFA40
0B40B800
2D002E00
78000F00
B4000B40
F4000780
F0000780
F0000780
F4000780
B4000B40
78000F00
2D001D00
0B407400
01AA9000
ENDCHAR
STARTCHAR uni1EDD
ENCODING 7901
SWIDTH 516 0
DWIDTH 10 0
BBX 10 14 0 0
BITMAP
02C000
00A0A0
002070
000070
06FF90
1E0740
2C02C0
3801D0
7801E0
7801E0
3801D0
3C02C0
1E0340
06E900
ENDCHAR
STARTCHAR uni1EDE
ENCODING 7902
SWIDTH 737 0
DWIDTH 15 0
BBX 14 18 1 0
BITMAP
002A0000
00234140
000342D0
000801C0
01ABFA40
0B40B800
2D002E00
78000F00
B4000B40
F4000780
F0000780
F0000780
F4000780
B4000B40
78000F00
2D001D00
0B407400
01AA9000
ENDCHAR
STARTCHAR uni1EDF
ENCODING 7903
SWIDTH 516 0
DWIDTH 10 0
BBX 10 16 0 0
BITMAP
00A800
018D00
000D00
0018A0
006070
000070
06FF90
1E0740
2C02C0
3801D0
7801E0
7801E0
3801D0
3C02C0
1E0340
06E900
ENDCHAR
STARTCHAR uni1EE0
ENCODING 7904
SWIDTH 737 0
DWIDTH 15 0
BBX 14 17 1 0
BITMAP
00A95140
010B82D0
000001C0
01ABFA40
0B40B800
2D002E00
78000F00
B4000B40
F4000780
F0000780
F0000780
F4000780
B4000B40
78000F00
2D001D00
0B407400
01AA9000
ENDCHAR
STARTCHAR uni1EE1
ENCODING 7905
SWIDTH 516 0
DWIDTH 10 0
BBX 10 14 0 0
BITMAP
068150
0862B0
042970
000070
06FF80
1E0740
2C02C0
3801D0
7801E0
7801E0
3801D0
3C02C0
1E0340
06E900
ENDCHAR
STARTCHAR uni1EE2
ENCODING 7906
SWIDTH 737 0
DWIDTH 15 0
BBX 14 21 1 -4
BITMAP
00000140
000002D0
000001C0
01ABFA40
0B40B800
2D002E00
78000F00
B4000B40
F4000780
F0000780
F0000780
F4000780
B4000B40
78000F00
2D001D00
0B407400
01AA9000
00000000
00000000
002D0000
002D0000
ENDCHAR
STARTCHAR uni1EE3
ENCODING 7907
SWIDTH 516 0
DWIDTH 10 0
BBX 10 17 0 -4
BITMAP
0000A0
000070
000070
06FF90
1E0740
2C02C0
3801D0
7801E0
7801E0
3801D0
3C02C0
1E0340
06E900
000000
000000
00B400
00B000
ENDCHAR
STARTCHAR uni1EE4
ENCODING 7908
SWIDTH 752 0
DWIDTH 15 0
BBX 15 18 0 -4
BITMAP
7FF01FF8
0F4002C0
0B400180
0B400180
0B400180
0B400180
0B400180
0B400180
0B400180
0B400180
07400180
03800240
02D00A00
006EA400
00000000
00000000
00078000
00074000
ENDCHAR
STARTCHAR uni1EE5
ENCODING 7909
SWIDTH 570 0
DWIDTH 11 0
BBX 11 14 0 -4
BITMAP
6D0BD0
1D01D0
1D01D0
1D01D0
1D01D0
1D01D0
1D01D0
0E01D0
0F02D0
06E5E4
000000
000000
007400
007400
ENDCHAR
STARTCHAR uni1EE6
ENCODING 7910
SWIDTH 752 0
DWIDTH 15 0
BBX 15 18 0 0
BITMAP
00069000
00057000
00006000
00014000
7FF01FF8
0F4002C0
0B400180
0B400180
0B400180
0B400180
0B400180
0B400180
0B400180
0B400180
07400180
03800240
02D00A00
006EA400
ENDCHAR
STARTCHAR uni1EE7
ENCODING 7911
SWIDTH 570 0
DWIDTH 11 0
BBX 11 16 0 0
BITMAP
006800
00C900
000A00
000900
002000
000000
6D0BD0
1D01D0
1D01D0
1D01D0
1D01D0
1D01D0
1D01D0
0E01D0
0F02D0
06E5E4
ENDCHAR
STARTCHAR uni1EE8
ENCODING 7912
SWIDTH 762 0
DWIDTH 15 0
BBX 17 18 0 0
BITMAP
0000000100
0000600B40
0002D00740
000A000300
7FF01FF900
0F4002C000
0B4001C000
0B40018000
0B40018000
0B40018000
0B40018000
0B40018000
0B40018000
0B40018000
0740018000
0380024000
02D00A0000
006EA40000
ENDCHAR
STARTCHAR uni1EE9
ENCODING 7913
SWIDTH 574 0
DWIDTH 11 0
BBX 12 14 0 0
BITMAP
002D00
00340D
00600E
000009
6D0AF8
1D06D0
1D01D0
1D01D0
1D01D0
1D01D0
1D01D0
0E01D0
0F02D0
06E5E4
ENDCHAR
STARTCHAR uni1EEA
ENCODING 7914
SWIDTH 762 0
DWIDTH 15 0
BBX 17 18 0 0
BITMAP
0000000100
0009000B40
0007800740
0000A00300
7FF01FF900
0F4002C000
0B4001C000
0B40018000
0B40018000
0B40018000
0B40018000
0B40018000
0B40018000
0B40018000
0740018000
0380024000
02D00A0000
006EA40000
ENDCHAR
STARTCHAR uni1EEB
ENCODING 7915
SWIDTH 574 0
DWIDTH 11 0
BBX 12 14 0 0
BITMAP
02D000
00A00D
00240E
000009
6D0AF8
1D06D0
1D01D0
1D01D0
1D01D0
1D01D0
1D01D0
0E01D0
0F02D0
06E5E4
ENDCHAR
STARTCHAR uni1EEC
ENCODING 7916
SWIDTH 762 0
DWIDTH 15 0
BBX 17 18 0 0
BITMAP
0006900100
0005700B40
0000600740
0001400300
7FF01FF900
0F4002C000
0B4001C000
0B40018000
0B40018000
0B40018000
0B40018000
0B40018000
0B40018000
0B40018000
0740018000
0380024000
02D00A0000
006EA40000
ENDCHAR
STARTCHAR uni1EED
ENCODING 7917
SWIDTH 574 0
DWIDTH 11 0
BBX 12 16 0 0
BITMAP
00A800
00CD00
000900
000C0D
00200E
000009
6D0AF8
1D06D0
1D01D0
1D01D0
1D01D0
1D01D0
1D01D0
0E01D0
0F02D0
06E5E4
ENDCHAR
STARTCHAR uni1EEE
ENCODING 7918
SWIDTH 762 0
DWIDTH 15 0
BBX 17 18 0 0
BITMAP
0000000100
001A550B40
0011B40740
0000000300
7FF01FF900
0F4002C000
0B4001C000
0B40018000
0B40018000
0B40018000
0B40018000
0B40018000
0B40018000
0B40018000
0740018000
0380024000
02D00A0000
006EA40000
ENDCHAR
STARTCHAR uni1EEF
ENCODING 7919
SWIDTH 574 0
DWIDTH 11 0
BBX 12 13 0 0
BITMAP
02A54D
042E0E
000009
6D0AF8
1D06D0
1D01D0
1D01D0
1D01D0
1D01D0
1D01D0
0E01D0
0F02D0
06E5E4
ENDCHAR
STARTCHAR uni1EF0
ENCODING 7920
SWIDTH 762 0
DWIDTH 15 0
BBX 17 22 0 -4
BITMAP
0000000100
0000000B40
0000000740
0000000300
7FF01FF900
0F4002C000
0B4001C000
0B40018000
0B40018000
0B40018000
0B40018000
0B40018000
0B40018000
0B40018000
0740018000
0380024000
02D00A0000
006EA40000
0000000000
0000000000
0007800000
0007400000
ENDCHAR
STARTCHAR uni1EF1
ENCODING 7921
SWIDTH 574 0
DWIDTH 11 0
BBX 12 17 0 -4
BITMAP
00000D
00000E
000009
6D0AF8
1D06D0
1D01D0
1D01D0
1D01D0
1D01D0
1D01D0
0E01D0
0F02D0
06E5E4
000000
000000
00B400
007400
ENDCHAR
STARTCHAR Ygrave
ENCODING 7922
SWIDTH 647 0
DWIDTH 13 0
BBX 13 17 0 0
BITMAP
00640000
001D0000
00024000
FFD07FC0
2F000D00
0B401800
03C03000
02E09000
00F4C000
007A4000
002E0000
001D0000
001D0000
001D0000
001D0000
002E0000
01FFD000
ENDCHAR
STARTCHAR ygrave
ENCODING 7923
SWIDTH 483 0
DWIDTH 10 0
BBX 11 19 -1 -5
BITMAP
00B000
002800
000800
000000
7FC1F8
0F0060
0B4090
0780C0
02C180
01E240
00F200
007900
003C00
002800
002400
003000
00A000
2EC000
2E4000
ENDCHAR
STARTCHAR uni1EF4
ENCODING 7924
SWIDTH 647 0
DWIDTH 13 0
BBX 13 18 0 -4
BITMAP
FFD07FC0
2F000D00
0B401800
03C03000
02E09000
00F4C000
007A4000
002E0000
001D0000
001D0000
001D0000
001D0000
002E0000
01FFD000
00000000
00000000
001E0000
001D0000
ENDCHAR
STARTCHAR uni1EF5
ENCODING 7925
SWIDTH 483 0
DWIDTH 10 0
BBX 11 15 -1 -5
BITMAP
7FC1F8
0F0060
0B4090
0780C0
02C180
01E240
00F200
007900
003C00
002800
002400
003000
00A780
2EC780
2E4000
ENDCHAR
STARTCHAR uni1EF6
ENCODING 7926
SWIDTH 647 0
DWIDTH 13 0
BBX 13 18 0 0
BITMAP
001A4000
00258000
00028000
00090000
FFD07FC0
2F000D00
0B401800
03C03000
02E09000
00F4C000
007A4000
002E0000
001D0000
001D0000
001D0000
001D0000
002E0000
01FFD000
ENDCHAR
STARTCHAR uni1EF7
ENCODING 7927
SWIDTH 483 0
DWIDTH 10 0
BBX 11 21 -1 -5
BITMAP
002900
006300
000340
000600
001800
000000
7FC1F8
0F0060
0B4090
0780C0
02C180
01E240
00F200
007900
003C00
002800
002400
003000
00A000
2EC000
2E4000
ENDCHAR
STARTCHAR uni1EF8
ENCODING 7928
SWIDTH 647 0
DWIDTH 13 0
BBX 13 17 0 0
BITMAP
00692000
01469000
00000000
FFD07FC0
2F000D00
0B401800
03C03000
02E09000
00F4C000
007A4000
002E0000
001D0000
001D0000
001D0000
001D0000
002E0000
01FFD000
ENDCHAR
STARTCHAR uni1EF9
ENCODING 7929
SWIDTH 483 0
DWIDTH 10 0
BBX 11 18 -1 -5
BITMAP
01A550
020B80
000000
7FC1F8
0F0060
0B4090
0780C0
02C180
01E240
00F200
007900
003C00
002800
002400
003000
00A000
2EC000
2E4000
ENDCHAR
STARTCHAR uni2000
ENCODING 8192
SWIDTH 500 0
DWIDTH 10 0
BBX 1 1 0 0
BITMAP
00
ENDCHAR
STARTCHAR uni2001
ENCODING 8193
SWIDTH 1000 0
DWIDTH 20 0
BBX 1 1 0 0
BITMAP
00
ENDCHAR
STARTCHAR uni2002
ENCODING 8194
SWIDTH 500 0
DWIDTH 10 0
BBX 1 1 0 0
BITMAP
00
ENDCHAR
STARTCHAR uni2003
ENCODING 8195
SWIDTH 1000 0
DWIDTH 20 0
BBX 1 1 0 0
BITMAP
00
ENDCHAR
STARTCHAR uni2004
ENCODING 8196
SWIDTH 334 0
DWIDTH 7 0
BBX 1 1 0 0
BITMAP
00
ENDCHAR
STARTCHAR uni2005
ENCODING 8197
SWIDTH 250 0
DWIDTH 5 0
BBX 1 1 0 0
BITMAP
00
ENDCHAR
STARTCHAR uni2006
ENCODING 8198
SWIDTH 167 0
DWIDTH 3 0
BBX 1 1 0 0
BITMAP
00
ENDCHAR
STARTCHAR uni2007
ENCODING 8199
SWIDTH 560 0
DWIDTH 11 0
BBX 1 1 0 0
BITMAP
00
ENDCHAR
STARTCHAR uni2008
ENCODING 8200
SWIDTH 297 0
DWIDTH 6 0
BBX 1 1 0 0
BITMAP
00
ENDCHAR
STARTCHAR uni2009
ENCODING 8201
SWIDTH 125 0
DWIDTH 3 0
BBX 1 1 0 0
BITMAP
00
ENDCHAR
STARTCHAR uni200A
ENCODING 8202
SWIDTH 63 0
DWIDTH 1 0
BBX 1 1 0 0
BITMAP
00
ENDCHAR
STARTCHAR uni200B
ENCODING 8203
SWIDTH 0 0
DWIDTH 0 0
BBX 1 1 0 0
BITMAP
00
ENDCHAR
STARTCHAR uni200C
ENCODING 8204
SWIDTH 0 0
DWIDTH 0 0
BBX 2 21 -1 -5
BITMAP
50
50
50
50
50
50
50
50
50
50
50
50
50
50
50
50
50
50
50
50
50
ENDCHAR
STARTCHAR uni200D
ENCODING 8205
SWIDTH 0 0
DWIDTH 0 0
BBX 6 23 -3 -5
BITMAP
2080
0A00
2580
5550
0500
0500
0500
0500
0500
0500
0500
0500
0500
0500
0500
0500
0500
0500
0500
0500
0500
0500
0500
ENDCHAR
STARTCHAR uni2010
ENCODING 8208
SWIDTH 315 0
DWIDTH 6 0
BBX 5 1 1 5
BITMAP
AA40
ENDCHAR
STARTCHAR uni2011
ENCODING 8209
SWIDTH 315 0
DWIDTH 6 0
BBX 5 1 1 5
BITMAP
AA40
ENDCHAR
STARTCHAR figuredash
ENCODING 8210
SWIDTH 495 0
DWIDTH 10 0
BBX 10 1 0 5
BITMAP
6AAA90
ENDCHAR
STARTCHAR endash
ENCODING 8211
SWIDTH 500 0
DWIDTH 10 0
BBX 10 1 0 5
BITMAP
6AAA90
ENDCHAR
STARTCHAR emdash
ENCODING 8212
SWIDTH 1000 0
DWIDTH 20 0
BBX 20 1 0 5
BITMAP
6AAAAAAAA9
ENDCHAR
STARTCHAR uni2015
ENCODING 8213
SWIDTH 940 0
DWIDTH 19 0
BBX 19 1 0 5
BITMAP
AAAAAAAAA8
ENDCHAR
STARTCHAR uni2016
ENCODING 8214
SWIDTH 427 0
DWIDTH 9 0
BBX 5 19 2 -5
BITMAP
D240
D240
D240
D240
D240
D240
D240
D240
D240
D240
D240
D240
D240
D240
D240
D240
D240
D240
D240
ENDCHAR
STARTCHAR underscoredbl
ENCODING 8215
SWIDTH 512 0
DWIDTH 10 0
BBX 11 3 0 -5
BITMAP
AAAAA4
000000
AAAAA4
ENDCHAR
STARTCHAR quoteleft
ENCODING 8216
SWIDTH 245 0
DWIDTH 5 0
BBX 3 5 1 10
BITMAP
14
60
90
B8
78
ENDCHAR
STARTCHAR quoteright
ENCODING 8217
SWIDTH 245 0
DWIDTH 5 0
BBX 3 5 1 9
BITMAP
B4
F8
18
20
90
ENDCHAR
STARTCHAR quotesinglbase
ENCODING 8218
SWIDTH 243 0
DWIDTH 5 0
BBX 3 5 1 -3
BITMAP
F4
B8
18
20
40
ENDCHAR
STARTCHAR quotereversed
ENCODING 8219
SWIDTH 243 0
DWIDTH 5 0
BBX 3 5 1 9
BITMAP
78
B8
90
60
14
ENDCHAR
STARTCHAR quotedblleft
ENCODING 8220
SWIDTH 435 0
DWIDTH 9 0
BBX 7 5 1 10
BITMAP
1414
6060
90D0
B8F8
78B4
ENDCHAR
STARTCHAR quotedblright
ENCODING 8221
SWIDTH 434 0
DWIDTH 9 0
BBX 7 5 1 9
BITMAP
B4F0
F8F4
1824
2020
9080
ENDCHAR
STARTCHAR quotedblbase
ENCODING 8222
SWIDTH 433 0
DWIDTH 9 0
BBX 7 5 1 -3
BITMAP
F4F4
B8F4
1824
2060
4040
ENDCHAR
STARTCHAR uni201F
ENCODING 8223
SWIDTH 434 0
DWIDTH 9 0
BBX 7 5 1 9
BITMAP
78B4
B8F8
90D0
6060
1414
ENDCHAR
STARTCHAR dagger
ENCODING 8224
SWIDTH 512 0
DWIDTH 10 0
BBX 8 17 1 -3
BITMAP
02C0
02C0
0180
0040
BEFF
604A
0040
0180
02C0
02C0
0280
0180
0140
0040
0040
0040
0040
ENDCHAR
STARTCHAR daggerdbl
ENCODING 8225
SWIDTH 512 0
DWIDTH 10 0
BBX 8 17 1 -3
BITMAP
02C0
02C0
0180
0040
BEFF
644A
0140
0180
02C0
0180
0140
B9AE
A55A
0140
0280
02C0
0140
ENDCHAR
STARTCHAR bullet
ENCODING 8226
SWIDTH 457 0
DWIDTH 9 0
BBX 5 5 2 3
BITMAP
2E40
BF80
BFC0
BF80
2E00
ENDCHAR
STARTCHAR twodotenleader
ENCODING 8229
SWIDTH 500 0
DWIDTH 10 0
BBX 8 2 1 0
BITMAP
F00F
F00F
ENDCHAR
STARTCHAR ellipsis
ENCODING 8230
SWIDTH 887 0
DWIDTH 18 0
BBX 14 2 2 0
BITMAP
F41F02E0
B41E01D0
ENDCHAR
STARTCHAR uni202F
ENCODING 8239
SWIDTH 125 0
DWIDTH 3 0
BBX 1 1 0 0
BITMAP
00
ENDCHAR
STARTCHAR perthousand
ENCODING 8240
SWIDTH 1017 0
DWIDTH 20 0
BBX 19 14 1 0
BITMAP
1E90640000
74AAB00000
A050D00000
D052800000
D083000000
E14A000000
691C000000
0024A80690
0062821D24
00D7422814
0187023414
030B023420
0907093860
0C02E41E80
ENDCHAR
STARTCHAR uni2031
ENCODING 8241
SWIDTH 1342 0
DWIDTH 27 0
BBX 25 14 1 0
BITMAP
1E906400000000
74AAB000000000
A050D000000000
D0528000000000
D0830000000000
E14A0000000000
691C0000000000
0024A806902A00
0062821D24A080
00D7422815D080
0187023415C080
030B023422C080
0907093861C240
0C02E41E80B900
ENDCHAR
STARTCHAR minute
ENCODING 8242
SWIDTH 296 0
DWIDTH 6 0
BBX 4 6 1 8
BITMAP
0D
1D
2C
34
70
90
ENDCHAR
STARTCHAR second
ENCODING 8243
SWIDTH 436 0
DWIDTH 9 0
BBX 7 6 1 8
BITMAP
0D74
1DB4
2CE0
35D0
7180
9240
ENDCHAR
STARTCHAR uni2034
ENCODING 8244
SWIDTH 576 0
DWIDTH 12 0
BBX 9 6 1 8
BITMAP
0D75C0
1DB6C0
2CE340
35D700
718900
924C00
ENDCHAR
STARTCHAR uni2035
ENCODING 8245
SWIDTH 296 0
DWIDTH 6 0
BBX 4 6 1 8
BITMAP
60
74
38
1C
0D
05
ENDCHAR
STARTCHAR uni2036
ENCODING 8246
SWIDTH 436 0
DWIDTH 9 0
BBX 7 6 1 8
BITMAP
7280
76C0
39D0
1CA0
0D70
0524
ENDCHAR
STARTCHAR uni2037
ENCODING 8247
SWIDTH 576 0
DWIDTH 12 0
BBX 9 6 1 8
BITMAP
728D00
76CF00
39D740
1CA340
0D7180
0524C0
ENDCHAR
STARTCHAR uni2038
ENCODING 8248
SWIDTH 523 0
DWIDTH 10 0
BBX 8 6 1 -4
BITMAP
0180
03A0
0924
240C
6006
4001
ENDCHAR
STARTCHAR guilsinglleft
ENCODING 8249
SWIDTH 307 0
DWIDTH 6 0
BBX 5 8 0 1
BITMAP
0080
0240
0A00
2800
7800
1D00
0700
0180
ENDCHAR
STARTCHAR guilsinglright
ENCODING 8250
SWIDTH 307 0
DWIDTH 6 0
BBX 5 8 1 1
BITMAP
8000
6000
1800
0B00
0740
1D00
3400
9000
ENDCHAR
ENDFONT
